<?xml-stylesheet type="text/css" href="../style/githubsec.css" ?>    

<svg width="1779.0000000000002" height="1570" xmlns="http://www.w3.org/2000/svg" xmlns:xlink="http://www.w3.org/1999/xlink">
 <g>
  <g fill="none" fill-rule="evenodd" id="svg_1">
   <path d="m732.298029,323.896173l2.756,1.507a0.394,0.394 0 0 1 0,0.69l-2.756,1.508a0.4,0.4 0 0 0 -0.15599,0.156l-1.507,2.756a0.393,0.393 0 0 1 -0.69,0l-1.50801,-2.755a0.395,0.395 0 0 0 -0.157,-0.16l-2.755,-1.505a0.394,0.394 0 0 1 0,-0.69l2.755,-1.508a0.393,0.393 0 0 0 0.157,-0.157l1.507,-2.754a0.393,0.393 0 0 1 0.69,0l1.50801,2.754c0.03599,0.067 0.09,0.12 0.15599,0.157" fill="#D15D64" id="svg_2"/>
   <path d="m255.599309,414.055103l1.36,0.745a0.395,0.395 0 0 1 0,0.692l-1.36,0.743a0.4,0.4 0 0 0 -0.156,0.157l-0.743,1.36a0.394,0.394 0 0 1 -0.692,0l-0.743,-1.36a0.395,0.395 0 0 0 -0.157,-0.157l-1.36,-0.743a0.395,0.395 0 0 1 0,-0.692l1.36,-0.744a0.393,0.393 0 0 0 0.157,-0.155l0.743,-1.36a0.395,0.395 0 0 1 0.692,0l0.744,1.36c0.037,0.066 0.092,0.12 0.157,0.156" fill="#FCD05C" id="svg_3"/>
   <path d="m423.792039,339.779173l-1.472,1.47m5.47,-5.47l-1.47,1.472m-2.457,2.691a1.852,1.852 0 1 0 2.62,-2.62a1.852,1.852 0 1 0 -2.62,2.62z" stroke="#7B63AB" stroke-width="1.097" stroke-linecap="round" stroke-linejoin="round" id="svg_4"/>
   <path d="m978.520309,385.452103l2.756,1.507a0.394,0.394 0 0 1 0,0.69l-2.756,1.507a0.4,0.4 0 0 0 -0.156,0.16l-1.507,2.754a0.393,0.393 0 0 1 -0.69,0l-1.508,-2.756a0.395,0.395 0 0 0 -0.157,-0.157l-2.755,-1.505a0.394,0.394 0 0 1 0,-0.69l2.755,-1.508a0.393,0.393 0 0 0 0.157,-0.156l1.507,-2.755a0.393,0.393 0 0 1 0.69,0l1.508,2.755c0.036,0.066 0.09,0.12 0.156,0.156" fill="#D15D64" id="svg_5"/>
   <path d="m1161.520309,424.452103l2.755,1.507a0.394,0.394 0 0 1 0,0.69l-2.755,1.508a0.397,0.397 0 0 0 -0.156,0.156l-1.506,2.756a0.393,0.393 0 0 1 -0.692,0l-1.506,-2.756a0.402,0.402 0 0 0 -0.16,-0.156l-2.753,-1.507a0.393,0.393 0 0 1 0,-0.69l2.755,-1.508a0.402,0.402 0 0 0 0.158,-0.156l1.506,-2.755a0.394,0.394 0 0 1 0.69,0l1.508,2.756c0.037,0.066 0.09,0.12 0.157,0.157" fill="#E98333" id="svg_6"/>
   <path d="m1099.599309,348.055103l1.36,0.745a0.395,0.395 0 0 1 0,0.692l-1.36,0.743a0.4,0.4 0 0 0 -0.156,0.157l-0.743,1.36a0.394,0.394 0 0 1 -0.692,0l-0.743,-1.36a0.395,0.395 0 0 0 -0.157,-0.157l-1.36,-0.743a0.395,0.395 0 0 1 0,-0.692l1.36,-0.744a0.393,0.393 0 0 0 0.157,-0.155l0.743,-1.36a0.395,0.395 0 0 1 0.692,0l0.744,1.36c0.037,0.066 0.092,0.12 0.157,0.156" fill="#FCD05C" id="svg_7"/>
   <path d="m1245.578059,494.575273a2.907,2.907 0 1 1 -5.815,-0.003a2.907,2.907 0 0 1 5.815,0.003m-1091.835,65.209l2.756,1.507a0.394,0.394 0 0 1 0,0.692l-2.756,1.507a0.4,0.4 0 0 0 -0.156,0.156l-1.507,2.755a0.393,0.393 0 0 1 -0.69,0l-1.508,-2.755a0.395,0.395 0 0 0 -0.157,-0.156l-2.755,-1.507a0.394,0.394 0 0 1 0,-0.692l2.755,-1.507a0.393,0.393 0 0 0 0.157,-0.155l1.507,-2.755a0.393,0.393 0 0 1 0.69,0l1.508,2.756c0.036,0.067 0.09,0.12 0.156,0.156" fill="#D15D64" id="svg_8"/>
   <path d="m222.599309,700.055103l1.36,0.745a0.395,0.395 0 0 1 0,0.692l-1.36,0.743a0.4,0.4 0 0 0 -0.156,0.157l-0.743,1.36a0.394,0.394 0 0 1 -0.692,0l-0.743,-1.36a0.395,0.395 0 0 0 -0.157,-0.157l-1.36,-0.743a0.395,0.395 0 0 1 0,-0.692l1.36,-0.744a0.393,0.393 0 0 0 0.157,-0.155l0.743,-1.36a0.395,0.395 0 0 1 0.692,0l0.744,1.36c0.037,0.066 0.092,0.12 0.157,0.156" fill="#FCD05C" id="svg_9"/>
   <path d="m1678.520309,774.451103l2.755,1.508a0.395,0.395 0 0 1 0,0.692l-2.755,1.506a0.39,0.39 0 0 0 -0.156,0.157l-1.506,2.754a0.393,0.393 0 0 1 -0.692,0l-1.506,-2.755a0.39,0.39 0 0 0 -0.16,-0.158l-2.753,-1.506a0.394,0.394 0 0 1 0,-0.692l2.755,-1.508a0.39,0.39 0 0 0 0.158,-0.155l1.506,-2.755a0.393,0.393 0 0 1 0.69,0l1.508,2.755a0.39,0.39 0 0 0 0.157,0.156m-285.102,-426.47l1.3,0.71c0.26,0.144 0.26,0.52 0,0.66l-1.3,0.713a0.38,0.38 0 0 0 -0.15,0.148l-0.71,1.3a0.377,0.377 0 0 1 -0.66,0l-0.71,-1.3a0.386,0.386 0 0 0 -0.152,-0.148l-1.3,-0.712a0.377,0.377 0 0 1 0,-0.66l1.3,-0.71a0.39,0.39 0 0 0 0.15,-0.15l0.71,-1.3a0.376,0.376 0 0 1 0.662,0l0.71,1.3a0.384,0.384 0 0 0 0.15,0.15" fill="#D15D64" id="svg_10"/>
   <path d="m1650.599309,630.055103l1.36,0.745a0.395,0.395 0 0 1 0,0.692l-1.36,0.743a0.4,0.4 0 0 0 -0.156,0.157l-0.743,1.36a0.394,0.394 0 0 1 -0.692,0l-0.743,-1.36a0.395,0.395 0 0 0 -0.157,-0.157l-1.36,-0.743a0.395,0.395 0 0 1 0,-0.692l1.36,-0.744a0.393,0.393 0 0 0 0.157,-0.155l0.743,-1.36a0.395,0.395 0 0 1 0.692,0l0.744,1.36c0.037,0.066 0.092,0.12 0.157,0.156" fill="#FCD05C" id="svg_11"/>
   <path stroke="#E98333" stroke-width="1.097" stroke-linecap="round" stroke-linejoin="round" d="m449.765059,626.556273l3.554,-0.888l-0.887,3.554l-2.667,-2.666z" id="svg_12"/>
   <path fill="#00A959" d="m538.768309,750.353103l2.018,1.104l-2.018,1.103l-1.104,2.018l-1.104,-2.018l-2.018,-1.103l2.018,-1.104l1.104,-2.018l1.104,2.018z" id="svg_13"/>
   <path d="m523.077279,278.563003l2.754,1.507a0.394,0.394 0 0 1 0,0.69l-2.755,1.508a0.397,0.397 0 0 0 -0.158,0.156l-1.506,2.756a0.393,0.393 0 0 1 -0.692,0l-1.507,-2.756a0.402,0.402 0 0 0 -0.157,-0.156l-2.755,-1.507a0.393,0.393 0 0 1 0,-0.69l2.755,-1.508a0.402,0.402 0 0 0 0.157,-0.156l1.508,-2.755a0.394,0.394 0 0 1 0.69,0l1.507,2.756c0.037,0.066 0.09,0.12 0.157,0.157" fill="#E98333" id="svg_14"/>
   <path d="m668.180039,434.035173l-0.847,-1.6a0.44,0.44 0 0 0 -0.18,-0.18l-1.6,-0.848a0.434,0.434 0 0 1 0,-0.768l1.6,-0.847a0.442,0.442 0 0 0 0.18,-0.18l0.847,-1.6a0.435,0.435 0 0 1 0.77,0l0.845,1.6a0.44,0.44 0 0 0 0.18,0.18l1.6,0.847c0.30999,0.163 0.30999,0.605 0,0.768l-1.6,0.847a0.436,0.436 0 0 0 -0.18,0.18l-0.846,1.6a0.435,0.435 0 0 1 -0.77,0l0.001,0.001z" stroke="#7B63AB" stroke-width="1.097" stroke-linecap="round" stroke-linejoin="round" id="svg_15"/>
   <path d="m608.298029,392.896173l2.756,1.507a0.394,0.394 0 0 1 0,0.69l-2.756,1.507a0.4,0.4 0 0 0 -0.15599,0.16l-1.507,2.754a0.393,0.393 0 0 1 -0.69,0l-1.50801,-2.756a0.395,0.395 0 0 0 -0.157,-0.157l-2.755,-1.505a0.394,0.394 0 0 1 0,-0.69l2.755,-1.508a0.393,0.393 0 0 0 0.157,-0.156l1.507,-2.755a0.393,0.393 0 0 1 0.69,0l1.50801,2.755c0.03599,0.066 0.09,0.12 0.15599,0.156" fill="#D15D64" id="svg_16"/>
   <path d="m194.522309,374.452103l2.754,1.507a0.394,0.394 0 0 1 0,0.69l-2.756,1.508a0.397,0.397 0 0 0 -0.156,0.156l-1.507,2.756a0.393,0.393 0 0 1 -0.69,0l-1.507,-2.756a0.402,0.402 0 0 0 -0.16,-0.156l-2.752,-1.507a0.393,0.393 0 0 1 0,-0.69l2.754,-1.508a0.402,0.402 0 0 0 0.157,-0.156l1.508,-2.755a0.394,0.394 0 0 1 0.69,0l1.507,2.756c0.036,0.066 0.09,0.12 0.156,0.157" fill="#E98333" id="svg_17"/>
   <path d="m291.910279,295.353003a2.907,2.907 0 1 1 -5.815,-0.003a2.907,2.907 0 0 1 5.815,0.003" fill="#D15D64" id="svg_18"/>
   <path d="m67.402309,452.591103l-0.847,-1.6a0.44,0.44 0 0 0 -0.18,-0.18l-1.6,-0.848a0.434,0.434 0 0 1 0,-0.768l1.6,-0.847a0.442,0.442 0 0 0 0.18,-0.18l0.847,-1.6a0.435,0.435 0 0 1 0.77,0l0.845,1.6a0.44,0.44 0 0 0 0.18,0.18l1.6,0.847c0.31,0.163 0.31,0.605 0,0.768l-1.6,0.847a0.436,0.436 0 0 0 -0.18,0.18l-0.846,1.6a0.435,0.435 0 0 1 -0.77,0l0.001,0.001z" stroke="#7B63AB" stroke-width="1.097" stroke-linecap="round" stroke-linejoin="round" id="svg_19"/>
   <path d="m1707.520309,508.451103l2.755,1.507a0.395,0.395 0 0 1 0,0.692l-2.755,1.507a0.39,0.39 0 0 0 -0.156,0.156l-1.506,2.755a0.393,0.393 0 0 1 -0.692,0l-1.506,-2.755a0.39,0.39 0 0 0 -0.16,-0.156l-2.753,-1.507a0.394,0.394 0 0 1 0,-0.692l2.755,-1.507a0.39,0.39 0 0 0 0.158,-0.155l1.506,-2.755a0.393,0.393 0 0 1 0.69,0l1.508,2.756a0.39,0.39 0 0 0 0.157,0.156" fill="#D15D64" id="svg_20"/>
   <path d="m1653.599309,471.057103l1.36,0.743a0.395,0.395 0 0 1 0,0.692l-1.36,0.744a0.397,0.397 0 0 0 -0.156,0.157l-0.743,1.36a0.395,0.395 0 0 1 -0.692,0l-0.743,-1.36a0.393,0.393 0 0 0 -0.157,-0.156l-1.36,-0.743a0.395,0.395 0 0 1 0,-0.692l1.36,-0.743a0.395,0.395 0 0 0 0.157,-0.157l0.743,-1.36a0.395,0.395 0 0 1 0.692,0l0.744,1.36a0.4,0.4 0 0 0 0.157,0.157" fill="#7B63AB" id="svg_21"/>
   <path d="m1628.419309,295.980103l1.3,0.71c0.26,0.145 0.26,0.52 0,0.662l-1.3,0.71a0.38,0.38 0 0 0 -0.15,0.15l-0.71,1.3a0.377,0.377 0 0 1 -0.66,0l-0.71,-1.3a0.386,0.386 0 0 0 -0.152,-0.15l-1.3,-0.71a0.377,0.377 0 0 1 0,-0.662l1.3,-0.71a0.39,0.39 0 0 0 0.15,-0.15l0.71,-1.298a0.376,0.376 0 0 1 0.662,0l0.71,1.298a0.384,0.384 0 0 0 0.15,0.15" fill="#D15D64" id="svg_22"/>
   <path d="m1679.599309,364.055103l1.36,0.745a0.395,0.395 0 0 1 0,0.692l-1.36,0.743a0.4,0.4 0 0 0 -0.156,0.157l-0.743,1.36a0.394,0.394 0 0 1 -0.692,0l-0.743,-1.36a0.395,0.395 0 0 0 -0.157,-0.157l-1.36,-0.743a0.395,0.395 0 0 1 0,-0.692l1.36,-0.744a0.393,0.393 0 0 0 0.157,-0.155l0.743,-1.36a0.395,0.395 0 0 1 0.692,0l0.744,1.36c0.037,0.066 0.092,0.12 0.157,0.156" fill="#FCD05C" id="svg_23"/>
   <g id="svg_24">
    <mask transform="translate(0,-20) translate(0,-3) translate(0,0.0000152587890625) translate(0,-3.0000152587890625) translate(0,-36.99998474121094) translate(0,-37) translate(0,17) translate(0,6) translate(0,214) translate(0,3.000001907348633) translate(0,3) translate(0,106) translate(0,-0.00000762939453125) translate(0,-0.12644195556640625) translate(1.5384646654129028,0) translate(1.5384646654129028,0) translate(1.5384646654129028,0) translate(1.5384646654129028,0) translate(0,1.5384646654129028) translate(0,-1.5384646654129028) translate(0,-1.5384646654129028) translate(6,0) translate(-0.000001430511474609375,0) translate(-8.999999046325684,0) translate(-2.9999961853027344,0) translate(-23.000003814697266,0) translate(-17.000003814697266,0) translate(-45.99999237060547,0) translate(66,0) translate(-0.000003814697265625,0) translate(9.000001907348633,0) translate(2.7730140686035156,0) translate(-1.5384646654129028,0) translate(1.5384646654129028,0) translate(1.5384646654129028,0) translate(1.5384646654129028,0) translate(1.5384646654129028,0) translate(1.5384646654129028,0) translate(1.5384646654129028,0) translate(1.5384646654129028,0) translate(1.5384646654129028,0) translate(1.5384646654129028,0) translate(1.5384646654129028,0) translate(1.5384646654129028,0) translate(1.5384646654129028,0) translate(1.5384646654129028,0) translate(1.5384646654129028,0) translate(1.5384646654129028,0) translate(1.5384646654129028,0) translate(1.5384646654129028,0) " id="b">
     <use xlink:href="#a" id="svg_25" xmlns:xlink="http://www.w3.org/1999/xlink"/>
    </mask>
    <path d="m21.209309,249.125103l1.36,0.743a0.394,0.394 0 0 1 0,0.692l-1.36,0.743a0.4,0.4 0 0 0 -0.157,0.156l-0.743,1.36a0.394,0.394 0 0 1 -0.692,0l-0.744,-1.36a0.397,0.397 0 0 0 -0.155,-0.156l-1.36,-0.743a0.395,0.395 0 0 1 0,-0.692l1.36,-0.744a0.39,0.39 0 0 0 0.156,-0.157l0.745,-1.36a0.394,0.394 0 0 1 0.692,0l0.743,1.36c0.036,0.066 0.09,0.12 0.157,0.156" fill="#7B63AB" mask="url(#b)" id="svg_26"/>
   </g>
   <path d="m1401.520309,730.453103l2.755,1.507a0.394,0.394 0 0 1 0,0.69l-2.755,1.507a0.393,0.393 0 0 0 -0.157,0.156l-1.505,2.755a0.393,0.393 0 0 1 -0.692,0l-1.506,-2.755a0.387,0.387 0 0 0 -0.158,-0.156l-2.755,-1.507a0.393,0.393 0 0 1 0,-0.69l2.755,-1.507a0.39,0.39 0 0 0 0.157,-0.157l1.506,-2.755a0.393,0.393 0 0 1 0.69,0l1.508,2.756c0.038,0.067 0.092,0.122 0.16,0.158" fill="#FCD05C" id="svg_27"/>
   <path d="m1290.419309,585.981103l1.3,0.71c0.26,0.144 0.26,0.52 0,0.66l-1.3,0.712a0.38,0.38 0 0 0 -0.15,0.15l-0.71,1.298a0.377,0.377 0 0 1 -0.66,0l-0.71,-1.3a0.386,0.386 0 0 0 -0.152,-0.148l-1.3,-0.712a0.377,0.377 0 0 1 0,-0.66l1.3,-0.71a0.39,0.39 0 0 0 0.15,-0.15l0.71,-1.3a0.376,0.376 0 0 1 0.662,0l0.71,1.3a0.384,0.384 0 0 0 0.15,0.15" fill="#D15D64" id="svg_28"/>
   <path d="m1510.599309,654.055103l1.36,0.745a0.395,0.395 0 0 1 0,0.692l-1.36,0.743a0.4,0.4 0 0 0 -0.156,0.157l-0.743,1.36a0.394,0.394 0 0 1 -0.692,0l-0.743,-1.36a0.395,0.395 0 0 0 -0.157,-0.157l-1.36,-0.743a0.395,0.395 0 0 1 0,-0.692l1.36,-0.744a0.393,0.393 0 0 0 0.157,-0.155l0.743,-1.36a0.395,0.395 0 0 1 0.692,0l0.744,1.36c0.037,0.066 0.092,0.12 0.157,0.156" fill="#FCD05C" id="svg_29"/>
   <path stroke="#00A959" stroke-width="1.097" stroke-linecap="round" stroke-linejoin="round" d="m1728.542309,697.859103l1.762,-0.542l1.762,0.542l-0.543,-1.762l0.544,-1.762l-1.762,0.543l-1.763,-0.543l0.542,1.762l-0.542,1.762z" id="svg_30"/>
   <g id="svg_31">
    <mask transform="translate(0,-20) translate(0,-3) translate(0,0.0000152587890625) translate(0,-3.0000152587890625) translate(0,-36.99998474121094) translate(0,-37) translate(0,17) translate(0,6) translate(0,214) translate(0,3.000001907348633) translate(0,3) translate(0,106) translate(0,-0.00000762939453125) translate(0,-0.12644195556640625) translate(1.5384646654129028,0) translate(1.5384646654129028,0) translate(1.5384646654129028,0) translate(1.5384646654129028,0) translate(0,1.5384646654129028) translate(0,-1.5384646654129028) translate(0,-1.5384646654129028) translate(6,0) translate(-0.000001430511474609375,0) translate(-8.999999046325684,0) translate(-2.9999961853027344,0) translate(-23.000003814697266,0) translate(-17.000003814697266,0) translate(-45.99999237060547,0) translate(66,0) translate(-0.000003814697265625,0) translate(9.000001907348633,0) translate(2.7730140686035156,0) translate(-1.5384646654129028,0) translate(1.5384646654129028,0) translate(1.5384646654129028,0) translate(1.5384646654129028,0) translate(1.5384646654129028,0) translate(1.5384646654129028,0) translate(1.5384646654129028,0) translate(1.5384646654129028,0) translate(1.5384646654129028,0) translate(1.5384646654129028,0) translate(1.5384646654129028,0) translate(1.5384646654129028,0) translate(1.5384646654129028,0) translate(1.5384646654129028,0) translate(1.5384646654129028,0) translate(1.5384646654129028,0) translate(1.5384646654129028,0) translate(1.5384646654129028,0) " id="d">
     <use xlink:href="#c" id="svg_32" xmlns:xlink="http://www.w3.org/1999/xlink"/>
    </mask>
    <path d="m1622.190309,873.148103l2.755,1.507a0.394,0.394 0 0 1 0,0.69l-2.755,1.51a0.39,0.39 0 0 0 -0.157,0.157l-1.506,2.753a0.394,0.394 0 0 1 -0.69,0l-1.51,-2.755a0.39,0.39 0 0 0 -0.157,-0.157l-2.755,-1.508a0.394,0.394 0 0 1 0,-0.69l2.757,-1.507a0.39,0.39 0 0 0 0.156,-0.157l1.507,-2.756a0.394,0.394 0 0 1 0.69,0l1.508,2.756a0.39,0.39 0 0 0 0.158,0.157" fill="#D15D64" mask="url(#d)" id="svg_33"/>
   </g>
   <g stroke="#E98333" stroke-width="1.097" stroke-linecap="round" stroke-linejoin="round" id="svg_34">
    <path d="m87.014309,760.335103l-1.472,1.47m5.47,-5.47l-1.47,1.47m-2.457,2.693a1.852,1.852 0 0 0 2.62,-2.62a1.852,1.852 0 0 0 -2.62,2.62z" id="svg_35"/>
   </g>
   <path d="m215.598359,968.223643l1.36,-0.743a0.395,0.395 0 0 0 0,-0.692l-1.36,-0.743a0.4,0.4 0 0 1 -0.156,-0.157l-0.743,-1.36a0.394,0.394 0 0 0 -0.692,0l-0.743,1.36a0.395,0.395 0 0 1 -0.15701,0.157l-1.36,0.743a0.395,0.395 0 0 0 0,0.692l1.36,0.744c0.06601,0.037 0.12001,0.09 0.15701,0.157l0.743,1.36c0.15,0.273 0.542,0.273 0.692,0l0.744,-1.36a0.397,0.397 0 0 1 0.157,-0.156" fill="#FCD05C" id="svg_36"/>
   <path d="m1183.354349,826.894563a2.907,2.907 0 1 0 -5.815,0.003a2.907,2.907 0 0 0 5.815,-0.004m-1091.835,-97.083l2.756,-1.506a0.394,0.394 0 0 0 0,-0.692l-2.756,-1.507a0.4,0.4 0 0 1 -0.156,-0.157l-1.507,-2.755a0.393,0.393 0 0 0 -0.69,0l-1.508,2.755a0.395,0.395 0 0 1 -0.157,0.157l-2.755,1.507a0.394,0.394 0 0 0 0,0.69l2.755,1.508c0.066,0.036 0.12,0.09 0.157,0.157l1.507,2.753c0.15,0.274 0.542,0.274 0.69,0l1.508,-2.755a0.397,0.397 0 0 1 0.156,-0.156" fill="#D15D64" id="svg_37"/>
   <path d="m182.598359,561.223643l1.36,-0.744a0.395,0.395 0 0 0 0,-0.692l-1.36,-0.743a0.4,0.4 0 0 1 -0.156,-0.156l-0.743,-1.36a0.394,0.394 0 0 0 -0.692,0l-0.743,1.36a0.395,0.395 0 0 1 -0.15701,0.158l-1.36,0.742a0.395,0.395 0 0 0 0,0.692l1.36,0.745c0.06601,0.037 0.12001,0.09 0.15701,0.156l0.743,1.36c0.15,0.273 0.542,0.273 0.692,0l0.744,-1.36a0.397,0.397 0 0 1 0.157,-0.156" fill="#FCD05C" id="svg_38"/>
   <path d="m1432.519359,829.145643l2.755,-1.506a0.395,0.395 0 0 0 0,-0.693l-2.755,-1.507a0.39,0.39 0 0 1 -0.156,-0.156l-1.506,-2.755a0.393,0.393 0 0 0 -0.692,0l-1.50601,2.755a0.39,0.39 0 0 1 -0.16,0.156l-2.753,1.507a0.394,0.394 0 0 0 0,0.692l2.75501,1.507a0.39,0.39 0 0 1 0.15799,0.157l1.50601,2.753c0.15,0.274 0.54299,0.274 0.69,0l1.508,-2.755a0.39,0.39 0 0 1 0.157,-0.156" fill="#D15D64" id="svg_39"/>
   <path d="m1378.598359,853.223643l1.35999,-0.743a0.395,0.395 0 0 0 0,-0.692l-1.35999,-0.744a0.397,0.397 0 0 1 -0.156,-0.155l-0.743,-1.36a0.395,0.395 0 0 0 -0.692,0l-0.743,1.36a0.393,0.393 0 0 1 -0.157,0.156l-1.36,0.745a0.395,0.395 0 0 0 0,0.692l1.36,0.743c0.066,0.036 0.12,0.09 0.157,0.157l0.743,1.36c0.15,0.273 0.542,0.273 0.692,0l0.744,-1.36a0.4,0.4 0 0 1 0.15699,-0.157" fill="#7B63AB" id="svg_40"/>
   <path stroke="#E98333" stroke-width="1.097" stroke-linecap="round" stroke-linejoin="round" d="m409.764109,655.322823l3.554,0.888l-0.887,-3.554l-2.667,2.666z" id="svg_41"/>
   <path fill="#00A959" d="m538.768309,992.560103l2.018,-1.104l-2.018,-1.102l-1.104,-2.018l-1.104,2.018l-2.018,1.101l2.018,1.105l1.104,2.018l1.104,-2.018z" id="svg_42"/>
   <path d="m154.521359,993.145643l2.754,-1.506a0.394,0.394 0 0 0 0,-0.692l-2.756,-1.507a0.397,0.397 0 0 1 -0.15601,-0.156l-1.507,-2.755a0.393,0.393 0 0 0 -0.69,0l-1.507,2.756a0.402,0.402 0 0 1 -0.16,0.157l-2.752,1.507a0.393,0.393 0 0 0 0,0.69l2.754,1.508c0.066,0.036 0.12,0.09 0.157,0.157l1.508,2.754c0.15001,0.274 0.54,0.274 0.69,0l1.507,-2.755a0.397,0.397 0 0 1 0.15601,-0.158" fill="#E98333" id="svg_43"/>
   <path d="m276.354359,1093.229643a2.907,2.907 0 1 0 -5.815,0.003a2.907,2.907 0 0 0 5.815,-0.004" fill="#D15D64" id="svg_44"/>
   <path d="m27.401359,941.555643l-0.847,1.6a0.44,0.44 0 0 1 -0.18,0.18l-1.6,0.848a0.434,0.434 0 0 0 0,0.768l1.6,0.847c0.076,0.04 0.14,0.104 0.18,0.18l0.847,1.6c0.163,0.31 0.605,0.31 0.76999,0l0.84501,-1.6a0.44,0.44 0 0 1 0.17999,-0.18l1.6,-0.847a0.434,0.434 0 0 0 0,-0.768l-1.6,-0.847a0.436,0.436 0 0 1 -0.17999,-0.18l-0.846,-1.6a0.435,0.435 0 0 0 -0.77,0l0.001,-0.001z" stroke="#7B63AB" stroke-width="1.097" stroke-linecap="round" stroke-linejoin="round" id="svg_45"/>
   <path d="m1667.519359,878.145643l2.755,-1.506a0.395,0.395 0 0 0 0,-0.693l-2.755,-1.507a0.39,0.39 0 0 1 -0.156,-0.156l-1.506,-2.755a0.393,0.393 0 0 0 -0.692,0l-1.50601,2.755a0.39,0.39 0 0 1 -0.16,0.156l-2.753,1.507a0.394,0.394 0 0 0 0,0.692l2.75501,1.507a0.39,0.39 0 0 1 0.15799,0.157l1.50601,2.753c0.15,0.274 0.54299,0.274 0.69,0l1.508,-2.755a0.39,0.39 0 0 1 0.157,-0.156" fill="#D15D64" id="svg_46"/>
   <path d="m1613.598359,923.223643l1.35999,-0.743a0.395,0.395 0 0 0 0,-0.692l-1.35999,-0.744a0.397,0.397 0 0 1 -0.156,-0.155l-0.743,-1.36a0.395,0.395 0 0 0 -0.692,0l-0.743,1.36a0.393,0.393 0 0 1 -0.157,0.156l-1.36,0.745a0.395,0.395 0 0 0 0,0.692l1.36,0.743c0.066,0.036 0.12,0.09 0.157,0.157l0.743,1.36c0.15,0.273 0.542,0.273 0.692,0l0.744,-1.36a0.4,0.4 0 0 1 0.15699,-0.157" fill="#7B63AB" id="svg_47"/>
   <path d="m1588.418349,1117.050643l1.3,-0.71a0.377,0.377 0 0 0 0,-0.66l-1.3,-0.712a0.38,0.38 0 0 1 -0.15,-0.15l-0.71,-1.3a0.377,0.377 0 0 0 -0.66,0l-0.71,1.3a0.386,0.386 0 0 1 -0.152,0.15l-1.3,0.71a0.377,0.377 0 0 0 0,0.662l1.3,0.71a0.39,0.39 0 0 1 0.15,0.15l0.71,1.3a0.376,0.376 0 0 0 0.662,0l0.71,-1.3a0.384,0.384 0 0 1 0.15,-0.15" fill="#D15D64" id="svg_48"/>
   <path d="m1639.598359,1017.223643l1.35999,-0.743a0.395,0.395 0 0 0 0,-0.692l-1.35999,-0.743a0.4,0.4 0 0 1 -0.156,-0.157l-0.743,-1.36a0.394,0.394 0 0 0 -0.692,0l-0.743,1.36a0.395,0.395 0 0 1 -0.157,0.157l-1.36,0.743a0.395,0.395 0 0 0 0,0.692l1.36,0.744c0.066,0.037 0.12,0.09 0.157,0.157l0.743,1.36c0.15,0.273 0.542,0.273 0.692,0l0.744,-1.36a0.397,0.397 0 0 1 0.15699,-0.156" fill="#FCD05C" id="svg_49"/>
   <g transform="matrix(1,0,0,-1,1587,986) " id="svg_50">
    <mask transform="translate(0,20) translate(0,3) translate(0,-0.0000152587890625) translate(0,3.0000152587890625) translate(0,36.99998474121094) translate(0,37) translate(0,-17) translate(0,-6) translate(0,-214) translate(0,-3.000001907348633) translate(0,-3) translate(0,-106) translate(0,0.00000762939453125) translate(0,0.12644195556640625) translate(1.5384646654129028,0) translate(1.5384646654129028,0) translate(1.5384646654129028,0) translate(1.5384646654129028,0) translate(0,-1.5384646654129028) translate(0,1.5384646654129028) translate(0,1.5384646654129028) translate(6,0) translate(-0.000001430511474609375,0) translate(-8.999999046325684,0) translate(-2.9999961853027344,0) translate(-23.000003814697266,0) translate(-17.000003814697266,0) translate(-45.99999237060547,0) translate(66,0) translate(-0.000003814697265625,0) translate(9.000001907348633,0) translate(2.7730140686035156,0) translate(-1.5384646654129028,0) translate(1.5384646654129028,0) translate(1.5384646654129028,0) translate(1.5384646654129028,0) translate(1.5384646654129028,0) translate(1.5384646654129028,0) translate(1.5384646654129028,0) translate(1.5384646654129028,0) translate(1.5384646654129028,0) translate(1.5384646654129028,0) translate(1.5384646654129028,0) translate(1.5384646654129028,0) translate(1.5384646654129028,0) translate(1.5384646654129028,0) translate(1.5384646654129028,0) translate(1.5384646654129028,0) translate(1.5384646654129028,0) translate(1.5384646654129028,0) " id="f">
     <use xlink:href="#e" id="svg_51" xmlns:xlink="http://www.w3.org/1999/xlink"/>
    </mask>
    <path d="m-18.791651,234.466357l1.36,0.743a0.394,0.394 0 0 1 0,0.692l-1.36,0.743a0.4,0.4 0 0 0 -0.15699,0.156l-0.74301,1.36a0.394,0.394 0 0 1 -0.692,0l-0.744,-1.36a0.397,0.397 0 0 0 -0.155,-0.156l-1.36,-0.743a0.395,0.395 0 0 1 0,-0.692l1.36,-0.744a0.39,0.39 0 0 0 0.156,-0.157l0.745,-1.36a0.394,0.394 0 0 1 0.692,0l0.743,1.36c0.036,0.066 0.09,0.12 0.157,0.156" fill="#7B63AB" mask="url(#f)" id="svg_52"/>
   </g>
   <g stroke="#7B63AB" stroke-width="1.097" stroke-linecap="round" stroke-linejoin="round" id="svg_53">
    <path stroke="null" d="m1140.541359,682.323643l2.77999,-2.78m-10.77999,10.78l2.77999,-2.78m2.827,-7.314c0,-0.997 -5.48299,4.486 -4.486,4.486c-0.996,0 4.487,5.484 4.487,4.487c0,0.996 5.483,-4.488 4.48601,-4.488c0.997,0 -4.48601,-5.483 -4.48601,-4.486l-0.001,0.001z" id="svg_54"/>
   </g>
   <path d="m1361.519359,538.145643l2.755,-1.507a0.394,0.394 0 0 0 0,-0.692l-2.755,-1.506a0.393,0.393 0 0 1 -0.157,-0.156l-1.505,-2.755a0.393,0.393 0 0 0 -0.692,0l-1.50601,2.755a0.387,0.387 0 0 1 -0.15799,0.157l-2.75501,1.507a0.393,0.393 0 0 0 0,0.69l2.75501,1.508a0.39,0.39 0 0 1 0.15699,0.157l1.50601,2.754c0.15,0.274 0.54299,0.274 0.69,0l1.508,-2.755a0.395,0.395 0 0 1 0.16,-0.158" fill="#FCD05C" id="svg_55"/>
   <path d="m1250.418349,730.050643l1.3,-0.71a0.377,0.377 0 0 0 0,-0.66l-1.3,-0.712a0.38,0.38 0 0 1 -0.15,-0.15l-0.71,-1.3a0.377,0.377 0 0 0 -0.66,0l-0.71,1.3a0.386,0.386 0 0 1 -0.152,0.15l-1.3,0.71a0.377,0.377 0 0 0 0,0.662l1.3,0.71a0.39,0.39 0 0 1 0.15,0.15l0.71,1.3a0.376,0.376 0 0 0 0.662,0l0.71,-1.3a0.384,0.384 0 0 1 0.15,-0.15" fill="#D15D64" id="svg_56"/>
   <path d="m1470.598359,641.223643l1.35999,-0.744a0.395,0.395 0 0 0 0,-0.692l-1.35999,-0.743a0.4,0.4 0 0 1 -0.156,-0.156l-0.743,-1.36a0.394,0.394 0 0 0 -0.692,0l-0.743,1.36a0.395,0.395 0 0 1 -0.157,0.158l-1.36,0.742a0.395,0.395 0 0 0 0,0.692l1.36,0.745c0.066,0.037 0.12,0.09 0.157,0.156l0.743,1.36c0.15,0.273 0.542,0.273 0.692,0l0.744,-1.36a0.397,0.397 0 0 1 0.15699,-0.156" fill="#FCD05C" id="svg_57"/>
   <path stroke="#00A959" stroke-width="1.097" stroke-linecap="round" stroke-linejoin="round" d="m1688.541359,579.323643l1.76199,0.542l1.762,-0.542l-0.54299,1.762l0.544,1.762l-1.762,-0.543l-1.762,0.544l0.542,-1.762l-0.543,-1.763z" id="svg_58"/>
   <g stroke="#E98333" stroke-width="1.097" stroke-linecap="round" stroke-linejoin="round" id="svg_59">
    <path d="m87.014309,968.335103l-1.472,-1.47m5.47,5.47l-1.47,-1.47m-2.457,-2.693a1.852,1.852 0 0 1 2.62,2.62a1.852,1.852 0 0 1 -2.62,-2.62z" id="svg_60"/>
   </g>
   <g opacity="0.5" id="svg_61">
    <path d="m417.104309,730.927103c0,-4.514 -1.568,-8.66 -4.186,-11.93c-2.117,-2.222 -4.432,-0.835 -5.07,9.53c-0.766,12.432 -7.31,4.13 -12.526,9.985c-5.203,5.844 -17.318,-4.782 -14.19,1.43c3.22,6.01 9.56,10.1 16.857,10.1c10.556,0 19.115,-8.558 19.115,-19.115" fill="#4D595D" id="svg_62"/>
    <path d="m397.988309,711.813103c10.557,0 19.115,8.558 19.115,19.114c0,10.557 -8.557,19.115 -19.114,19.115s-19.114,-8.558 -19.114,-19.115c0,-10.556 8.557,-19.114 19.114,-19.114l-0.001,0z" stroke="#DBE7F0" stroke-width="1.097" stroke-linecap="round" stroke-linejoin="round" id="svg_63"/>
    <path d="m397.988309,711.813103c10.557,0 19.115,8.558 19.115,19.114c0,10.557 -8.557,19.115 -19.114,19.115s-19.114,-8.558 -19.114,-19.115c0,-10.556 8.557,-19.114 19.114,-19.114l-0.001,0z" stroke="#DBE7F0" stroke-width="1.097" stroke-linecap="round" stroke-linejoin="round" id="svg_64"/>
    <path d="m380.382309,723.475103c3.66,1.605 8.12,3.147 11.752,3.147c7.577,0 9.3,-4.65 18.253,-4.822c1.615,-0.03 3.07,-0.05 4.366,-0.06m-24.178,26.811c1.376,-3.52 4.187,-8.467 9.652,-11.252c6.53,-3.326 11.208,-0.57 16.055,-0.814" stroke="#DBE7F0" stroke-width="1.097" stroke-linecap="round" stroke-linejoin="round" id="svg_65"/>
    <path d="m381.898309,741.251103c2.948,-0.404 7.794,-1.682 11.786,-5.674c6.2,-6.2 7.92,-6.37 11.71,-6.37c3.103,0 7.71,3.234 11.64,3.363m-26.765,-19.135c3.98,0.616 8.786,1.863 11.853,4.404c2.395,1.985 6.528,1.848 10.644,0.963m-26.459,-3.005c1.467,0.318 2.818,0.663 3.696,0.947c2.897,0.936 5.453,1.277 4.715,3.333c-0.938,2.61 -5.274,1.137 -8.17,0.2c-0.95,-0.306 -2.138,-0.87 -3.3,-1.518m-4.248,9.971c3.822,0.546 9.144,1.832 9.69,4.78c0.376,2.04 -3.85,3.184 -8.714,3.828m13.074,12.06c3.32,-3.523 11.45,-10.65 21.097,-8.256l0.002,0" stroke="#DBE7F0" stroke-width="1.097" stroke-linecap="round" stroke-linejoin="round" id="svg_66"/>
   </g>
   <g id="svg_83">
    <mask transform="translate(0,-20) translate(0,-3) translate(0,0.0000152587890625) translate(0,-3.0000152587890625) translate(0,-36.99998474121094) translate(0,-37) translate(0,17) translate(0,6) translate(0,214) translate(0,3.000001907348633) translate(0,3) translate(0,106) translate(0,-0.00000762939453125) translate(0,-0.12644195556640625) translate(1.5384646654129028,0) translate(1.5384646654129028,0) translate(1.5384646654129028,0) translate(1.5384646654129028,0) translate(0,1.5384646654129028) translate(0,-1.5384646654129028) translate(0,-1.5384646654129028) translate(6,0) translate(-0.000001430511474609375,0) translate(-8.999999046325684,0) translate(-2.9999961853027344,0) translate(-23.000003814697266,0) translate(-17.000003814697266,0) translate(-45.99999237060547,0) translate(66,0) translate(-0.000003814697265625,0) translate(9.000001907348633,0) translate(2.7730140686035156,0) translate(-1.5384646654129028,0) translate(1.5384646654129028,0) translate(1.5384646654129028,0) translate(1.5384646654129028,0) translate(1.5384646654129028,0) translate(1.5384646654129028,0) translate(1.5384646654129028,0) translate(1.5384646654129028,0) translate(1.5384646654129028,0) translate(1.5384646654129028,0) translate(1.5384646654129028,0) translate(1.5384646654129028,0) translate(1.5384646654129028,0) translate(1.5384646654129028,0) translate(1.5384646654129028,0) translate(1.5384646654129028,0) translate(1.5384646654129028,0) translate(1.5384646654129028,0) " id="svg_81">
     <use xlink:href="#c" id="svg_80" xmlns:xlink="http://www.w3.org/1999/xlink"/>
    </mask>
    <path d="m808.837569,799.813023l2.755,1.507a0.394,0.394 0 0 1 0,0.69l-2.755,1.51a0.39,0.39 0 0 0 -0.157,0.157l-1.506,2.753a0.394,0.394 0 0 1 -0.69,0l-1.51,-2.755a0.39,0.39 0 0 0 -0.157,-0.157l-2.755,-1.508a0.394,0.394 0 0 1 0,-0.69l2.757,-1.507a0.39,0.39 0 0 0 0.156,-0.157l1.507,-2.756a0.394,0.394 0 0 1 0.69,0l1.508,2.756a0.39,0.39 0 0 0 0.158,0.157" fill="#D15D64" mask="url(#d)" id="svg_82"/>
   </g>
   <path d="m619.166619,755.810563l2.755,-1.506a0.395,0.395 0 0 0 0,-0.693l-2.755,-1.507a0.39,0.39 0 0 1 -0.156,-0.156l-1.506,-2.755a0.393,0.393 0 0 0 -0.692,0l-1.506,2.755a0.39,0.39 0 0 1 -0.16,0.156l-2.753,1.507a0.394,0.394 0 0 0 0,0.692l2.755,1.507a0.39,0.39 0 0 1 0.158,0.157l1.506,2.753c0.15,0.274 0.543,0.274 0.69,0l1.508,-2.755a0.39,0.39 0 0 1 0.157,-0.156" fill="#D15D64" id="svg_84"/>
   <path d="m565.245619,853.223643l1.36,-0.743a0.395,0.395 0 0 0 0,-0.692l-1.36,-0.744a0.397,0.397 0 0 1 -0.156,-0.155l-0.743,-1.36a0.395,0.395 0 0 0 -0.692,0l-0.743,1.36a0.393,0.393 0 0 1 -0.157,0.156l-1.36,0.745a0.395,0.395 0 0 0 0,0.692l1.36,0.743c0.066,0.036 0.12,0.09 0.157,0.157l0.743,1.36c0.15,0.273 0.542,0.273 0.692,0l0.744,-1.36a0.4,0.4 0 0 1 0.157,-0.157" fill="#7B63AB" id="svg_85"/>
   <path d="m854.166619,804.810563l2.755,-1.506a0.395,0.395 0 0 0 0,-0.693l-2.755,-1.507a0.39,0.39 0 0 1 -0.156,-0.156l-1.506,-2.755a0.393,0.393 0 0 0 -0.692,0l-1.506,2.755a0.39,0.39 0 0 1 -0.16,0.156l-2.753,1.507a0.394,0.394 0 0 0 0,0.692l2.755,1.507a0.39,0.39 0 0 1 0.158,0.157l1.506,2.753c0.15,0.274 0.543,0.274 0.69,0l1.508,-2.755a0.39,0.39 0 0 1 0.157,-0.156" fill="#D15D64" id="svg_86"/>
   <path d="m800.245619,849.888563l1.36,-0.743a0.395,0.395 0 0 0 0,-0.692l-1.36,-0.744a0.397,0.397 0 0 1 -0.156,-0.155l-0.743,-1.36a0.395,0.395 0 0 0 -0.692,0l-0.743,1.36a0.393,0.393 0 0 1 -0.157,0.156l-1.36,0.745a0.395,0.395 0 0 0 0,0.692l1.36,0.743c0.066,0.036 0.12,0.09 0.157,0.157l0.743,1.36c0.15,0.273 0.542,0.273 0.692,0l0.744,-1.36a0.4,0.4 0 0 1 0.157,-0.157" fill="#7B63AB" id="svg_87"/>
   <path d="m826.245619,943.888563l1.36,-0.743a0.395,0.395 0 0 0 0,-0.692l-1.36,-0.743a0.4,0.4 0 0 1 -0.156,-0.157l-0.743,-1.36a0.394,0.394 0 0 0 -0.692,0l-0.743,1.36a0.395,0.395 0 0 1 -0.157,0.157l-1.36,0.743a0.395,0.395 0 0 0 0,0.692l1.36,0.744c0.066,0.037 0.12,0.09 0.157,0.157l0.743,1.36c0.15,0.273 0.542,0.273 0.692,0l0.744,-1.36a0.397,0.397 0 0 1 0.157,-0.156" fill="#FCD05C" id="svg_88"/>
   <g id="svg_92">
    <mask transform="translate(0,-20) translate(0,-3) translate(0,0.0000152587890625) translate(0,-3.0000152587890625) translate(0,-36.99998474121094) translate(0,-37) translate(0,17) translate(0,6) translate(0,214) translate(0,3.000001907348633) translate(0,3) translate(0,106) translate(0,-0.00000762939453125) translate(0,-0.12644195556640625) translate(1.5384646654129028,0) translate(1.5384646654129028,0) translate(1.5384646654129028,0) translate(1.5384646654129028,0) translate(0,1.5384646654129028) translate(0,-1.5384646654129028) translate(0,-1.5384646654129028) translate(6,0) translate(-0.000001430511474609375,0) translate(-8.999999046325684,0) translate(-2.9999961853027344,0) translate(-23.000003814697266,0) translate(-17.000003814697266,0) translate(-45.99999237060547,0) translate(66,0) translate(-0.000003814697265625,0) translate(9.000001907348633,0) translate(2.7730140686035156,0) translate(-1.5384646654129028,0) translate(1.5384646654129028,0) translate(1.5384646654129028,0) translate(1.5384646654129028,0) translate(1.5384646654129028,0) translate(1.5384646654129028,0) translate(1.5384646654129028,0) translate(1.5384646654129028,0) translate(1.5384646654129028,0) translate(1.5384646654129028,0) translate(1.5384646654129028,0) translate(1.5384646654129028,0) translate(1.5384646654129028,0) translate(1.5384646654129028,0) translate(1.5384646654129028,0) translate(1.5384646654129028,0) translate(1.5384646654129028,0) translate(1.5384646654129028,0) " id="svg_90">
     <use xlink:href="#c" id="svg_89" xmlns:xlink="http://www.w3.org/1999/xlink"/>
    </mask>
    <path d="m944.396369,573.140933l2.755,1.507a0.394,0.394 0 0 1 0,0.69l-2.755,1.51a0.39,0.39 0 0 0 -0.15701,0.157l-1.50599,2.753a0.394,0.394 0 0 1 -0.69001,0l-1.51,-2.755a0.39,0.39 0 0 0 -0.157,-0.157l-2.755,-1.508a0.394,0.394 0 0 1 0,-0.69l2.757,-1.507a0.39,0.39 0 0 0 0.156,-0.157l1.507,-2.756a0.394,0.394 0 0 1 0.69,0l1.508,2.756a0.39,0.39 0 0 0 0.158,0.157" fill="#D15D64" mask="url(#d)" id="svg_91"/>
   </g>
   <path d="m776.948159,522.471653l2.755,-1.506a0.395,0.395 0 0 0 0,-0.693l-2.755,-1.507a0.39,0.39 0 0 1 -0.156,-0.156l-1.506,-2.755a0.393,0.393 0 0 0 -0.692,0l-1.506,2.755a0.39,0.39 0 0 1 -0.16,0.156l-2.753,1.507a0.394,0.394 0 0 0 0,0.692l2.755,1.507a0.39,0.39 0 0 1 0.158,0.157l1.506,2.753c0.15,0.274 0.543,0.274 0.69,0l1.508,-2.755a0.39,0.39 0 0 1 0.157,-0.156" fill="#D15D64" id="svg_93"/>
   <path d="m723.027159,546.549653l1.36,-0.743a0.395,0.395 0 0 0 0,-0.692l-1.36,-0.744a0.397,0.397 0 0 1 -0.156,-0.155l-0.743,-1.36a0.395,0.395 0 0 0 -0.692,0l-0.743,1.36a0.393,0.393 0 0 1 -0.157,0.156l-1.36,0.745a0.395,0.395 0 0 0 0,0.692l1.36,0.743c0.066,0.036 0.12,0.09 0.157,0.157l0.743,1.36c0.15,0.273 0.542,0.273 0.692,0l0.744,-1.36a0.4,0.4 0 0 1 0.157,-0.157" fill="#7B63AB" id="svg_94"/>
   <path d="m989.725409,578.138483l2.755,-1.506a0.395,0.395 0 0 0 0,-0.693l-2.755,-1.507a0.39,0.39 0 0 1 -0.156,-0.156l-1.506,-2.755a0.393,0.393 0 0 0 -0.692,0l-1.506,2.755a0.39,0.39 0 0 1 -0.16,0.156l-2.753,1.507a0.394,0.394 0 0 0 0,0.692l2.755,1.507a0.39,0.39 0 0 1 0.158,0.157l1.506,2.753c0.15,0.274 0.543,0.274 0.69,0l1.508,-2.755a0.39,0.39 0 0 1 0.157,-0.156" fill="#D15D64" id="svg_95"/>
   <path d="m935.804409,623.216483l1.36,-0.743a0.395,0.395 0 0 0 0,-0.692l-1.36,-0.744a0.397,0.397 0 0 1 -0.156,-0.155l-0.743,-1.36a0.395,0.395 0 0 0 -0.692,0l-0.743,1.36a0.393,0.393 0 0 1 -0.157,0.156l-1.36,0.745a0.395,0.395 0 0 0 0,0.692l1.36,0.743c0.066,0.036 0.12,0.09 0.157,0.157l0.743,1.36c0.15,0.273 0.542,0.273 0.692,0l0.744,-1.36a0.4,0.4 0 0 1 0.157,-0.157" fill="#7B63AB" id="svg_96"/>
   <path d="m854.523169,541.679153l2.756,1.507a0.394,0.394 0 0 1 0,0.69l-2.756,1.508a0.4,0.4 0 0 0 -0.156,0.156l-1.507,2.756a0.393,0.393 0 0 1 -0.69,0l-1.508,-2.755a0.395,0.395 0 0 0 -0.157,-0.16l-2.755,-1.505a0.394,0.394 0 0 1 0,-0.69l2.755,-1.508a0.393,0.393 0 0 0 0.157,-0.157l1.507,-2.754a0.393,0.393 0 0 1 0.69,0l1.508,2.754c0.036,0.067 0.09,0.12 0.156,0.157" fill="#D15D64" id="svg_103"/>
   <path d="m568.239929,550.895323l-1.472,1.47m5.47,-5.47l-1.47,1.472m-2.457,2.691a1.852,1.852 0 1 0 2.62,-2.62a1.852,1.852 0 1 0 -2.62,2.62z" stroke="#7B63AB" stroke-width="1.097" stroke-linecap="round" stroke-linejoin="round" id="svg_104"/>
   <path d="m689.747929,483.012323l2.754,1.507a0.394,0.394 0 0 1 0,0.69l-2.755,1.508a0.397,0.397 0 0 0 -0.158,0.156l-1.506,2.756a0.393,0.393 0 0 1 -0.692,0l-1.507,-2.756a0.402,0.402 0 0 0 -0.157,-0.156l-2.755,-1.507a0.393,0.393 0 0 1 0,-0.69l2.755,-1.508a0.402,0.402 0 0 0 0.157,-0.156l1.508,-2.755a0.394,0.394 0 0 1 0.69,0l1.507,2.756c0.037,0.066 0.09,0.12 0.157,0.157" fill="#E98333" id="svg_105"/>
   <path d="m812.627929,645.151323l-0.847,-1.6a0.44,0.44 0 0 0 -0.18,-0.18l-1.6,-0.848a0.434,0.434 0 0 1 0,-0.768l1.6,-0.847a0.442,0.442 0 0 0 0.18,-0.18l0.847,-1.6a0.435,0.435 0 0 1 0.77,0l0.845,1.6a0.44,0.44 0 0 0 0.18,0.18l1.6,0.847c0.31,0.163 0.31,0.605 0,0.768l-1.6,0.847a0.436,0.436 0 0 0 -0.18,0.18l-0.846,1.6a0.435,0.435 0 0 1 -0.77,0l0.001,0.001z" stroke="#7B63AB" stroke-width="1.097" stroke-linecap="round" stroke-linejoin="round" id="svg_106"/>
   <path d="m752.745929,604.012323l2.756,1.507a0.394,0.394 0 0 1 0,0.69l-2.756,1.507a0.4,0.4 0 0 0 -0.156,0.16l-1.507,2.754a0.393,0.393 0 0 1 -0.69,0l-1.508,-2.756a0.395,0.395 0 0 0 -0.157,-0.157l-2.755,-1.505a0.394,0.394 0 0 1 0,-0.69l2.755,-1.508a0.393,0.393 0 0 0 0.157,-0.156l1.507,-2.755a0.393,0.393 0 0 1 0.69,0l1.508,2.755c0.036,0.066 0.09,0.12 0.156,0.156" fill="#D15D64" id="svg_107"/>
   <path d="m458.580929,499.802323a2.907,2.907 0 1 1 -5.815,-0.003a2.907,2.907 0 0 1 5.815,0.003" fill="#D15D64" id="svg_108"/>
   <path d="m1145.575679,652.356813a2.907,2.907 0 1 1 -5.815,-0.003a2.907,2.907 0 0 1 5.815,0.003m-1091.835,65.209l2.756,1.507a0.394,0.394 0 0 1 0,0.692l-2.756,1.507a0.4,0.4 0 0 0 -0.156,0.156l-1.507,2.755a0.393,0.393 0 0 1 -0.69,0l-1.508,-2.755a0.395,0.395 0 0 0 -0.157,-0.156l-2.755,-1.507a0.394,0.394 0 0 1 0,-0.692l2.755,-1.507a0.393,0.393 0 0 0 0.157,-0.155l1.507,-2.755a0.393,0.393 0 0 1 0.69,0l1.508,2.756c0.036,0.067 0.09,0.12 0.156,0.156" fill="#D15D64" id="svg_109"/>
   <path d="m568.177649,591.816713l-0.847,-1.6a0.44,0.44 0 0 0 -0.18,-0.18l-1.6,-0.848a0.434,0.434 0 0 1 0,-0.768l1.6,-0.847a0.442,0.442 0 0 0 0.18,-0.18l0.847,-1.6a0.435,0.435 0 0 1 0.77,0l0.845,1.6a0.44,0.44 0 0 0 0.18,0.18l1.6,0.847c0.31,0.163 0.31,0.605 0,0.768l-1.6,0.847a0.436,0.436 0 0 0 -0.18,0.18l-0.846,1.6a0.435,0.435 0 0 1 -0.77,0l0.001,0.001z" stroke="#7B63AB" stroke-width="1.097" stroke-linecap="round" stroke-linejoin="round" id="svg_110"/>
   <g id="svg_114">
    <mask transform="translate(0,-20) translate(0,-3) translate(0,0.0000152587890625) translate(0,-3.0000152587890625) translate(0,-36.99998474121094) translate(0,-37) translate(0,17) translate(0,6) translate(0,214) translate(0,3.000001907348633) translate(0,3) translate(0,106) translate(0,-0.00000762939453125) translate(0,-0.12644195556640625) translate(1.5384646654129028,0) translate(1.5384646654129028,0) translate(1.5384646654129028,0) translate(1.5384646654129028,0) translate(0,1.5384646654129028) translate(0,-1.5384646654129028) translate(0,-1.5384646654129028) translate(6,0) translate(-0.000001430511474609375,0) translate(-8.999999046325684,0) translate(-2.9999961853027344,0) translate(-23.000003814697266,0) translate(-17.000003814697266,0) translate(-45.99999237060547,0) translate(66,0) translate(-0.000003814697265625,0) translate(9.000001907348633,0) translate(2.7730140686035156,0) translate(-1.5384646654129028,0) translate(1.5384646654129028,0) translate(1.5384646654129028,0) translate(1.5384646654129028,0) translate(1.5384646654129028,0) translate(1.5384646654129028,0) translate(1.5384646654129028,0) translate(1.5384646654129028,0) translate(1.5384646654129028,0) translate(1.5384646654129028,0) translate(1.5384646654129028,0) translate(1.5384646654129028,0) translate(1.5384646654129028,0) translate(1.5384646654129028,0) translate(1.5384646654129028,0) translate(1.5384646654129028,0) translate(1.5384646654129028,0) translate(1.5384646654129028,0) " id="svg_112">
     <use xlink:href="#c" id="svg_111" xmlns:xlink="http://www.w3.org/1999/xlink"/>
    </mask>
    <path d="m844.393979,730.922473l2.755,1.507a0.394,0.394 0 0 1 0,0.69l-2.755,1.51a0.39,0.39 0 0 0 -0.157,0.157l-1.506,2.753a0.394,0.394 0 0 1 -0.69,0l-1.51,-2.755a0.39,0.39 0 0 0 -0.157,-0.157l-2.755,-1.508a0.394,0.394 0 0 1 0,-0.69l2.757,-1.507a0.39,0.39 0 0 0 0.156,-0.157l1.507,-2.756a0.394,0.394 0 0 1 0.69,0l1.508,2.756a0.39,0.39 0 0 0 0.158,0.157" fill="#D15D64" mask="url(#d)" id="svg_113"/>
   </g>
   <path d="m676.945779,680.253193l2.755,-1.506a0.395,0.395 0 0 0 0,-0.693l-2.755,-1.507a0.39,0.39 0 0 1 -0.156,-0.156l-1.506,-2.755a0.393,0.393 0 0 0 -0.692,0l-1.506,2.755a0.39,0.39 0 0 1 -0.16,0.156l-2.753,1.507a0.394,0.394 0 0 0 0,0.692l2.755,1.507a0.39,0.39 0 0 1 0.158,0.157l1.506,2.753c0.15,0.274 0.543,0.274 0.69,0l1.508,-2.755a0.39,0.39 0 0 1 0.157,-0.156" fill="#D15D64" id="svg_115"/>
   <path d="m600.802019,710.998023l1.36,-0.743a0.395,0.395 0 0 0 0,-0.692l-1.36,-0.744a0.397,0.397 0 0 1 -0.156,-0.155l-0.743,-1.36a0.395,0.395 0 0 0 -0.692,0l-0.743,1.36a0.393,0.393 0 0 1 -0.157,0.156l-1.36,0.745a0.395,0.395 0 0 0 0,0.692l1.36,0.743c0.066,0.036 0.12,0.09 0.157,0.157l0.743,1.36c0.15,0.273 0.542,0.273 0.692,0l0.744,-1.36a0.4,0.4 0 0 1 0.157,-0.157" fill="#7B63AB" id="svg_116"/>
   <path d="m835.802019,780.998023l1.36,-0.743a0.395,0.395 0 0 0 0,-0.692l-1.36,-0.744a0.397,0.397 0 0 1 -0.156,-0.155l-0.743,-1.36a0.395,0.395 0 0 0 -0.692,0l-0.743,1.36a0.393,0.393 0 0 1 -0.157,0.156l-1.36,0.745a0.395,0.395 0 0 0 0,0.692l1.36,0.743c0.066,0.036 0.12,0.09 0.157,0.157l0.743,1.36c0.15,0.273 0.542,0.273 0.692,0l0.744,-1.36a0.4,0.4 0 0 1 0.157,-0.157" fill="#7B63AB" id="svg_117"/>
   <path d="m776.743539,692.793863l2.756,1.507a0.394,0.394 0 0 1 0,0.69l-2.756,1.508a0.4,0.4 0 0 0 -0.156,0.156l-1.507,2.756a0.393,0.393 0 0 1 -0.69,0l-1.508,-2.755a0.395,0.395 0 0 0 -0.157,-0.16l-2.755,-1.505a0.394,0.394 0 0 1 0,-0.69l2.755,-1.508a0.393,0.393 0 0 0 0.157,-0.157l1.507,-2.754a0.393,0.393 0 0 1 0.69,0l1.508,2.754c0.036,0.067 0.09,0.12 0.156,0.157" fill="#D15D64" id="svg_118"/>
   <path d="m589.745539,640.793863l2.754,1.507a0.394,0.394 0 0 1 0,0.69l-2.755,1.508a0.397,0.397 0 0 0 -0.158,0.156l-1.506,2.756a0.393,0.393 0 0 1 -0.692,0l-1.507,-2.756a0.402,0.402 0 0 0 -0.157,-0.156l-2.755,-1.507a0.393,0.393 0 0 1 0,-0.69l2.755,-1.508a0.402,0.402 0 0 0 0.157,-0.156l1.508,-2.755a0.394,0.394 0 0 1 0.69,0l1.507,2.756c0.037,0.066 0.09,0.12 0.157,0.157" fill="#E98333" id="svg_119"/>
   <path d="m690.402779,809.599693l-0.847,-1.6a0.44,0.44 0 0 0 -0.17999,-0.18l-1.60001,-0.848a0.434,0.434 0 0 1 0,-0.768l1.60001,-0.847a0.442,0.442 0 0 0 0.17999,-0.18l0.847,-1.6a0.435,0.435 0 0 1 0.77,0l0.845,1.6a0.44,0.44 0 0 0 0.18,0.18l1.6,0.847c0.31,0.163 0.31,0.605 0,0.768l-1.6,0.847a0.436,0.436 0 0 0 -0.18,0.18l-0.846,1.6a0.435,0.435 0 0 1 -0.77,0l0.001,0.001z" stroke="#7B63AB" stroke-width="1.097" stroke-linecap="round" stroke-linejoin="round" id="svg_120"/>
   <path d="m630.520789,768.460693l2.75599,1.507a0.394,0.394 0 0 1 0,0.69l-2.75599,1.507a0.4,0.4 0 0 0 -0.156,0.16l-1.507,2.754a0.393,0.393 0 0 1 -0.69,0l-1.508,-2.756a0.395,0.395 0 0 0 -0.15701,-0.157l-2.755,-1.505a0.394,0.394 0 0 1 0,-0.69l2.755,-1.508a0.393,0.393 0 0 0 0.15701,-0.156l1.50699,-2.755a0.393,0.393 0 0 1 0.69001,0l1.508,2.755c0.03599,0.066 0.09,0.12 0.156,0.156" fill="#D15D64" id="svg_121"/>
   <path d="m1245.578059,494.575273a2.907,2.907 0 1 1 -5.815,-0.003a2.907,2.907 0 0 1 5.815,0.003m-1091.835,65.209l2.756,1.507a0.394,0.394 0 0 1 0,0.692l-2.756,1.507a0.4,0.4 0 0 0 -0.156,0.156l-1.507,2.755a0.393,0.393 0 0 1 -0.69,0l-1.508,-2.755a0.395,0.395 0 0 0 -0.157,-0.156l-2.755,-1.507a0.394,0.394 0 0 1 0,-0.692l2.755,-1.507a0.393,0.393 0 0 0 0.157,-0.155l1.507,-2.755a0.393,0.393 0 0 1 0.69,0l1.508,2.756c0.036,0.067 0.09,0.12 0.156,0.156" fill="#D15D64" id="svg_122"/>
   <path d="m668.180039,434.035173l-0.847,-1.6a0.44,0.44 0 0 0 -0.18,-0.18l-1.6,-0.848a0.434,0.434 0 0 1 0,-0.768l1.6,-0.847a0.442,0.442 0 0 0 0.18,-0.18l0.847,-1.6a0.435,0.435 0 0 1 0.77,0l0.845,1.6a0.44,0.44 0 0 0 0.18,0.18l1.6,0.847c0.31,0.163 0.31,0.605 0,0.768l-1.6,0.847a0.436,0.436 0 0 0 -0.18,0.18l-0.846,1.6a0.435,0.435 0 0 1 -0.77,0l0.001,0.001z" stroke="#7B63AB" stroke-width="1.097" stroke-linecap="round" stroke-linejoin="round" id="svg_123"/>
   <g id="svg_127">
    <mask transform="translate(0,-20) translate(0,-3) translate(0,0.0000152587890625) translate(0,-3.0000152587890625) translate(0,-36.99998474121094) translate(0,-37) translate(0,17) translate(0,6) translate(0,214) translate(0,3.000001907348633) translate(0,3) translate(0,106) translate(0,-0.00000762939453125) translate(0,-0.12644195556640625) translate(1.5384646654129028,0) translate(1.5384646654129028,0) translate(1.5384646654129028,0) translate(1.5384646654129028,0) translate(0,1.5384646654129028) translate(0,-1.5384646654129028) translate(0,-1.5384646654129028) translate(6,0) translate(-0.000001430511474609375,0) translate(-8.999999046325684,0) translate(-2.9999961853027344,0) translate(-23.000003814697266,0) translate(-17.000003814697266,0) translate(-45.99999237060547,0) translate(66,0) translate(-0.000003814697265625,0) translate(9.000001907348633,0) translate(2.7730140686035156,0) translate(-1.5384646654129028,0) translate(1.5384646654129028,0) translate(1.5384646654129028,0) translate(1.5384646654129028,0) translate(1.5384646654129028,0) translate(1.5384646654129028,0) translate(1.5384646654129028,0) translate(1.5384646654129028,0) translate(1.5384646654129028,0) translate(1.5384646654129028,0) translate(1.5384646654129028,0) translate(1.5384646654129028,0) translate(1.5384646654129028,0) translate(1.5384646654129028,0) translate(1.5384646654129028,0) translate(1.5384646654129028,0) translate(1.5384646654129028,0) translate(1.5384646654129028,0) " id="svg_125">
     <use xlink:href="#c" id="svg_124" xmlns:xlink="http://www.w3.org/1999/xlink"/>
    </mask>
    <path d="m944.396369,573.140933l2.755,1.507a0.394,0.394 0 0 1 0,0.69l-2.755,1.51a0.39,0.39 0 0 0 -0.15701,0.157l-1.50599,2.753a0.394,0.394 0 0 1 -0.69001,0l-1.51,-2.755a0.39,0.39 0 0 0 -0.157,-0.157l-2.755,-1.508a0.394,0.394 0 0 1 0,-0.69l2.757,-1.507a0.39,0.39 0 0 0 0.156,-0.157l1.507,-2.756a0.394,0.394 0 0 1 0.69,0l1.508,2.756a0.39,0.39 0 0 0 0.158,0.157" fill="#D15D64" mask="url(#d)" id="svg_126"/>
   </g>
   <path d="m776.948159,522.471653l2.755,-1.506a0.395,0.395 0 0 0 0,-0.693l-2.755,-1.507a0.39,0.39 0 0 1 -0.156,-0.156l-1.506,-2.755a0.393,0.393 0 0 0 -0.692,0l-1.506,2.755a0.39,0.39 0 0 1 -0.16,0.156l-2.753,1.507a0.394,0.394 0 0 0 0,0.692l2.755,1.507a0.39,0.39 0 0 1 0.158,0.157l1.506,2.753c0.15,0.274 0.543,0.274 0.69,0l1.508,-2.755a0.39,0.39 0 0 1 0.157,-0.156" fill="#D15D64" id="svg_128"/>
   <path d="m723.027159,546.549653l1.36,-0.743a0.395,0.395 0 0 0 0,-0.692l-1.36,-0.744a0.397,0.397 0 0 1 -0.156,-0.155l-0.743,-1.36a0.395,0.395 0 0 0 -0.692,0l-0.743,1.36a0.393,0.393 0 0 1 -0.157,0.156l-1.36,0.745a0.395,0.395 0 0 0 0,0.692l1.36,0.743c0.066,0.036 0.12,0.09 0.157,0.157l0.743,1.36c0.15,0.273 0.542,0.273 0.692,0l0.744,-1.36a0.4,0.4 0 0 1 0.157,-0.157" fill="#7B63AB" id="svg_129"/>
   <path d="m935.804409,623.216483l1.36,-0.743a0.395,0.395 0 0 0 0,-0.692l-1.36,-0.744a0.397,0.397 0 0 1 -0.156,-0.155l-0.743,-1.36a0.395,0.395 0 0 0 -0.692,0l-0.743,1.36a0.393,0.393 0 0 1 -0.157,0.156l-1.36,0.745a0.395,0.395 0 0 0 0,0.692l1.36,0.743c0.066,0.036 0.12,0.09 0.157,0.157l0.743,1.36c0.15,0.273 0.542,0.273 0.692,0l0.744,-1.36a0.4,0.4 0 0 1 0.157,-0.157" fill="#7B63AB" id="svg_130"/>
   <path d="m854.523169,541.679153l2.756,1.507a0.394,0.394 0 0 1 0,0.69l-2.756,1.508a0.4,0.4 0 0 0 -0.156,0.156l-1.507,2.756a0.393,0.393 0 0 1 -0.69,0l-1.508,-2.755a0.395,0.395 0 0 0 -0.157,-0.16l-2.755,-1.505a0.394,0.394 0 0 1 0,-0.69l2.755,-1.508a0.393,0.393 0 0 0 0.157,-0.157l1.507,-2.754a0.393,0.393 0 0 1 0.69,0l1.508,2.754c0.036,0.067 0.09,0.12 0.156,0.157" fill="#D15D64" id="svg_131"/>
   <path d="m689.747929,483.012323l2.754,1.507a0.394,0.394 0 0 1 0,0.69l-2.755,1.508a0.397,0.397 0 0 0 -0.158,0.156l-1.506,2.756a0.393,0.393 0 0 1 -0.692,0l-1.507,-2.756a0.402,0.402 0 0 0 -0.157,-0.156l-2.755,-1.507a0.393,0.393 0 0 1 0,-0.69l2.755,-1.508a0.402,0.402 0 0 0 0.157,-0.156l1.508,-2.755a0.394,0.394 0 0 1 0.69,0l1.507,2.756c0.037,0.066 0.09,0.12 0.157,0.157" fill="#E98333" id="svg_132"/>
   <path d="m812.627929,645.151323l-0.847,-1.6a0.44,0.44 0 0 0 -0.18,-0.18l-1.6,-0.848a0.434,0.434 0 0 1 0,-0.768l1.6,-0.847a0.442,0.442 0 0 0 0.18,-0.18l0.847,-1.6a0.435,0.435 0 0 1 0.77,0l0.845,1.6a0.44,0.44 0 0 0 0.18,0.18l1.6,0.847c0.31,0.163 0.31,0.605 0,0.768l-1.6,0.847a0.436,0.436 0 0 0 -0.18,0.18l-0.846,1.6a0.435,0.435 0 0 1 -0.77,0l0.001,0.001z" stroke="#7B63AB" stroke-width="1.097" stroke-linecap="round" stroke-linejoin="round" id="svg_133"/>
   <path d="m752.745929,604.012323l2.756,1.507a0.394,0.394 0 0 1 0,0.69l-2.756,1.507a0.4,0.4 0 0 0 -0.156,0.16l-1.507,2.754a0.393,0.393 0 0 1 -0.69,0l-1.508,-2.756a0.395,0.395 0 0 0 -0.157,-0.157l-2.755,-1.505a0.394,0.394 0 0 1 0,-0.69l2.755,-1.508a0.393,0.393 0 0 0 0.157,-0.156l1.507,-2.755a0.393,0.393 0 0 1 0.69,0l1.508,2.755c0.036,0.066 0.09,0.12 0.156,0.156" fill="#D15D64" id="svg_134"/>
   <path d="m732.298039,323.896173l2.756,1.507a0.394,0.394 0 0 1 0,0.69l-2.756,1.508a0.4,0.4 0 0 0 -0.156,0.156l-1.507,2.756a0.393,0.393 0 0 1 -0.69,0l-1.508,-2.755a0.395,0.395 0 0 0 -0.157,-0.16l-2.755,-1.505a0.394,0.394 0 0 1 0,-0.69l2.755,-1.508a0.393,0.393 0 0 0 0.157,-0.157l1.507,-2.754a0.393,0.393 0 0 1 0.69,0l1.508,2.754c0.036,0.067 0.09,0.12 0.156,0.157" fill="#D15D64" id="svg_152"/>
   <path d="m423.792039,339.779173l-1.472,1.47m5.47,-5.47l-1.47,1.472m-2.457,2.691a1.852,1.852 0 1 0 2.62,-2.62a1.852,1.852 0 1 0 -2.62,2.62z" stroke="#7B63AB" stroke-width="1.097" stroke-linecap="round" stroke-linejoin="round" id="svg_153"/>
   <path d="m1245.578059,494.575273a2.907,2.907 0 1 1 -5.815,-0.003a2.907,2.907 0 0 1 5.815,0.003m-1091.835,65.209l2.756,1.507a0.394,0.394 0 0 1 0,0.692l-2.756,1.507a0.4,0.4 0 0 0 -0.156,0.156l-1.507,2.755a0.393,0.393 0 0 1 -0.69,0l-1.508,-2.755a0.395,0.395 0 0 0 -0.157,-0.156l-2.755,-1.507a0.394,0.394 0 0 1 0,-0.692l2.755,-1.507a0.393,0.393 0 0 0 0.157,-0.155l1.507,-2.755a0.393,0.393 0 0 1 0.69,0l1.508,2.756c0.036,0.067 0.09,0.12 0.156,0.156" fill="#D15D64" id="svg_154"/>
   <path stroke="#E98333" stroke-width="1.097" stroke-linecap="round" stroke-linejoin="round" d="m449.765059,626.556273l3.554,-0.888l-0.887,3.554l-2.667,-2.666z" id="svg_155"/>
   <path d="m668.180039,434.035173l-0.847,-1.6a0.44,0.44 0 0 0 -0.18,-0.18l-1.6,-0.848a0.434,0.434 0 0 1 0,-0.768l1.6,-0.847a0.442,0.442 0 0 0 0.18,-0.18l0.847,-1.6a0.435,0.435 0 0 1 0.77,0l0.845,1.6a0.44,0.44 0 0 0 0.18,0.18l1.6,0.847c0.31,0.163 0.31,0.605 0,0.768l-1.6,0.847a0.436,0.436 0 0 0 -0.18,0.18l-0.846,1.6a0.435,0.435 0 0 1 -0.77,0l0.001,0.001z" stroke="#7B63AB" stroke-width="1.097" stroke-linecap="round" stroke-linejoin="round" id="svg_156"/>
   <path d="m608.298039,392.896173l2.756,1.507a0.394,0.394 0 0 1 0,0.69l-2.756,1.507a0.4,0.4 0 0 0 -0.156,0.16l-1.507,2.754a0.393,0.393 0 0 1 -0.69,0l-1.508,-2.756a0.395,0.395 0 0 0 -0.157,-0.157l-2.755,-1.505a0.394,0.394 0 0 1 0,-0.69l2.755,-1.508a0.393,0.393 0 0 0 0.157,-0.156l1.507,-2.755a0.393,0.393 0 0 1 0.69,0l1.508,2.755c0.036,0.066 0.09,0.12 0.156,0.156" fill="#D15D64" id="svg_157"/>
   <path stroke="#E98333" stroke-width="1.097" stroke-linecap="round" stroke-linejoin="round" d="m409.764109,655.322823l3.554,0.888l-0.887,-3.554l-2.667,2.666z" id="svg_158"/>
   <path d="m776.948159,522.471653l2.755,-1.506a0.395,0.395 0 0 0 0,-0.693l-2.755,-1.507a0.39,0.39 0 0 1 -0.156,-0.156l-1.506,-2.755a0.393,0.393 0 0 0 -0.692,0l-1.506,2.755a0.39,0.39 0 0 1 -0.16,0.156l-2.753,1.507a0.394,0.394 0 0 0 0,0.692l2.755,1.507a0.39,0.39 0 0 1 0.158,0.157l1.506,2.753c0.15,0.274 0.543,0.274 0.69,0l1.508,-2.755a0.39,0.39 0 0 1 0.157,-0.156" fill="#D15D64" id="svg_159"/>
   <path d="m723.027159,546.549653l1.36,-0.743a0.395,0.395 0 0 0 0,-0.692l-1.36,-0.744a0.397,0.397 0 0 1 -0.156,-0.155l-0.743,-1.36a0.395,0.395 0 0 0 -0.692,0l-0.743,1.36a0.393,0.393 0 0 1 -0.157,0.156l-1.36,0.745a0.395,0.395 0 0 0 0,0.692l1.36,0.743c0.066,0.036 0.12,0.09 0.157,0.157l0.743,1.36c0.15,0.273 0.542,0.273 0.692,0l0.744,-1.36a0.4,0.4 0 0 1 0.157,-0.157" fill="#7B63AB" id="svg_160"/>
   <path d="m568.239929,550.895323l-1.472,1.47m5.47,-5.47l-1.47,1.472m-2.457,2.691a1.852,1.852 0 1 0 2.62,-2.62a1.852,1.852 0 1 0 -2.62,2.62z" stroke="#7B63AB" stroke-width="1.097" stroke-linecap="round" stroke-linejoin="round" id="svg_161"/>
   <path d="m689.747929,483.012323l2.754,1.507a0.394,0.394 0 0 1 0,0.69l-2.755,1.508a0.397,0.397 0 0 0 -0.158,0.156l-1.506,2.756a0.393,0.393 0 0 1 -0.692,0l-1.507,-2.756a0.402,0.402 0 0 0 -0.157,-0.156l-2.755,-1.507a0.393,0.393 0 0 1 0,-0.69l2.755,-1.508a0.402,0.402 0 0 0 0.157,-0.156l1.508,-2.755a0.394,0.394 0 0 1 0.69,0l1.507,2.756c0.037,0.066 0.09,0.12 0.157,0.157" fill="#E98333" id="svg_162"/>
   <path d="m752.745929,604.012323l2.756,1.507a0.394,0.394 0 0 1 0,0.69l-2.756,1.507a0.4,0.4 0 0 0 -0.156,0.16l-1.507,2.754a0.393,0.393 0 0 1 -0.69,0l-1.508,-2.756a0.395,0.395 0 0 0 -0.157,-0.157l-2.755,-1.505a0.394,0.394 0 0 1 0,-0.69l2.755,-1.508a0.393,0.393 0 0 0 0.157,-0.156l1.507,-2.755a0.393,0.393 0 0 1 0.69,0l1.508,2.755c0.036,0.066 0.09,0.12 0.156,0.156" fill="#D15D64" id="svg_163"/>
   <path d="m458.580929,499.802323a2.907,2.907 0 1 1 -5.815,-0.003a2.907,2.907 0 0 1 5.815,0.003" fill="#D15D64" id="svg_164"/>
   <path d="m1145.575679,652.356813a2.907,2.907 0 1 1 -5.815,-0.003a2.907,2.907 0 0 1 5.815,0.003m-1091.835,65.209l2.756,1.507a0.394,0.394 0 0 1 0,0.692l-2.756,1.507a0.4,0.4 0 0 0 -0.156,0.156l-1.507,2.755a0.393,0.393 0 0 1 -0.69,0l-1.508,-2.755a0.395,0.395 0 0 0 -0.157,-0.156l-2.755,-1.507a0.394,0.394 0 0 1 0,-0.692l2.755,-1.507a0.393,0.393 0 0 0 0.157,-0.155l1.507,-2.755a0.393,0.393 0 0 1 0.69,0l1.508,2.756c0.036,0.067 0.09,0.12 0.156,0.156" fill="#D15D64" id="svg_165"/>
   <path d="m568.177649,591.816713l-0.847,-1.6a0.44,0.44 0 0 0 -0.18,-0.18l-1.6,-0.848a0.434,0.434 0 0 1 0,-0.768l1.6,-0.847a0.442,0.442 0 0 0 0.18,-0.18l0.847,-1.6a0.435,0.435 0 0 1 0.77,0l0.845,1.6a0.44,0.44 0 0 0 0.18,0.18l1.6,0.847c0.31,0.163 0.31,0.605 0,0.768l-1.6,0.847a0.436,0.436 0 0 0 -0.18,0.18l-0.846,1.6a0.435,0.435 0 0 1 -0.77,0l0.001,0.001z" stroke="#7B63AB" stroke-width="1.097" stroke-linecap="round" stroke-linejoin="round" id="svg_166"/>
   <path d="m676.945779,680.253193l2.755,-1.506a0.395,0.395 0 0 0 0,-0.693l-2.755,-1.507a0.39,0.39 0 0 1 -0.156,-0.156l-1.506,-2.755a0.393,0.393 0 0 0 -0.692,0l-1.506,2.755a0.39,0.39 0 0 1 -0.16,0.156l-2.753,1.507a0.394,0.394 0 0 0 0,0.692l2.755,1.507a0.39,0.39 0 0 1 0.158,0.157l1.506,2.753c0.15,0.274 0.543,0.274 0.69,0l1.508,-2.755a0.39,0.39 0 0 1 0.157,-0.156" fill="#D15D64" id="svg_167"/>
   <path d="m589.745539,640.793863l2.754,1.507a0.394,0.394 0 0 1 0,0.69l-2.755,1.508a0.397,0.397 0 0 0 -0.158,0.156l-1.506,2.756a0.393,0.393 0 0 1 -0.692,0l-1.507,-2.756a0.402,0.402 0 0 0 -0.157,-0.156l-2.755,-1.507a0.393,0.393 0 0 1 0,-0.69l2.755,-1.508a0.402,0.402 0 0 0 0.157,-0.156l1.508,-2.755a0.394,0.394 0 0 1 0.69,0l1.507,2.756c0.037,0.066 0.09,0.12 0.157,0.157" fill="#E98333" id="svg_168"/>
   <path d="m1245.578059,494.575273a2.907,2.907 0 1 1 -5.815,-0.003a2.907,2.907 0 0 1 5.815,0.003m-1091.835,65.209l2.756,1.507a0.394,0.394 0 0 1 0,0.692l-2.756,1.507a0.4,0.4 0 0 0 -0.156,0.156l-1.507,2.755a0.393,0.393 0 0 1 -0.69,0l-1.508,-2.755a0.395,0.395 0 0 0 -0.157,-0.156l-2.755,-1.507a0.394,0.394 0 0 1 0,-0.692l2.755,-1.507a0.393,0.393 0 0 0 0.157,-0.155l1.507,-2.755a0.393,0.393 0 0 1 0.69,0l1.508,2.756c0.036,0.067 0.09,0.12 0.156,0.156" fill="#D15D64" id="svg_169"/>
   <path d="m668.180039,434.035173l-0.847,-1.6a0.44,0.44 0 0 0 -0.18,-0.18l-1.6,-0.848a0.434,0.434 0 0 1 0,-0.768l1.6,-0.847a0.442,0.442 0 0 0 0.18,-0.18l0.847,-1.6a0.435,0.435 0 0 1 0.77,0l0.845,1.6a0.44,0.44 0 0 0 0.18,0.18l1.6,0.847c0.31,0.163 0.31,0.605 0,0.768l-1.6,0.847a0.436,0.436 0 0 0 -0.18,0.18l-0.846,1.6a0.435,0.435 0 0 1 -0.77,0l0.001,0.001z" stroke="#7B63AB" stroke-width="1.097" stroke-linecap="round" stroke-linejoin="round" id="svg_170"/>
   <path d="m776.948159,522.471653l2.755,-1.506a0.395,0.395 0 0 0 0,-0.693l-2.755,-1.507a0.39,0.39 0 0 1 -0.156,-0.156l-1.506,-2.755a0.393,0.393 0 0 0 -0.692,0l-1.506,2.755a0.39,0.39 0 0 1 -0.16,0.156l-2.753,1.507a0.394,0.394 0 0 0 0,0.692l2.755,1.507a0.39,0.39 0 0 1 0.158,0.157l1.506,2.753c0.15,0.274 0.543,0.274 0.69,0l1.508,-2.755a0.39,0.39 0 0 1 0.157,-0.156" fill="#D15D64" id="svg_171"/>
   <path d="m723.027159,546.549653l1.36,-0.743a0.395,0.395 0 0 0 0,-0.692l-1.36,-0.744a0.397,0.397 0 0 1 -0.156,-0.155l-0.743,-1.36a0.395,0.395 0 0 0 -0.692,0l-0.743,1.36a0.393,0.393 0 0 1 -0.157,0.156l-1.36,0.745a0.395,0.395 0 0 0 0,0.692l1.36,0.743c0.066,0.036 0.12,0.09 0.157,0.157l0.743,1.36c0.15,0.273 0.542,0.273 0.692,0l0.744,-1.36a0.4,0.4 0 0 1 0.157,-0.157" fill="#7B63AB" id="svg_172"/>
   <path d="m689.747929,483.012323l2.754,1.507a0.394,0.394 0 0 1 0,0.69l-2.755,1.508a0.397,0.397 0 0 0 -0.158,0.156l-1.506,2.756a0.393,0.393 0 0 1 -0.692,0l-1.507,-2.756a0.402,0.402 0 0 0 -0.157,-0.156l-2.755,-1.507a0.393,0.393 0 0 1 0,-0.69l2.755,-1.508a0.402,0.402 0 0 0 0.157,-0.156l1.508,-2.755a0.394,0.394 0 0 1 0.69,0l1.507,2.756c0.037,0.066 0.09,0.12 0.157,0.157" fill="#E98333" id="svg_173"/>
   <path d="m752.745929,604.012323l2.756,1.507a0.394,0.394 0 0 1 0,0.69l-2.756,1.507a0.4,0.4 0 0 0 -0.156,0.16l-1.507,2.754a0.393,0.393 0 0 1 -0.69,0l-1.508,-2.756a0.395,0.395 0 0 0 -0.157,-0.157l-2.755,-1.505a0.394,0.394 0 0 1 0,-0.69l2.755,-1.508a0.393,0.393 0 0 0 0.157,-0.156l1.507,-2.755a0.393,0.393 0 0 1 0.69,0l1.508,2.755c0.036,0.066 0.09,0.12 0.156,0.156" fill="#D15D64" id="svg_174"/>
   <path d="m1250.088199,530.567773l2.756,1.507a0.394,0.394 0 0 1 0,0.69l-2.756,1.508a0.4,0.4 0 0 0 -0.156,0.156l-1.507,2.756a0.393,0.393 0 0 1 -0.69,0l-1.508,-2.755a0.395,0.395 0 0 0 -0.157,-0.16l-2.755,-1.505a0.394,0.394 0 0 1 0,-0.69l2.755,-1.508a0.393,0.393 0 0 0 0.157,-0.157l1.507,-2.754a0.393,0.393 0 0 1 0.69,0l1.508,2.754c0.036,0.067 0.09,0.12 0.156,0.157" fill="#D15D64" id="svg_175"/>
   <path d="m941.582199,546.450773l-1.472,1.47m5.47,-5.47l-1.47,1.472m-2.457,2.691a1.852,1.852 0 1 0 2.62,-2.62a1.852,1.852 0 1 0 -2.62,2.62z" stroke="#7B63AB" stroke-width="1.097" stroke-linecap="round" stroke-linejoin="round" id="svg_176"/>
   <path d="m1763.368219,701.246873a2.907,2.907 0 1 1 -5.815,-0.003a2.907,2.907 0 0 1 5.815,0.003m-1091.835,65.209l2.756,1.507a0.394,0.394 0 0 1 0,0.692l-2.756,1.507a0.4,0.4 0 0 0 -0.156,0.156l-1.507,2.755a0.393,0.393 0 0 1 -0.69,0l-1.508,-2.755a0.395,0.395 0 0 0 -0.157,-0.156l-2.755,-1.507a0.394,0.394 0 0 1 0,-0.692l2.755,-1.507a0.393,0.393 0 0 0 0.157,-0.155l1.507,-2.755a0.393,0.393 0 0 1 0.69,0l1.508,2.756c0.036,0.067 0.09,0.12 0.156,0.156" fill="#D15D64" id="svg_177"/>
   <path stroke="#E98333" stroke-width="1.097" stroke-linecap="round" stroke-linejoin="round" d="m967.555229,833.227873l3.55399,-0.888l-0.88699,3.554l-2.667,-2.666z" id="svg_178"/>
   <path d="m1185.970199,640.706773l-0.847,-1.6a0.44,0.44 0 0 0 -0.18,-0.18l-1.6,-0.848a0.434,0.434 0 0 1 0,-0.768l1.6,-0.847a0.442,0.442 0 0 0 0.18,-0.18l0.847,-1.6a0.435,0.435 0 0 1 0.77,0l0.845,1.6a0.44,0.44 0 0 0 0.18,0.18l1.6,0.847c0.31,0.163 0.31,0.605 0,0.768l-1.6,0.847a0.436,0.436 0 0 0 -0.18,0.18l-0.846,1.6a0.435,0.435 0 0 1 -0.77,0l0.001,0.001z" stroke="#7B63AB" stroke-width="1.097" stroke-linecap="round" stroke-linejoin="round" id="svg_179"/>
   <path d="m1126.088199,599.567773l2.756,1.507a0.394,0.394 0 0 1 0,0.69l-2.756,1.507a0.4,0.4 0 0 0 -0.156,0.16l-1.507,2.754a0.393,0.393 0 0 1 -0.69,0l-1.508,-2.756a0.395,0.395 0 0 0 -0.157,-0.157l-2.755,-1.505a0.394,0.394 0 0 1 0,-0.69l2.755,-1.508a0.393,0.393 0 0 0 0.157,-0.156l1.507,-2.755a0.393,0.393 0 0 1 0.69,0l1.508,2.755c0.036,0.066 0.09,0.12 0.156,0.156" fill="#D15D64" id="svg_180"/>
   <path stroke="#E98333" stroke-width="1.097" stroke-linecap="round" stroke-linejoin="round" d="m927.554269,861.994423l3.554,0.888l-0.887,-3.554l-2.667,2.666z" id="svg_181"/>
   <path d="m1294.738319,729.143253l2.755,-1.506a0.395,0.395 0 0 0 0,-0.693l-2.755,-1.507a0.39,0.39 0 0 1 -0.156,-0.156l-1.506,-2.755a0.393,0.393 0 0 0 -0.692,0l-1.506,2.755a0.39,0.39 0 0 1 -0.16,0.156l-2.753,1.507a0.394,0.394 0 0 0 0,0.692l2.755,1.507a0.39,0.39 0 0 1 0.158,0.157l1.506,2.753c0.15,0.274 0.543,0.274 0.69,0l1.508,-2.755a0.39,0.39 0 0 1 0.157,-0.156" fill="#D15D64" id="svg_182"/>
   <path d="m1240.817319,753.221253l1.36,-0.743a0.395,0.395 0 0 0 0,-0.692l-1.36,-0.744a0.397,0.397 0 0 1 -0.156,-0.155l-0.743,-1.36a0.395,0.395 0 0 0 -0.692,0l-0.743,1.36a0.393,0.393 0 0 1 -0.157,0.156l-1.36,0.745a0.395,0.395 0 0 0 0,0.692l1.36,0.743c0.066,0.036 0.12,0.09 0.157,0.157l0.743,1.36c0.15,0.273 0.542,0.273 0.692,0l0.744,-1.36a0.4,0.4 0 0 1 0.157,-0.157" fill="#7B63AB" id="svg_183"/>
   <path d="m1086.030089,757.566923l-1.472,1.47m5.47,-5.47l-1.47,1.472m-2.457,2.691a1.852,1.852 0 1 0 2.62,-2.62a1.852,1.852 0 1 0 -2.62,2.62z" stroke="#7B63AB" stroke-width="1.097" stroke-linecap="round" stroke-linejoin="round" id="svg_184"/>
   <path d="m1207.538089,689.683923l2.754,1.507a0.394,0.394 0 0 1 0,0.69l-2.755,1.508a0.397,0.397 0 0 0 -0.158,0.156l-1.506,2.756a0.393,0.393 0 0 1 -0.692,0l-1.507,-2.756a0.402,0.402 0 0 0 -0.157,-0.156l-2.755,-1.507a0.393,0.393 0 0 1 0,-0.69l2.755,-1.508a0.402,0.402 0 0 0 0.157,-0.156l1.508,-2.755a0.394,0.394 0 0 1 0.69,0l1.507,2.756c0.037,0.066 0.09,0.12 0.157,0.157" fill="#E98333" id="svg_185"/>
   <path d="m1270.536089,810.683923l2.756,1.507a0.394,0.394 0 0 1 0,0.69l-2.756,1.507a0.4,0.4 0 0 0 -0.156,0.16l-1.507,2.754a0.393,0.393 0 0 1 -0.69,0l-1.508,-2.756a0.395,0.395 0 0 0 -0.157,-0.157l-2.755,-1.505a0.394,0.394 0 0 1 0,-0.69l2.755,-1.508a0.393,0.393 0 0 0 0.157,-0.156l1.507,-2.755a0.393,0.393 0 0 1 0.69,0l1.508,2.755c0.036,0.066 0.09,0.12 0.156,0.156" fill="#D15D64" id="svg_186"/>
   <path d="m976.371089,706.473923a2.907,2.907 0 1 1 -5.815,-0.003a2.907,2.907 0 0 1 5.815,0.003" fill="#D15D64" id="svg_187"/>
   <path d="m1663.365839,859.028413a2.907,2.907 0 1 1 -5.815,-0.003a2.907,2.907 0 0 1 5.815,0.003m-1091.835,65.209l2.756,1.507a0.394,0.394 0 0 1 0,0.692l-2.756,1.507a0.4,0.4 0 0 0 -0.156,0.156l-1.507,2.755a0.393,0.393 0 0 1 -0.69,0l-1.508,-2.755a0.395,0.395 0 0 0 -0.157,-0.156l-2.755,-1.507a0.394,0.394 0 0 1 0,-0.692l2.755,-1.507a0.393,0.393 0 0 0 0.157,-0.155l1.507,-2.755a0.393,0.393 0 0 1 0.69,0l1.508,2.756c0.036,0.067 0.09,0.12 0.156,0.156" fill="#D15D64" id="svg_188"/>
   <path d="m1085.967809,798.488313l-0.847,-1.6a0.44,0.44 0 0 0 -0.18,-0.18l-1.6,-0.848a0.434,0.434 0 0 1 0,-0.768l1.6,-0.847a0.442,0.442 0 0 0 0.18,-0.18l0.847,-1.6a0.435,0.435 0 0 1 0.77,0l0.845,1.6a0.44,0.44 0 0 0 0.18,0.18l1.6,0.847c0.31,0.163 0.31,0.605 0,0.768l-1.6,0.847a0.436,0.436 0 0 0 -0.18,0.18l-0.846,1.6a0.435,0.435 0 0 1 -0.77,0l0.001,0.001z" stroke="#7B63AB" stroke-width="1.097" stroke-linecap="round" stroke-linejoin="round" id="svg_189"/>
   <path d="m1194.735939,886.924793l2.755,-1.506a0.395,0.395 0 0 0 0,-0.693l-2.755,-1.507a0.39,0.39 0 0 1 -0.156,-0.156l-1.506,-2.755a0.393,0.393 0 0 0 -0.692,0l-1.506,2.755a0.39,0.39 0 0 1 -0.16,0.156l-2.753,1.507a0.394,0.394 0 0 0 0,0.692l2.755,1.507a0.39,0.39 0 0 1 0.158,0.157l1.506,2.753c0.15,0.274 0.543,0.274 0.69,0l1.508,-2.755a0.39,0.39 0 0 1 0.157,-0.156" fill="#D15D64" id="svg_190"/>
   <path d="m1107.535699,847.465463l2.754,1.507a0.394,0.394 0 0 1 0,0.69l-2.755,1.508a0.397,0.397 0 0 0 -0.158,0.156l-1.506,2.756a0.393,0.393 0 0 1 -0.692,0l-1.507,-2.756a0.402,0.402 0 0 0 -0.157,-0.156l-2.755,-1.507a0.393,0.393 0 0 1 0,-0.69l2.755,-1.508a0.402,0.402 0 0 0 0.157,-0.156l1.508,-2.755a0.394,0.394 0 0 1 0.69,0l1.507,2.756c0.037,0.066 0.09,0.12 0.157,0.157" fill="#E98333" id="svg_191"/>
   <path d="m1763.368219,701.246873a2.907,2.907 0 1 1 -5.815,-0.003a2.907,2.907 0 0 1 5.815,0.003m-1091.835,65.209l2.756,1.507a0.394,0.394 0 0 1 0,0.692l-2.756,1.507a0.4,0.4 0 0 0 -0.156,0.156l-1.507,2.755a0.393,0.393 0 0 1 -0.69,0l-1.508,-2.755a0.395,0.395 0 0 0 -0.157,-0.156l-2.755,-1.507a0.394,0.394 0 0 1 0,-0.692l2.755,-1.507a0.393,0.393 0 0 0 0.157,-0.155l1.507,-2.755a0.393,0.393 0 0 1 0.69,0l1.508,2.756c0.036,0.067 0.09,0.12 0.156,0.156" fill="#D15D64" id="svg_192"/>
   <path d="m1185.970199,640.706773l-0.847,-1.6a0.44,0.44 0 0 0 -0.18,-0.18l-1.6,-0.848a0.434,0.434 0 0 1 0,-0.768l1.6,-0.847a0.442,0.442 0 0 0 0.18,-0.18l0.847,-1.6a0.435,0.435 0 0 1 0.77,0l0.845,1.6a0.44,0.44 0 0 0 0.18,0.18l1.6,0.847c0.31,0.163 0.31,0.605 0,0.768l-1.6,0.847a0.436,0.436 0 0 0 -0.18,0.18l-0.846,1.6a0.435,0.435 0 0 1 -0.77,0l0.001,0.001z" stroke="#7B63AB" stroke-width="1.097" stroke-linecap="round" stroke-linejoin="round" id="svg_193"/>
   <path d="m1294.738319,729.143253l2.75501,-1.506a0.395,0.395 0 0 0 0,-0.693l-2.75501,-1.507a0.39,0.39 0 0 1 -0.15599,-0.156l-1.50601,-2.755a0.393,0.393 0 0 0 -0.692,0l-1.506,2.755a0.39,0.39 0 0 1 -0.16,0.156l-2.753,1.507a0.394,0.394 0 0 0 0,0.692l2.755,1.507a0.39,0.39 0 0 1 0.158,0.157l1.506,2.753c0.15001,0.274 0.543,0.274 0.69001,0l1.508,-2.755a0.39,0.39 0 0 1 0.15699,-0.156" fill="#D15D64" id="svg_194"/>
   <path d="m1240.817319,753.221253l1.36,-0.743a0.395,0.395 0 0 0 0,-0.692l-1.36,-0.744a0.397,0.397 0 0 1 -0.156,-0.155l-0.74299,-1.36a0.395,0.395 0 0 0 -0.692,0l-0.743,1.36a0.393,0.393 0 0 1 -0.157,0.156l-1.36,0.745a0.395,0.395 0 0 0 0,0.692l1.36,0.743c0.066,0.036 0.12,0.09 0.157,0.157l0.743,1.36c0.15,0.273 0.54199,0.273 0.692,0l0.74399,-1.36a0.4,0.4 0 0 1 0.157,-0.157" fill="#7B63AB" id="svg_195"/>
   <path d="m1207.538089,689.683923l2.754,1.507a0.394,0.394 0 0 1 0,0.69l-2.755,1.508a0.397,0.397 0 0 0 -0.158,0.156l-1.506,2.756a0.393,0.393 0 0 1 -0.692,0l-1.507,-2.756a0.402,0.402 0 0 0 -0.157,-0.156l-2.755,-1.507a0.393,0.393 0 0 1 0,-0.69l2.755,-1.508a0.402,0.402 0 0 0 0.157,-0.156l1.508,-2.755a0.394,0.394 0 0 1 0.69,0l1.507,2.756c0.037,0.066 0.09,0.12 0.157,0.157" fill="#E98333" id="svg_196"/>
   <path d="m1270.536089,810.683923l2.756,1.507a0.394,0.394 0 0 1 0,0.69l-2.756,1.507a0.4,0.4 0 0 0 -0.156,0.16l-1.507,2.754a0.393,0.393 0 0 1 -0.69,0l-1.508,-2.756a0.395,0.395 0 0 0 -0.157,-0.157l-2.755,-1.505a0.394,0.394 0 0 1 0,-0.69l2.755,-1.508a0.393,0.393 0 0 0 0.157,-0.156l1.507,-2.755a0.393,0.393 0 0 1 0.69,0l1.508,2.755c0.036,0.066 0.09,0.12 0.156,0.156" fill="#D15D64" id="svg_197"/>
   <path d="m1245.578059,316.241853a2.907,2.907 0 1 1 -5.815,-0.003a2.907,2.907 0 0 1 5.815,0.003m-1091.835,65.209l2.756,1.507a0.394,0.394 0 0 1 0,0.692l-2.756,1.507a0.4,0.4 0 0 0 -0.156,0.156l-1.507,2.755a0.393,0.393 0 0 1 -0.69,0l-1.508,-2.755a0.395,0.395 0 0 0 -0.157,-0.156l-2.755,-1.507a0.394,0.394 0 0 1 0,-0.692l2.755,-1.507a0.393,0.393 0 0 0 0.157,-0.155l1.507,-2.755a0.393,0.393 0 0 1 0.69,0l1.508,2.756c0.036,0.067 0.09,0.12 0.156,0.156" fill="#D15D64" id="svg_566"/>
   <path d="m1678.520309,596.117683l2.755,1.508a0.395,0.395 0 0 1 0,0.692l-2.755,1.506a0.39,0.39 0 0 0 -0.156,0.157l-1.506,2.754a0.393,0.393 0 0 1 -0.692,0l-1.506,-2.755a0.39,0.39 0 0 0 -0.16,-0.158l-2.753,-1.506a0.394,0.394 0 0 1 0,-0.692l2.755,-1.508a0.39,0.39 0 0 0 0.158,-0.155l1.506,-2.755a0.393,0.393 0 0 1 0.69,0l1.508,2.755a0.39,0.39 0 0 0 0.157,0.156m-285.102,-426.47l1.3,0.71c0.26,0.144 0.26,0.52 0,0.66l-1.3,0.713a0.38,0.38 0 0 0 -0.15,0.148l-0.71,1.3a0.377,0.377 0 0 1 -0.66,0l-0.71,-1.3a0.386,0.386 0 0 0 -0.152,-0.148l-1.3,-0.712a0.377,0.377 0 0 1 0,-0.66l1.3,-0.71a0.39,0.39 0 0 0 0.15,-0.15l0.71,-1.3a0.376,0.376 0 0 1 0.662,0l0.71,1.3a0.384,0.384 0 0 0 0.15,0.15" fill="#D15D64" id="svg_567"/>
   <path d="m1401.520309,552.119683l2.755,1.507a0.394,0.394 0 0 1 0,0.69l-2.755,1.507a0.393,0.393 0 0 0 -0.157,0.156l-1.505,2.755a0.393,0.393 0 0 1 -0.692,0l-1.506,-2.755a0.387,0.387 0 0 0 -0.158,-0.156l-2.755,-1.507a0.393,0.393 0 0 1 0,-0.69l2.755,-1.507a0.39,0.39 0 0 0 0.157,-0.157l1.506,-2.755a0.393,0.393 0 0 1 0.69,0l1.508,2.756c0.038,0.067 0.092,0.122 0.16,0.158" fill="#FCD05C" id="svg_568"/>
   <path d="m1290.419309,407.647683l1.3,0.71c0.26,0.144 0.26,0.52 0,0.66l-1.3,0.712a0.38,0.38 0 0 0 -0.15,0.15l-0.71,1.298a0.377,0.377 0 0 1 -0.66,0l-0.71,-1.3a0.386,0.386 0 0 0 -0.152,-0.148l-1.3,-0.712a0.377,0.377 0 0 1 0,-0.66l1.3,-0.71a0.39,0.39 0 0 0 0.15,-0.15l0.71,-1.3a0.376,0.376 0 0 1 0.662,0l0.71,1.3a0.384,0.384 0 0 0 0.15,0.15" fill="#D15D64" id="svg_569"/>
   <path d="m1510.599309,475.721683l1.36,0.745a0.395,0.395 0 0 1 0,0.692l-1.36,0.743a0.4,0.4 0 0 0 -0.156,0.157l-0.743,1.36a0.394,0.394 0 0 1 -0.692,0l-0.743,-1.36a0.395,0.395 0 0 0 -0.157,-0.157l-1.36,-0.743a0.395,0.395 0 0 1 0,-0.692l1.36,-0.744a0.393,0.393 0 0 0 0.157,-0.155l0.743,-1.36a0.395,0.395 0 0 1 0.692,0l0.744,1.36c0.037,0.066 0.092,0.12 0.157,0.156" fill="#FCD05C" id="svg_570"/>
   <path d="m1183.354349,648.561143a2.907,2.907 0 1 0 -5.815,0.003a2.907,2.907 0 0 0 5.815,-0.004m-1091.835,-97.083l2.756,-1.506a0.394,0.394 0 0 0 0,-0.692l-2.756,-1.507a0.4,0.4 0 0 1 -0.156,-0.157l-1.507,-2.755a0.393,0.393 0 0 0 -0.69,0l-1.508,2.755a0.395,0.395 0 0 1 -0.157,0.157l-2.755,1.507a0.394,0.394 0 0 0 0,0.69l2.755,1.508c0.066,0.036 0.12,0.09 0.157,0.157l1.507,2.753c0.15,0.274 0.542,0.274 0.69,0l1.508,-2.755a0.397,0.397 0 0 1 0.156,-0.156" fill="#D15D64" id="svg_571"/>
   <path d="m1432.519359,650.812223l2.755,-1.506a0.395,0.395 0 0 0 0,-0.693l-2.755,-1.507a0.39,0.39 0 0 1 -0.156,-0.156l-1.506,-2.755a0.393,0.393 0 0 0 -0.692,0l-1.50601,2.755a0.39,0.39 0 0 1 -0.16,0.156l-2.753,1.507a0.394,0.394 0 0 0 0,0.692l2.75501,1.507a0.39,0.39 0 0 1 0.15799,0.157l1.50601,2.753c0.15,0.274 0.54299,0.274 0.69,0l1.508,-2.755a0.39,0.39 0 0 1 0.157,-0.156" fill="#D15D64" id="svg_572"/>
   <path d="m1378.598359,674.890223l1.35999,-0.743a0.395,0.395 0 0 0 0,-0.692l-1.35999,-0.744a0.397,0.397 0 0 1 -0.156,-0.155l-0.743,-1.36a0.395,0.395 0 0 0 -0.692,0l-0.743,1.36a0.393,0.393 0 0 1 -0.157,0.156l-1.36,0.745a0.395,0.395 0 0 0 0,0.692l1.36,0.743c0.066,0.036 0.12,0.09 0.157,0.157l0.743,1.36c0.15,0.273 0.542,0.273 0.692,0l0.744,-1.36a0.4,0.4 0 0 1 0.15699,-0.157" fill="#7B63AB" id="svg_573"/>
   <g transform="matrix(1,0,0,-1,1587,986) " id="svg_577">
    <mask transform="translate(0,20) translate(0,3) translate(0,-0.0000152587890625) translate(0,3.0000152587890625) translate(0,36.99998474121094) translate(0,37) translate(0,-17) translate(0,-6) translate(0,-214) translate(0,-3.000001907348633) translate(0,-3) translate(0,-106) translate(0,0.00000762939453125) translate(0,0.12644195556640625) translate(1.5384646654129028,0) translate(1.5384646654129028,0) translate(1.5384646654129028,0) translate(1.5384646654129028,0) translate(0,-1.5384646654129028) translate(0,1.5384646654129028) translate(0,1.5384646654129028) translate(6,0) translate(-0.000001430511474609375,0) translate(-8.999999046325684,0) translate(-2.9999961853027344,0) translate(-23.000003814697266,0) translate(-17.000003814697266,0) translate(-45.99999237060547,0) translate(66,0) translate(-0.000003814697265625,0) translate(9.000001907348633,0) translate(2.7730140686035156,0) translate(-1.5384646654129028,0) translate(1.5384646654129028,0) translate(1.5384646654129028,0) translate(1.5384646654129028,0) translate(1.5384646654129028,0) translate(1.5384646654129028,0) translate(1.5384646654129028,0) translate(1.5384646654129028,0) translate(1.5384646654129028,0) translate(1.5384646654129028,0) translate(1.5384646654129028,0) translate(1.5384646654129028,0) translate(1.5384646654129028,0) translate(1.5384646654129028,0) translate(1.5384646654129028,0) translate(1.5384646654129028,0) translate(1.5384646654129028,0) translate(1.5384646654129028,0) " id="svg_575">
     <use xlink:href="#e" id="svg_574" xmlns:xlink="http://www.w3.org/1999/xlink"/>
    </mask>
    <path d="m-18.791651,412.799777l1.36,0.743a0.394,0.394 0 0 1 0,0.692l-1.36,0.743a0.4,0.4 0 0 0 -0.15699,0.156l-0.74301,1.36a0.394,0.394 0 0 1 -0.692,0l-0.744,-1.36a0.397,0.397 0 0 0 -0.155,-0.156l-1.36,-0.743a0.395,0.395 0 0 1 0,-0.692l1.36,-0.744a0.39,0.39 0 0 0 0.156,-0.157l0.745,-1.36a0.394,0.394 0 0 1 0.692,0l0.743,1.36c0.036,0.066 0.09,0.12 0.157,0.156" fill="#7B63AB" mask="url(#f)" id="svg_576"/>
   </g>
   <g stroke="#7B63AB" stroke-width="1.097" stroke-linecap="round" stroke-linejoin="round" id="svg_579" style=" 
    transform: translate(500px, 50px);
    transition: 5000ms;">
    <path stroke="null" d="m1140.541359,503.990223l2.77999,-2.78m-10.77999,10.78l2.77999,-2.78m2.827,-7.314c0,-0.997 -5.48299,4.486 -4.486,4.486c-0.996,0 4.487,5.484 4.487,4.487c0,0.996 5.483,-4.488 4.48601,-4.488c0.997,0 -4.48601,-5.483 -4.48601,-4.486l-0.001,0.001z" id="svg_578"/>
   </g>
   <path d="m1250.418349,551.717223l1.3,-0.71a0.377,0.377 0 0 0 0,-0.66l-1.3,-0.712a0.38,0.38 0 0 1 -0.15,-0.15l-0.71,-1.3a0.377,0.377 0 0 0 -0.66,0l-0.71,1.3a0.386,0.386 0 0 1 -0.152,0.15l-1.3,0.71a0.377,0.377 0 0 0 0,0.662l1.3,0.71a0.39,0.39 0 0 1 0.15,0.15l0.71,1.3a0.376,0.376 0 0 0 0.662,0l0.71,-1.3a0.384,0.384 0 0 1 0.15,-0.15" fill="#D15D64" id="svg_580"/>
   <path d="m1470.598359,462.890223l1.35999,-0.744a0.395,0.395 0 0 0 0,-0.692l-1.35999,-0.743a0.4,0.4 0 0 1 -0.156,-0.156l-0.743,-1.36a0.394,0.394 0 0 0 -0.692,0l-0.743,1.36a0.395,0.395 0 0 1 -0.157,0.158l-1.36,0.742a0.395,0.395 0 0 0 0,0.692l1.36,0.745c0.066,0.037 0.12,0.09 0.157,0.156l0.743,1.36c0.15,0.273 0.542,0.273 0.692,0l0.744,-1.36a0.397,0.397 0 0 1 0.15699,-0.156" fill="#FCD05C" id="svg_581"/>
   <g id="svg_585">
    <mask transform="translate(0,-20) translate(0,-3) translate(0,0.0000152587890625) translate(0,-3.0000152587890625) translate(0,-36.99998474121094) translate(0,-37) translate(0,17) translate(0,6) translate(0,214) translate(0,3.000001907348633) translate(0,3) translate(0,106) translate(0,-0.00000762939453125) translate(0,-0.12644195556640625) translate(1.5384646654129028,0) translate(1.5384646654129028,0) translate(1.5384646654129028,0) translate(1.5384646654129028,0) translate(0,1.5384646654129028) translate(0,-1.5384646654129028) translate(0,-1.5384646654129028) translate(6,0) translate(-0.000001430511474609375,0) translate(-8.999999046325684,0) translate(-2.9999961853027344,0) translate(-23.000003814697266,0) translate(-17.000003814697266,0) translate(-45.99999237060547,0) translate(66,0) translate(-0.000003814697265625,0) translate(9.000001907348633,0) translate(2.7730140686035156,0) translate(-1.5384646654129028,0) translate(1.5384646654129028,0) translate(1.5384646654129028,0) translate(1.5384646654129028,0) translate(1.5384646654129028,0) translate(1.5384646654129028,0) translate(1.5384646654129028,0) translate(1.5384646654129028,0) translate(1.5384646654129028,0) translate(1.5384646654129028,0) translate(1.5384646654129028,0) translate(1.5384646654129028,0) translate(1.5384646654129028,0) translate(1.5384646654129028,0) translate(1.5384646654129028,0) translate(1.5384646654129028,0) translate(1.5384646654129028,0) translate(1.5384646654129028,0) " id="svg_583">
     <use xlink:href="#c" id="svg_582" xmlns:xlink="http://www.w3.org/1999/xlink"/>
    </mask>
    <path d="m808.837569,621.479603l2.755,1.507a0.394,0.394 0 0 1 0,0.69l-2.755,1.51a0.39,0.39 0 0 0 -0.157,0.157l-1.506,2.753a0.394,0.394 0 0 1 -0.69,0l-1.51,-2.755a0.39,0.39 0 0 0 -0.157,-0.157l-2.755,-1.508a0.394,0.394 0 0 1 0,-0.69l2.757,-1.507a0.39,0.39 0 0 0 0.156,-0.157l1.507,-2.756a0.394,0.394 0 0 1 0.69,0l1.508,2.756a0.39,0.39 0 0 0 0.158,0.157" fill="#D15D64" mask="url(#d)" id="svg_584"/>
   </g>
   <path d="m854.166619,626.477143l2.755,-1.506a0.395,0.395 0 0 0 0,-0.693l-2.755,-1.507a0.39,0.39 0 0 1 -0.156,-0.156l-1.506,-2.755a0.393,0.393 0 0 0 -0.692,0l-1.506,2.755a0.39,0.39 0 0 1 -0.16,0.156l-2.753,1.507a0.394,0.394 0 0 0 0,0.692l2.755,1.507a0.39,0.39 0 0 1 0.158,0.157l1.506,2.753c0.15,0.274 0.543,0.274 0.69,0l1.508,-2.755a0.39,0.39 0 0 1 0.157,-0.156" fill="#D15D64" id="svg_586"/>
   <path d="m800.245619,671.555143l1.36,-0.743a0.395,0.395 0 0 0 0,-0.692l-1.36,-0.744a0.397,0.397 0 0 1 -0.156,-0.155l-0.743,-1.36a0.395,0.395 0 0 0 -0.692,0l-0.743,1.36a0.393,0.393 0 0 1 -0.157,0.156l-1.36,0.745a0.395,0.395 0 0 0 0,0.692l1.36,0.743c0.066,0.036 0.12,0.09 0.157,0.157l0.743,1.36c0.15,0.273 0.542,0.273 0.692,0l0.744,-1.36a0.4,0.4 0 0 1 0.157,-0.157" fill="#7B63AB" id="svg_587"/>
   <path d="m826.245619,765.555143l1.36,-0.743a0.395,0.395 0 0 0 0,-0.692l-1.36,-0.743a0.4,0.4 0 0 1 -0.156,-0.157l-0.743,-1.36a0.394,0.394 0 0 0 -0.692,0l-0.743,1.36a0.395,0.395 0 0 1 -0.157,0.157l-1.36,0.743a0.395,0.395 0 0 0 0,0.692l1.36,0.744c0.066,0.037 0.12,0.09 0.157,0.157l0.743,1.36c0.15,0.273 0.542,0.273 0.692,0l0.744,-1.36a0.397,0.397 0 0 1 0.157,-0.156" fill="#FCD05C" id="svg_588"/>
   <g id="svg_592">
    <mask transform="translate(0,-20) translate(0,-3) translate(0,0.0000152587890625) translate(0,-3.0000152587890625) translate(0,-36.99998474121094) translate(0,-37) translate(0,17) translate(0,6) translate(0,214) translate(0,3.000001907348633) translate(0,3) translate(0,106) translate(0,-0.00000762939453125) translate(0,-0.12644195556640625) translate(1.5384646654129028,0) translate(1.5384646654129028,0) translate(1.5384646654129028,0) translate(1.5384646654129028,0) translate(0,1.5384646654129028) translate(0,-1.5384646654129028) translate(0,-1.5384646654129028) translate(6,0) translate(-0.000001430511474609375,0) translate(-8.999999046325684,0) translate(-2.9999961853027344,0) translate(-23.000003814697266,0) translate(-17.000003814697266,0) translate(-45.99999237060547,0) translate(66,0) translate(-0.000003814697265625,0) translate(9.000001907348633,0) translate(2.7730140686035156,0) translate(-1.5384646654129028,0) translate(1.5384646654129028,0) translate(1.5384646654129028,0) translate(1.5384646654129028,0) translate(1.5384646654129028,0) translate(1.5384646654129028,0) translate(1.5384646654129028,0) translate(1.5384646654129028,0) translate(1.5384646654129028,0) translate(1.5384646654129028,0) translate(1.5384646654129028,0) translate(1.5384646654129028,0) translate(1.5384646654129028,0) translate(1.5384646654129028,0) translate(1.5384646654129028,0) translate(1.5384646654129028,0) translate(1.5384646654129028,0) translate(1.5384646654129028,0) " id="svg_590">
     <use xlink:href="#c" id="svg_589" xmlns:xlink="http://www.w3.org/1999/xlink"/>
    </mask>
    <path d="m944.396369,394.807513l2.755,1.507a0.394,0.394 0 0 1 0,0.69l-2.755,1.51a0.39,0.39 0 0 0 -0.15701,0.157l-1.50599,2.753a0.394,0.394 0 0 1 -0.69001,0l-1.51,-2.755a0.39,0.39 0 0 0 -0.157,-0.157l-2.755,-1.508a0.394,0.394 0 0 1 0,-0.69l2.757,-1.507a0.39,0.39 0 0 0 0.156,-0.157l1.507,-2.756a0.394,0.394 0 0 1 0.69,0l1.508,2.756a0.39,0.39 0 0 0 0.158,0.157" fill="#D15D64" mask="url(#d)" id="svg_591"/>
   </g>
   <path d="m989.725409,399.805063l2.755,-1.506a0.395,0.395 0 0 0 0,-0.693l-2.755,-1.507a0.39,0.39 0 0 1 -0.156,-0.156l-1.506,-2.755a0.393,0.393 0 0 0 -0.692,0l-1.506,2.755a0.39,0.39 0 0 1 -0.16,0.156l-2.753,1.507a0.394,0.394 0 0 0 0,0.692l2.755,1.507a0.39,0.39 0 0 1 0.158,0.157l1.506,2.753c0.15,0.274 0.543,0.274 0.69,0l1.508,-2.755a0.39,0.39 0 0 1 0.157,-0.156" fill="#D15D64" id="svg_593"/>
   <path d="m935.804409,444.883063l1.36,-0.743a0.395,0.395 0 0 0 0,-0.692l-1.36,-0.744a0.397,0.397 0 0 1 -0.156,-0.155l-0.743,-1.36a0.395,0.395 0 0 0 -0.692,0l-0.743,1.36a0.393,0.393 0 0 1 -0.157,0.156l-1.36,0.745a0.395,0.395 0 0 0 0,0.692l1.36,0.743c0.066,0.036 0.12,0.09 0.157,0.157l0.743,1.36c0.15,0.273 0.542,0.273 0.692,0l0.744,-1.36a0.4,0.4 0 0 1 0.157,-0.157" fill="#7B63AB" id="svg_594"/>
   <path d="m812.627929,466.817903l-0.847,-1.6a0.44,0.44 0 0 0 -0.18,-0.18l-1.6,-0.848a0.434,0.434 0 0 1 0,-0.768l1.6,-0.847a0.442,0.442 0 0 0 0.18,-0.18l0.847,-1.6a0.435,0.435 0 0 1 0.77,0l0.845,1.6a0.44,0.44 0 0 0 0.18,0.18l1.6,0.847c0.31,0.163 0.31,0.605 0,0.768l-1.6,0.847a0.436,0.436 0 0 0 -0.18,0.18l-0.846,1.6a0.435,0.435 0 0 1 -0.77,0l0.001,0.001z" stroke="#7B63AB" stroke-width="1.097" stroke-linecap="round" stroke-linejoin="round" id="svg_595"/>
   <path d="m1145.575679,474.023393a2.907,2.907 0 1 1 -5.815,-0.003a2.907,2.907 0 0 1 5.815,0.003m-1091.835,65.209l2.756,1.507a0.394,0.394 0 0 1 0,0.692l-2.756,1.507a0.4,0.4 0 0 0 -0.156,0.156l-1.507,2.755a0.393,0.393 0 0 1 -0.69,0l-1.508,-2.755a0.395,0.395 0 0 0 -0.157,-0.156l-2.755,-1.507a0.394,0.394 0 0 1 0,-0.692l2.755,-1.507a0.393,0.393 0 0 0 0.157,-0.155l1.507,-2.755a0.393,0.393 0 0 1 0.69,0l1.508,2.756c0.036,0.067 0.09,0.12 0.156,0.156" fill="#D15D64" id="svg_596"/>
   <g id="svg_600">
    <mask transform="translate(0,-20) translate(0,-3) translate(0,0.0000152587890625) translate(0,-3.0000152587890625) translate(0,-36.99998474121094) translate(0,-37) translate(0,17) translate(0,6) translate(0,214) translate(0,3.000001907348633) translate(0,3) translate(0,106) translate(0,-0.00000762939453125) translate(0,-0.12644195556640625) translate(1.5384646654129028,0) translate(1.5384646654129028,0) translate(1.5384646654129028,0) translate(1.5384646654129028,0) translate(0,1.5384646654129028) translate(0,-1.5384646654129028) translate(0,-1.5384646654129028) translate(6,0) translate(-0.000001430511474609375,0) translate(-8.999999046325684,0) translate(-2.9999961853027344,0) translate(-23.000003814697266,0) translate(-17.000003814697266,0) translate(-45.99999237060547,0) translate(66,0) translate(-0.000003814697265625,0) translate(9.000001907348633,0) translate(2.7730140686035156,0) translate(-1.5384646654129028,0) translate(1.5384646654129028,0) translate(1.5384646654129028,0) translate(1.5384646654129028,0) translate(1.5384646654129028,0) translate(1.5384646654129028,0) translate(1.5384646654129028,0) translate(1.5384646654129028,0) translate(1.5384646654129028,0) translate(1.5384646654129028,0) translate(1.5384646654129028,0) translate(1.5384646654129028,0) translate(1.5384646654129028,0) translate(1.5384646654129028,0) translate(1.5384646654129028,0) translate(1.5384646654129028,0) translate(1.5384646654129028,0) translate(1.5384646654129028,0) " id="svg_598">
     <use xlink:href="#c" id="svg_597" xmlns:xlink="http://www.w3.org/1999/xlink"/>
    </mask>
    <path d="m844.393979,552.589053l2.755,1.507a0.394,0.394 0 0 1 0,0.69l-2.755,1.51a0.39,0.39 0 0 0 -0.157,0.157l-1.506,2.753a0.394,0.394 0 0 1 -0.69,0l-1.51,-2.755a0.39,0.39 0 0 0 -0.157,-0.157l-2.755,-1.508a0.394,0.394 0 0 1 0,-0.69l2.757,-1.507a0.39,0.39 0 0 0 0.156,-0.157l1.507,-2.756a0.394,0.394 0 0 1 0.69,0l1.508,2.756a0.39,0.39 0 0 0 0.158,0.157" fill="#D15D64" mask="url(#d)" id="svg_599"/>
   </g>
   <path d="m835.802019,602.664603l1.36,-0.743a0.395,0.395 0 0 0 0,-0.692l-1.36,-0.744a0.397,0.397 0 0 1 -0.156,-0.155l-0.743,-1.36a0.395,0.395 0 0 0 -0.692,0l-0.743,1.36a0.393,0.393 0 0 1 -0.157,0.156l-1.36,0.745a0.395,0.395 0 0 0 0,0.692l1.36,0.743c0.066,0.036 0.12,0.09 0.157,0.157l0.743,1.36c0.15,0.273 0.542,0.273 0.692,0l0.744,-1.36a0.4,0.4 0 0 1 0.157,-0.157" fill="#7B63AB" id="svg_601"/>
   <path d="m776.743539,514.460443l2.756,1.507a0.394,0.394 0 0 1 0,0.69l-2.756,1.508a0.4,0.4 0 0 0 -0.156,0.156l-1.507,2.756a0.393,0.393 0 0 1 -0.69,0l-1.508,-2.755a0.395,0.395 0 0 0 -0.157,-0.16l-2.755,-1.505a0.394,0.394 0 0 1 0,-0.69l2.755,-1.508a0.393,0.393 0 0 0 0.157,-0.157l1.507,-2.754a0.393,0.393 0 0 1 0.69,0l1.508,2.754c0.036,0.067 0.09,0.12 0.156,0.157" fill="#D15D64" id="svg_602"/>
   <path d="m1245.578059,316.241853a2.907,2.907 0 1 1 -5.815,-0.003a2.907,2.907 0 0 1 5.815,0.003m-1091.835,65.209l2.756,1.507a0.394,0.394 0 0 1 0,0.692l-2.756,1.507a0.4,0.4 0 0 0 -0.156,0.156l-1.507,2.755a0.393,0.393 0 0 1 -0.69,0l-1.508,-2.755a0.395,0.395 0 0 0 -0.157,-0.156l-2.755,-1.507a0.394,0.394 0 0 1 0,-0.692l2.755,-1.507a0.393,0.393 0 0 0 0.157,-0.155l1.507,-2.755a0.393,0.393 0 0 1 0.69,0l1.508,2.756c0.036,0.067 0.09,0.12 0.156,0.156" fill="#D15D64" id="svg_603"/>
   <g id="svg_607">
    <mask transform="translate(0,-20) translate(0,-3) translate(0,0.0000152587890625) translate(0,-3.0000152587890625) translate(0,-36.99998474121094) translate(0,-37) translate(0,17) translate(0,6) translate(0,214) translate(0,3.000001907348633) translate(0,3) translate(0,106) translate(0,-0.00000762939453125) translate(0,-0.12644195556640625) translate(1.5384646654129028,0) translate(1.5384646654129028,0) translate(1.5384646654129028,0) translate(1.5384646654129028,0) translate(0,1.5384646654129028) translate(0,-1.5384646654129028) translate(0,-1.5384646654129028) translate(6,0) translate(-0.000001430511474609375,0) translate(-8.999999046325684,0) translate(-2.9999961853027344,0) translate(-23.000003814697266,0) translate(-17.000003814697266,0) translate(-45.99999237060547,0) translate(66,0) translate(-0.000003814697265625,0) translate(9.000001907348633,0) translate(2.7730140686035156,0) translate(-1.5384646654129028,0) translate(1.5384646654129028,0) translate(1.5384646654129028,0) translate(1.5384646654129028,0) translate(1.5384646654129028,0) translate(1.5384646654129028,0) translate(1.5384646654129028,0) translate(1.5384646654129028,0) translate(1.5384646654129028,0) translate(1.5384646654129028,0) translate(1.5384646654129028,0) translate(1.5384646654129028,0) translate(1.5384646654129028,0) translate(1.5384646654129028,0) translate(1.5384646654129028,0) translate(1.5384646654129028,0) translate(1.5384646654129028,0) translate(1.5384646654129028,0) " id="svg_605">
     <use xlink:href="#c" id="svg_604" xmlns:xlink="http://www.w3.org/1999/xlink"/>
    </mask>
    <path d="m944.396369,394.807513l2.755,1.507a0.394,0.394 0 0 1 0,0.69l-2.755,1.51a0.39,0.39 0 0 0 -0.15701,0.157l-1.50599,2.753a0.394,0.394 0 0 1 -0.69001,0l-1.51,-2.755a0.39,0.39 0 0 0 -0.157,-0.157l-2.755,-1.508a0.394,0.394 0 0 1 0,-0.69l2.757,-1.507a0.39,0.39 0 0 0 0.156,-0.157l1.507,-2.756a0.394,0.394 0 0 1 0.69,0l1.508,2.756a0.39,0.39 0 0 0 0.158,0.157" fill="#D15D64" mask="url(#d)" id="svg_606"/>
   </g>
   <path d="m935.804409,444.883063l1.36,-0.743a0.395,0.395 0 0 0 0,-0.692l-1.36,-0.744a0.397,0.397 0 0 1 -0.156,-0.155l-0.743,-1.36a0.395,0.395 0 0 0 -0.692,0l-0.743,1.36a0.393,0.393 0 0 1 -0.157,0.156l-1.36,0.745a0.395,0.395 0 0 0 0,0.692l1.36,0.743c0.066,0.036 0.12,0.09 0.157,0.157l0.743,1.36c0.15,0.273 0.542,0.273 0.692,0l0.744,-1.36a0.4,0.4 0 0 1 0.157,-0.157" fill="#7B63AB" id="svg_608"/>
   <path d="m812.627929,466.817903l-0.847,-1.6a0.44,0.44 0 0 0 -0.18,-0.18l-1.6,-0.848a0.434,0.434 0 0 1 0,-0.768l1.6,-0.847a0.442,0.442 0 0 0 0.18,-0.18l0.847,-1.6a0.435,0.435 0 0 1 0.77,0l0.845,1.6a0.44,0.44 0 0 0 0.18,0.18l1.6,0.847c0.31,0.163 0.31,0.605 0,0.768l-1.6,0.847a0.436,0.436 0 0 0 -0.18,0.18l-0.846,1.6a0.435,0.435 0 0 1 -0.77,0l0.001,0.001z" stroke="#7B63AB" stroke-width="1.097" stroke-linecap="round" stroke-linejoin="round" id="svg_609"/>
   <path d="m1245.578059,316.241853a2.907,2.907 0 1 1 -5.815,-0.003a2.907,2.907 0 0 1 5.815,0.003m-1091.835,65.209l2.756,1.507a0.394,0.394 0 0 1 0,0.692l-2.756,1.507a0.4,0.4 0 0 0 -0.156,0.156l-1.507,2.755a0.393,0.393 0 0 1 -0.69,0l-1.508,-2.755a0.395,0.395 0 0 0 -0.157,-0.156l-2.755,-1.507a0.394,0.394 0 0 1 0,-0.692l2.755,-1.507a0.393,0.393 0 0 0 0.157,-0.155l1.507,-2.755a0.393,0.393 0 0 1 0.69,0l1.508,2.756c0.036,0.067 0.09,0.12 0.156,0.156" fill="#D15D64" id="svg_610"/>
   <path d="m1145.575679,474.023393a2.907,2.907 0 1 1 -5.815,-0.003a2.907,2.907 0 0 1 5.815,0.003m-1091.835,65.209l2.756,1.507a0.394,0.394 0 0 1 0,0.692l-2.756,1.507a0.4,0.4 0 0 0 -0.156,0.156l-1.507,2.755a0.393,0.393 0 0 1 -0.69,0l-1.508,-2.755a0.395,0.395 0 0 0 -0.157,-0.156l-2.755,-1.507a0.394,0.394 0 0 1 0,-0.692l2.755,-1.507a0.393,0.393 0 0 0 0.157,-0.155l1.507,-2.755a0.393,0.393 0 0 1 0.69,0l1.508,2.756c0.036,0.067 0.09,0.12 0.156,0.156" fill="#D15D64" id="svg_611"/>
   <path d="m1245.578059,316.241853a2.907,2.907 0 1 1 -5.815,-0.003a2.907,2.907 0 0 1 5.815,0.003m-1091.835,65.209l2.756,1.507a0.394,0.394 0 0 1 0,0.692l-2.756,1.507a0.4,0.4 0 0 0 -0.156,0.156l-1.507,2.755a0.393,0.393 0 0 1 -0.69,0l-1.508,-2.755a0.395,0.395 0 0 0 -0.157,-0.156l-2.755,-1.507a0.394,0.394 0 0 1 0,-0.692l2.755,-1.507a0.393,0.393 0 0 0 0.157,-0.155l1.507,-2.755a0.393,0.393 0 0 1 0.69,0l1.508,2.756c0.036,0.067 0.09,0.12 0.156,0.156" fill="#D15D64" id="svg_612"/>
   <path d="m1763.368219,522.913453a2.907,2.907 0 1 1 -5.815,-0.003a2.907,2.907 0 0 1 5.815,0.003m-1091.835,65.209l2.756,1.507a0.394,0.394 0 0 1 0,0.692l-2.756,1.507a0.4,0.4 0 0 0 -0.156,0.156l-1.507,2.755a0.393,0.393 0 0 1 -0.69,0l-1.508,-2.755a0.395,0.395 0 0 0 -0.157,-0.156l-2.755,-1.507a0.394,0.394 0 0 1 0,-0.692l2.755,-1.507a0.393,0.393 0 0 0 0.157,-0.155l1.507,-2.755a0.393,0.393 0 0 1 0.69,0l1.508,2.756c0.036,0.067 0.09,0.12 0.156,0.156" fill="#D15D64" id="svg_613"/>
   <path stroke="#E98333" stroke-width="1.097" stroke-linecap="round" stroke-linejoin="round" d="m967.555229,654.894453l3.55399,-0.888l-0.88699,3.554l-2.667,-2.666z" id="svg_614"/>
   <path d="m1185.970199,462.373353l-0.847,-1.6a0.44,0.44 0 0 0 -0.18,-0.18l-1.6,-0.848a0.434,0.434 0 0 1 0,-0.768l1.6,-0.847a0.442,0.442 0 0 0 0.18,-0.18l0.847,-1.6a0.435,0.435 0 0 1 0.77,0l0.845,1.6a0.44,0.44 0 0 0 0.18,0.18l1.6,0.847c0.31,0.163 0.31,0.605 0,0.768l-1.6,0.847a0.436,0.436 0 0 0 -0.18,0.18l-0.846,1.6a0.435,0.435 0 0 1 -0.77,0l0.001,0.001z" stroke="#7B63AB" stroke-width="1.097" stroke-linecap="round" stroke-linejoin="round" id="svg_615"/>
   <path d="m1126.088199,421.234353l2.756,1.507a0.394,0.394 0 0 1 0,0.69l-2.756,1.507a0.4,0.4 0 0 0 -0.156,0.16l-1.507,2.754a0.393,0.393 0 0 1 -0.69,0l-1.508,-2.756a0.395,0.395 0 0 0 -0.157,-0.157l-2.755,-1.505a0.394,0.394 0 0 1 0,-0.69l2.755,-1.508a0.393,0.393 0 0 0 0.157,-0.156l1.507,-2.755a0.393,0.393 0 0 1 0.69,0l1.508,2.755c0.036,0.066 0.09,0.12 0.156,0.156" fill="#D15D64" id="svg_616"/>
   <path stroke="#E98333" stroke-width="1.097" stroke-linecap="round" stroke-linejoin="round" d="m927.554269,683.661003l3.554,0.888l-0.887,-3.554l-2.667,2.666z" id="svg_617"/>
   <path d="m1294.738319,550.809833l2.755,-1.506a0.395,0.395 0 0 0 0,-0.693l-2.755,-1.507a0.39,0.39 0 0 1 -0.156,-0.156l-1.506,-2.755a0.393,0.393 0 0 0 -0.692,0l-1.506,2.755a0.39,0.39 0 0 1 -0.16,0.156l-2.753,1.507a0.394,0.394 0 0 0 0,0.692l2.755,1.507a0.39,0.39 0 0 1 0.158,0.157l1.506,2.753c0.15,0.274 0.543,0.274 0.69,0l1.508,-2.755a0.39,0.39 0 0 1 0.157,-0.156" fill="#D15D64" id="svg_618"/>
   <path d="m1240.817319,574.887833l1.36,-0.743a0.395,0.395 0 0 0 0,-0.692l-1.36,-0.744a0.397,0.397 0 0 1 -0.156,-0.155l-0.743,-1.36a0.395,0.395 0 0 0 -0.692,0l-0.743,1.36a0.393,0.393 0 0 1 -0.157,0.156l-1.36,0.745a0.395,0.395 0 0 0 0,0.692l1.36,0.743c0.066,0.036 0.12,0.09 0.157,0.157l0.743,1.36c0.15,0.273 0.542,0.273 0.692,0l0.744,-1.36a0.4,0.4 0 0 1 0.157,-0.157" fill="#7B63AB" id="svg_619"/>
   <path d="m1086.030089,579.233503l-1.472,1.47m5.47,-5.47l-1.47,1.472m-2.457,2.691a1.852,1.852 0 1 0 2.62,-2.62a1.852,1.852 0 1 0 -2.62,2.62z" stroke="#7B63AB" stroke-width="1.097" stroke-linecap="round" stroke-linejoin="round" id="svg_620"/>
   <path d="m1207.538089,511.350503l2.754,1.507a0.394,0.394 0 0 1 0,0.69l-2.755,1.508a0.397,0.397 0 0 0 -0.158,0.156l-1.506,2.756a0.393,0.393 0 0 1 -0.692,0l-1.507,-2.756a0.402,0.402 0 0 0 -0.157,-0.156l-2.755,-1.507a0.393,0.393 0 0 1 0,-0.69l2.755,-1.508a0.402,0.402 0 0 0 0.157,-0.156l1.508,-2.755a0.394,0.394 0 0 1 0.69,0l1.507,2.756c0.037,0.066 0.09,0.12 0.157,0.157" fill="#E98333" id="svg_621"/>
   <path d="m1270.536089,632.350503l2.756,1.507a0.394,0.394 0 0 1 0,0.69l-2.756,1.507a0.4,0.4 0 0 0 -0.156,0.16l-1.507,2.754a0.393,0.393 0 0 1 -0.69,0l-1.508,-2.756a0.395,0.395 0 0 0 -0.157,-0.157l-2.755,-1.505a0.394,0.394 0 0 1 0,-0.69l2.755,-1.508a0.393,0.393 0 0 0 0.157,-0.156l1.507,-2.755a0.393,0.393 0 0 1 0.69,0l1.508,2.755c0.036,0.066 0.09,0.12 0.156,0.156" fill="#D15D64" id="svg_622"/>
   <path d="m976.371089,528.140503a2.907,2.907 0 1 1 -5.815,-0.003a2.907,2.907 0 0 1 5.815,0.003" fill="#D15D64" id="svg_623"/>
   <path d="m1663.365839,680.694993a2.907,2.907 0 1 1 -5.815,-0.003a2.907,2.907 0 0 1 5.815,0.003m-1091.835,65.209l2.756,1.507a0.394,0.394 0 0 1 0,0.692l-2.756,1.507a0.4,0.4 0 0 0 -0.156,0.156l-1.507,2.755a0.393,0.393 0 0 1 -0.69,0l-1.508,-2.755a0.395,0.395 0 0 0 -0.157,-0.156l-2.755,-1.507a0.394,0.394 0 0 1 0,-0.692l2.755,-1.507a0.393,0.393 0 0 0 0.157,-0.155l1.507,-2.755a0.393,0.393 0 0 1 0.69,0l1.508,2.756c0.036,0.067 0.09,0.12 0.156,0.156" fill="#D15D64" id="svg_624"/>
   <path d="m1085.967809,620.154893l-0.847,-1.6a0.44,0.44 0 0 0 -0.18,-0.18l-1.6,-0.848a0.434,0.434 0 0 1 0,-0.768l1.6,-0.847a0.442,0.442 0 0 0 0.18,-0.18l0.847,-1.6a0.435,0.435 0 0 1 0.77,0l0.845,1.6a0.44,0.44 0 0 0 0.18,0.18l1.6,0.847c0.31,0.163 0.31,0.605 0,0.768l-1.6,0.847a0.436,0.436 0 0 0 -0.18,0.18l-0.846,1.6a0.435,0.435 0 0 1 -0.77,0l0.001,0.001z" stroke="#7B63AB" stroke-width="1.097" stroke-linecap="round" stroke-linejoin="round" id="svg_625"/>
   <path d="m1194.735939,708.591373l2.755,-1.506a0.395,0.395 0 0 0 0,-0.693l-2.755,-1.507a0.39,0.39 0 0 1 -0.156,-0.156l-1.506,-2.755a0.393,0.393 0 0 0 -0.692,0l-1.506,2.755a0.39,0.39 0 0 1 -0.16,0.156l-2.753,1.507a0.394,0.394 0 0 0 0,0.692l2.755,1.507a0.39,0.39 0 0 1 0.158,0.157l1.506,2.753c0.15,0.274 0.543,0.274 0.69,0l1.508,-2.755a0.39,0.39 0 0 1 0.157,-0.156" fill="#D15D64" id="svg_626"/>
   <path d="m1107.535699,669.132043l2.754,1.507a0.394,0.394 0 0 1 0,0.69l-2.755,1.508a0.397,0.397 0 0 0 -0.158,0.156l-1.506,2.756a0.393,0.393 0 0 1 -0.692,0l-1.507,-2.756a0.402,0.402 0 0 0 -0.157,-0.156l-2.755,-1.507a0.393,0.393 0 0 1 0,-0.69l2.755,-1.508a0.402,0.402 0 0 0 0.157,-0.156l1.508,-2.755a0.394,0.394 0 0 1 0.69,0l1.507,2.756c0.037,0.066 0.09,0.12 0.157,0.157" fill="#E98333" id="svg_627"/>
   <path d="m1763.368219,522.913453a2.907,2.907 0 1 1 -5.815,-0.003a2.907,2.907 0 0 1 5.815,0.003m-1091.835,65.209l2.756,1.507a0.394,0.394 0 0 1 0,0.692l-2.756,1.507a0.4,0.4 0 0 0 -0.156,0.156l-1.507,2.755a0.393,0.393 0 0 1 -0.69,0l-1.508,-2.755a0.395,0.395 0 0 0 -0.157,-0.156l-2.755,-1.507a0.394,0.394 0 0 1 0,-0.692l2.755,-1.507a0.393,0.393 0 0 0 0.157,-0.155l1.507,-2.755a0.393,0.393 0 0 1 0.69,0l1.508,2.756c0.036,0.067 0.09,0.12 0.156,0.156" fill="#D15D64" id="svg_628"/>
   <path d="m1185.970199,462.373353l-0.847,-1.6a0.44,0.44 0 0 0 -0.18,-0.18l-1.6,-0.848a0.434,0.434 0 0 1 0,-0.768l1.6,-0.847a0.442,0.442 0 0 0 0.18,-0.18l0.847,-1.6a0.435,0.435 0 0 1 0.77,0l0.845,1.6a0.44,0.44 0 0 0 0.18,0.18l1.6,0.847c0.31,0.163 0.31,0.605 0,0.768l-1.6,0.847a0.436,0.436 0 0 0 -0.18,0.18l-0.846,1.6a0.435,0.435 0 0 1 -0.77,0l0.001,0.001z" stroke="#7B63AB" stroke-width="1.097" stroke-linecap="round" stroke-linejoin="round" id="svg_629"/>
   <path d="m1294.738319,550.809833l2.75501,-1.506a0.395,0.395 0 0 0 0,-0.693l-2.75501,-1.507a0.39,0.39 0 0 1 -0.15599,-0.156l-1.50601,-2.755a0.393,0.393 0 0 0 -0.692,0l-1.506,2.755a0.39,0.39 0 0 1 -0.16,0.156l-2.753,1.507a0.394,0.394 0 0 0 0,0.692l2.755,1.507a0.39,0.39 0 0 1 0.158,0.157l1.506,2.753c0.15001,0.274 0.543,0.274 0.69001,0l1.508,-2.755a0.39,0.39 0 0 1 0.15699,-0.156" fill="#D15D64" id="svg_630"/>
   <path d="m1240.817319,574.887833l1.36,-0.743a0.395,0.395 0 0 0 0,-0.692l-1.36,-0.744a0.397,0.397 0 0 1 -0.156,-0.155l-0.74299,-1.36a0.395,0.395 0 0 0 -0.692,0l-0.743,1.36a0.393,0.393 0 0 1 -0.157,0.156l-1.36,0.745a0.395,0.395 0 0 0 0,0.692l1.36,0.743c0.066,0.036 0.12,0.09 0.157,0.157l0.743,1.36c0.15,0.273 0.54199,0.273 0.692,0l0.74399,-1.36a0.4,0.4 0 0 1 0.157,-0.157" fill="#7B63AB" id="svg_631"/>
   <path d="m1207.538089,511.350503l2.754,1.507a0.394,0.394 0 0 1 0,0.69l-2.755,1.508a0.397,0.397 0 0 0 -0.158,0.156l-1.506,2.756a0.393,0.393 0 0 1 -0.692,0l-1.507,-2.756a0.402,0.402 0 0 0 -0.157,-0.156l-2.755,-1.507a0.393,0.393 0 0 1 0,-0.69l2.755,-1.508a0.402,0.402 0 0 0 0.157,-0.156l1.508,-2.755a0.394,0.394 0 0 1 0.69,0l1.507,2.756c0.037,0.066 0.09,0.12 0.157,0.157" fill="#E98333" id="svg_632"/>
   <path d="m1270.536089,632.350503l2.756,1.507a0.394,0.394 0 0 1 0,0.69l-2.756,1.507a0.4,0.4 0 0 0 -0.156,0.16l-1.507,2.754a0.393,0.393 0 0 1 -0.69,0l-1.508,-2.756a0.395,0.395 0 0 0 -0.157,-0.157l-2.755,-1.505a0.394,0.394 0 0 1 0,-0.69l2.755,-1.508a0.393,0.393 0 0 0 0.157,-0.156l1.507,-2.755a0.393,0.393 0 0 1 0.69,0l1.508,2.755c0.036,0.066 0.09,0.12 0.156,0.156" fill="#D15D64" id="svg_633"/>
  </g>
 </g>
</svg>