<svg width="1764.0000000000002" height="1154.0000000000002" xmlns="http://www.w3.org/2000/svg" xmlns:xlink="http://www.w3.org/1999/xlink">
 <title>star-bg</title>
 <defs>
  <path d="m6.23,0.067l0,5.623l-5.62,0l0,-5.624l5.62,0l0,0.001z" id="a"/>
  <path d="m0.67,0.697l9.937,0l0,9.938l-9.937,0l0,-9.938z" id="c"/>
  <path d="m6.23,0.067l0,5.623l-5.62,0l0,-5.624l5.62,0l0,0.001z" id="e"/>
 </defs>
 <g>
  <title>background</title>
  <rect fill="none" id="canvas_background" height="1156" width="1766" y="-1" x="-1"/>
 </g>
 <g>
  <title>Layer 1</title>
  <g id="svg_1" fill-rule="evenodd" fill="none">
   <path id="svg_2" fill="#D15D64" d="m715.755725,76.561073l2.756,1.507a0.394,0.394 0 0 1 0,0.69l-2.756,1.508a0.4,0.4 0 0 0 -0.156,0.156l-1.507,2.756a0.393,0.393 0 0 1 -0.69,0l-1.508,-2.755a0.395,0.395 0 0 0 -0.157,-0.16l-2.755,-1.505a0.394,0.394 0 0 1 0,-0.69l2.755,-1.508a0.393,0.393 0 0 0 0.157,-0.157l1.507,-2.754a0.393,0.393 0 0 1 0.69,0l1.508,2.754c0.036,0.067 0.09,0.12 0.156,0.157"/>
   <path id="svg_3" fill="#FCD05C" d="m239.057,166.72l1.36,0.745a0.395,0.395 0 0 1 0,0.692l-1.36,0.743a0.4,0.4 0 0 0 -0.156,0.157l-0.743,1.36a0.394,0.394 0 0 1 -0.692,0l-0.743,-1.36a0.395,0.395 0 0 0 -0.157,-0.157l-1.36,-0.743a0.395,0.395 0 0 1 0,-0.692l1.36,-0.744a0.393,0.393 0 0 0 0.157,-0.155l0.743,-1.36a0.395,0.395 0 0 1 0.692,0l0.744,1.36c0.037,0.066 0.092,0.12 0.157,0.156"/>
   <path id="svg_4" stroke-linejoin="round" stroke-linecap="round" stroke-width="1.097" stroke="#7B63AB" d="m407.249725,92.444073l-1.472,1.47m5.47,-5.47l-1.47,1.472m-2.457,2.691a1.852,1.852 0 1 0 2.62,-2.62a1.852,1.852 0 1 0 -2.62,2.62z"/>
   <path id="svg_5" fill="#D15D64" d="m961.978,138.117l2.756,1.507a0.394,0.394 0 0 1 0,0.69l-2.756,1.507a0.4,0.4 0 0 0 -0.156,0.16l-1.507,2.754a0.393,0.393 0 0 1 -0.69,0l-1.508,-2.756a0.395,0.395 0 0 0 -0.157,-0.157l-2.755,-1.505a0.394,0.394 0 0 1 0,-0.69l2.755,-1.508a0.393,0.393 0 0 0 0.157,-0.156l1.507,-2.755a0.393,0.393 0 0 1 0.69,0l1.508,2.755c0.036,0.066 0.09,0.12 0.156,0.156"/>
   <path id="svg_6" fill="#E98333" d="m1144.978,177.117l2.755,1.507a0.394,0.394 0 0 1 0,0.69l-2.755,1.508a0.397,0.397 0 0 0 -0.156,0.156l-1.506,2.756a0.393,0.393 0 0 1 -0.692,0l-1.506,-2.756a0.402,0.402 0 0 0 -0.16,-0.156l-2.753,-1.507a0.393,0.393 0 0 1 0,-0.69l2.755,-1.508a0.402,0.402 0 0 0 0.158,-0.156l1.506,-2.755a0.394,0.394 0 0 1 0.69,0l1.508,2.756c0.037,0.066 0.09,0.12 0.157,0.157"/>
   <path id="svg_7" fill="#FCD05C" d="m1083.057,100.72l1.36,0.745a0.395,0.395 0 0 1 0,0.692l-1.36,0.743a0.4,0.4 0 0 0 -0.156,0.157l-0.743,1.36a0.394,0.394 0 0 1 -0.692,0l-0.743,-1.36a0.395,0.395 0 0 0 -0.157,-0.157l-1.36,-0.743a0.395,0.395 0 0 1 0,-0.692l1.36,-0.744a0.393,0.393 0 0 0 0.157,-0.155l0.743,-1.36a0.395,0.395 0 0 1 0.692,0l0.744,1.36c0.037,0.066 0.092,0.12 0.157,0.156"/>
   <path id="svg_8" fill="#D15D64" d="m1229.035754,247.240174a2.907,2.907 0 1 1 -5.815,-0.003a2.907,2.907 0 0 1 5.815,0.003m-1091.835,65.209l2.756,1.507a0.394,0.394 0 0 1 0,0.692l-2.756,1.507a0.4,0.4 0 0 0 -0.156,0.156l-1.507,2.755a0.393,0.393 0 0 1 -0.69,0l-1.508,-2.755a0.395,0.395 0 0 0 -0.157,-0.156l-2.755,-1.507a0.394,0.394 0 0 1 0,-0.692l2.755,-1.507a0.393,0.393 0 0 0 0.157,-0.155l1.507,-2.755a0.393,0.393 0 0 1 0.69,0l1.508,2.756c0.036,0.067 0.09,0.12 0.156,0.156"/>
   <path id="svg_9" fill="#FCD05C" d="m206.057,452.72l1.36,0.745a0.395,0.395 0 0 1 0,0.692l-1.36,0.743a0.4,0.4 0 0 0 -0.156,0.157l-0.743,1.36a0.394,0.394 0 0 1 -0.692,0l-0.743,-1.36a0.395,0.395 0 0 0 -0.157,-0.157l-1.36,-0.743a0.395,0.395 0 0 1 0,-0.692l1.36,-0.744a0.393,0.393 0 0 0 0.157,-0.155l0.743,-1.36a0.395,0.395 0 0 1 0.692,0l0.744,1.36c0.037,0.066 0.092,0.12 0.157,0.156"/>
   <path id="svg_10" fill="#D15D64" d="m1661.978,527.116l2.755,1.508a0.395,0.395 0 0 1 0,0.692l-2.755,1.506a0.39,0.39 0 0 0 -0.156,0.157l-1.506,2.754a0.393,0.393 0 0 1 -0.692,0l-1.506,-2.755a0.39,0.39 0 0 0 -0.16,-0.158l-2.753,-1.506a0.394,0.394 0 0 1 0,-0.692l2.755,-1.508a0.39,0.39 0 0 0 0.158,-0.155l1.506,-2.755a0.393,0.393 0 0 1 0.69,0l1.508,2.755a0.39,0.39 0 0 0 0.157,0.156m-285.102,-426.47l1.3,0.71c0.26,0.144 0.26,0.52 0,0.66l-1.3,0.713a0.38,0.38 0 0 0 -0.15,0.148l-0.71,1.3a0.377,0.377 0 0 1 -0.66,0l-0.71,-1.3a0.386,0.386 0 0 0 -0.152,-0.148l-1.3,-0.712a0.377,0.377 0 0 1 0,-0.66l1.3,-0.71a0.39,0.39 0 0 0 0.15,-0.15l0.71,-1.3a0.376,0.376 0 0 1 0.662,0l0.71,1.3a0.384,0.384 0 0 0 0.15,0.15"/>
   <path id="svg_11" fill="#FCD05C" d="m1634.057,382.72l1.36,0.745a0.395,0.395 0 0 1 0,0.692l-1.36,0.743a0.4,0.4 0 0 0 -0.156,0.157l-0.743,1.36a0.394,0.394 0 0 1 -0.692,0l-0.743,-1.36a0.395,0.395 0 0 0 -0.157,-0.157l-1.36,-0.743a0.395,0.395 0 0 1 0,-0.692l1.36,-0.744a0.393,0.393 0 0 0 0.157,-0.155l0.743,-1.36a0.395,0.395 0 0 1 0.692,0l0.744,1.36c0.037,0.066 0.092,0.12 0.157,0.156"/>
   <path id="svg_12" d="m433.222754,379.221174l3.554,-0.888l-0.887,3.554l-2.667,-2.666z" stroke-linejoin="round" stroke-linecap="round" stroke-width="1.097" stroke="#E98333"/>
   <path id="svg_13" d="m522.226,503.018l2.018,1.104l-2.018,1.103l-1.104,2.018l-1.104,-2.018l-2.018,-1.103l2.018,-1.104l1.104,-2.018l1.104,2.018z" fill="#00A959"/>
   <path id="svg_14" fill="#E98333" d="m506.534972,31.227899l2.754,1.507a0.394,0.394 0 0 1 0,0.69l-2.755,1.508a0.397,0.397 0 0 0 -0.158,0.156l-1.506,2.756a0.393,0.393 0 0 1 -0.692,0l-1.507,-2.756a0.402,0.402 0 0 0 -0.157,-0.156l-2.755,-1.507a0.393,0.393 0 0 1 0,-0.69l2.755,-1.508a0.402,0.402 0 0 0 0.157,-0.156l1.508,-2.755a0.394,0.394 0 0 1 0.69,0l1.507,2.756c0.037,0.066 0.09,0.12 0.157,0.157"/>
   <path id="svg_15" stroke-linejoin="round" stroke-linecap="round" stroke-width="1.097" stroke="#7B63AB" d="m651.637725,186.700073l-0.847,-1.6a0.44,0.44 0 0 0 -0.18,-0.18l-1.6,-0.848a0.434,0.434 0 0 1 0,-0.768l1.6,-0.847a0.442,0.442 0 0 0 0.18,-0.18l0.847,-1.6a0.435,0.435 0 0 1 0.77,0l0.845,1.6a0.44,0.44 0 0 0 0.18,0.18l1.6,0.847c0.31,0.163 0.31,0.605 0,0.768l-1.6,0.847a0.436,0.436 0 0 0 -0.18,0.18l-0.846,1.6a0.435,0.435 0 0 1 -0.77,0l0.001,0.001z"/>
   <path id="svg_16" fill="#D15D64" d="m591.755725,145.561073l2.756,1.507a0.394,0.394 0 0 1 0,0.69l-2.756,1.507a0.4,0.4 0 0 0 -0.156,0.16l-1.507,2.754a0.393,0.393 0 0 1 -0.69,0l-1.508,-2.756a0.395,0.395 0 0 0 -0.157,-0.157l-2.755,-1.505a0.394,0.394 0 0 1 0,-0.69l2.755,-1.508a0.393,0.393 0 0 0 0.157,-0.156l1.507,-2.755a0.393,0.393 0 0 1 0.69,0l1.508,2.755c0.036,0.066 0.09,0.12 0.156,0.156"/>
   <path id="svg_17" fill="#E98333" d="m177.98,127.117l2.754,1.507a0.394,0.394 0 0 1 0,0.69l-2.756,1.508a0.397,0.397 0 0 0 -0.156,0.156l-1.507,2.756a0.393,0.393 0 0 1 -0.69,0l-1.507,-2.756a0.402,0.402 0 0 0 -0.16,-0.156l-2.752,-1.507a0.393,0.393 0 0 1 0,-0.69l2.754,-1.508a0.402,0.402 0 0 0 0.157,-0.156l1.508,-2.755a0.394,0.394 0 0 1 0.69,0l1.507,2.756c0.036,0.066 0.09,0.12 0.156,0.157"/>
   <path id="svg_18" fill="#D15D64" d="m275.367972,48.017899a2.907,2.907 0 1 1 -5.815,-0.003a2.907,2.907 0 0 1 5.815,0.003"/>
   <path id="svg_19" stroke-linejoin="round" stroke-linecap="round" stroke-width="1.097" stroke="#7B63AB" d="m50.86,205.256l-0.847,-1.6a0.44,0.44 0 0 0 -0.18,-0.18l-1.6,-0.848a0.434,0.434 0 0 1 0,-0.768l1.6,-0.847a0.442,0.442 0 0 0 0.18,-0.18l0.847,-1.6a0.435,0.435 0 0 1 0.77,0l0.845,1.6a0.44,0.44 0 0 0 0.18,0.18l1.6,0.847c0.31,0.163 0.31,0.605 0,0.768l-1.6,0.847a0.436,0.436 0 0 0 -0.18,0.18l-0.846,1.6a0.435,0.435 0 0 1 -0.77,0l0.001,0.001z"/>
   <path id="svg_20" fill="#D15D64" d="m1690.978,261.116l2.755,1.507a0.395,0.395 0 0 1 0,0.692l-2.755,1.507a0.39,0.39 0 0 0 -0.156,0.156l-1.506,2.755a0.393,0.393 0 0 1 -0.692,0l-1.506,-2.755a0.39,0.39 0 0 0 -0.16,-0.156l-2.753,-1.507a0.394,0.394 0 0 1 0,-0.692l2.755,-1.507a0.39,0.39 0 0 0 0.158,-0.155l1.506,-2.755a0.393,0.393 0 0 1 0.69,0l1.508,2.756a0.39,0.39 0 0 0 0.157,0.156"/>
   <path id="svg_21" fill="#7B63AB" d="m1637.057,223.722l1.36,0.743a0.395,0.395 0 0 1 0,0.692l-1.36,0.744a0.397,0.397 0 0 0 -0.156,0.157l-0.743,1.36a0.395,0.395 0 0 1 -0.692,0l-0.743,-1.36a0.393,0.393 0 0 0 -0.157,-0.156l-1.36,-0.743a0.395,0.395 0 0 1 0,-0.692l1.36,-0.743a0.395,0.395 0 0 0 0.157,-0.157l0.743,-1.36a0.395,0.395 0 0 1 0.692,0l0.744,1.36a0.4,0.4 0 0 0 0.157,0.157"/>
   <path id="svg_22" fill="#D15D64" d="m1611.877,48.645l1.3,0.71c0.26,0.145 0.26,0.52 0,0.662l-1.3,0.71a0.38,0.38 0 0 0 -0.15,0.15l-0.71,1.3a0.377,0.377 0 0 1 -0.66,0l-0.71,-1.3a0.386,0.386 0 0 0 -0.152,-0.15l-1.3,-0.71a0.377,0.377 0 0 1 0,-0.662l1.3,-0.71a0.39,0.39 0 0 0 0.15,-0.15l0.71,-1.298a0.376,0.376 0 0 1 0.662,0l0.71,1.298a0.384,0.384 0 0 0 0.15,0.15"/>
   <path id="svg_23" fill="#FCD05C" d="m1663.057,116.72l1.36,0.745a0.395,0.395 0 0 1 0,0.692l-1.36,0.743a0.4,0.4 0 0 0 -0.156,0.157l-0.743,1.36a0.394,0.394 0 0 1 -0.692,0l-0.743,-1.36a0.395,0.395 0 0 0 -0.157,-0.157l-1.36,-0.743a0.395,0.395 0 0 1 0,-0.692l1.36,-0.744a0.393,0.393 0 0 0 0.157,-0.155l0.743,-1.36a0.395,0.395 0 0 1 0.692,0l0.744,1.36c0.037,0.066 0.092,0.12 0.157,0.156"/>
   <g id="svg_24">
    <mask id="b">
     <use id="svg_25" xlink:href="#a" xmlns:xlink="http://www.w3.org/1999/xlink"/>
    </mask>
    <path id="svg_26" mask="url(#b)" fill="#7B63AB" d="m4.667,1.79l1.36,0.743a0.394,0.394 0 0 1 0,0.692l-1.36,0.743a0.4,0.4 0 0 0 -0.157,0.156l-0.743,1.36a0.394,0.394 0 0 1 -0.692,0l-0.744,-1.36a0.397,0.397 0 0 0 -0.155,-0.156l-1.36,-0.743a0.395,0.395 0 0 1 0,-0.692l1.36,-0.744a0.39,0.39 0 0 0 0.156,-0.157l0.745,-1.36a0.394,0.394 0 0 1 0.692,0l0.743,1.36c0.036,0.066 0.09,0.12 0.157,0.156"/>
   </g>
   <path id="svg_27" fill="#FCD05C" d="m1384.978,483.118l2.755,1.507a0.394,0.394 0 0 1 0,0.69l-2.755,1.507a0.393,0.393 0 0 0 -0.157,0.156l-1.505,2.755a0.393,0.393 0 0 1 -0.692,0l-1.506,-2.755a0.387,0.387 0 0 0 -0.158,-0.156l-2.755,-1.507a0.393,0.393 0 0 1 0,-0.69l2.755,-1.507a0.39,0.39 0 0 0 0.157,-0.157l1.506,-2.755a0.393,0.393 0 0 1 0.69,0l1.508,2.756c0.038,0.067 0.092,0.122 0.16,0.158"/>
   <path id="svg_28" fill="#D15D64" d="m1273.877,338.646l1.3,0.71c0.26,0.144 0.26,0.52 0,0.66l-1.3,0.712a0.38,0.38 0 0 0 -0.15,0.15l-0.71,1.298a0.377,0.377 0 0 1 -0.66,0l-0.71,-1.3a0.386,0.386 0 0 0 -0.152,-0.148l-1.3,-0.712a0.377,0.377 0 0 1 0,-0.66l1.3,-0.71a0.39,0.39 0 0 0 0.15,-0.15l0.71,-1.3a0.376,0.376 0 0 1 0.662,0l0.71,1.3a0.384,0.384 0 0 0 0.15,0.15"/>
   <path id="svg_29" fill="#FCD05C" d="m1494.057,406.72l1.36,0.745a0.395,0.395 0 0 1 0,0.692l-1.36,0.743a0.4,0.4 0 0 0 -0.156,0.157l-0.743,1.36a0.394,0.394 0 0 1 -0.692,0l-0.743,-1.36a0.395,0.395 0 0 0 -0.157,-0.157l-1.36,-0.743a0.395,0.395 0 0 1 0,-0.692l1.36,-0.744a0.393,0.393 0 0 0 0.157,-0.155l0.743,-1.36a0.395,0.395 0 0 1 0.692,0l0.744,1.36c0.037,0.066 0.092,0.12 0.157,0.156"/>
   <path id="svg_30" d="m1712,450.524l1.762,-0.542l1.762,0.542l-0.543,-1.762l0.544,-1.762l-1.762,0.543l-1.763,-0.543l0.542,1.762l-0.542,1.762z" stroke-linejoin="round" stroke-linecap="round" stroke-width="1.097" stroke="#00A959"/>
   <g id="svg_31">
    <mask transform="translate(1598,622) " id="d">
     <use id="svg_32" xlink:href="#c" xmlns:xlink="http://www.w3.org/1999/xlink"/>
    </mask>
    <path id="svg_33" mask="url(#d)" fill="#D15D64" d="m1605.648,625.813l2.755,1.507a0.394,0.394 0 0 1 0,0.69l-2.755,1.51a0.39,0.39 0 0 0 -0.157,0.157l-1.506,2.753a0.394,0.394 0 0 1 -0.69,0l-1.51,-2.755a0.39,0.39 0 0 0 -0.157,-0.157l-2.755,-1.508a0.394,0.394 0 0 1 0,-0.69l2.757,-1.507a0.39,0.39 0 0 0 0.156,-0.157l1.507,-2.756a0.394,0.394 0 0 1 0.69,0l1.508,2.756a0.39,0.39 0 0 0 0.158,0.157"/>
   </g>
   <g id="svg_34" stroke-linejoin="round" stroke-linecap="round" stroke-width="1.097" stroke="#E98333">
    <path id="svg_35" d="m70.472,513l-1.472,1.47m5.47,-5.47l-1.47,1.47m-2.457,2.693a1.852,1.852 0 0 0 2.62,-2.62a1.852,1.852 0 0 0 -2.62,2.62z"/>
   </g>
   <path id="svg_36" fill="#FCD05C" d="m199.056045,720.888544l1.36,-0.743a0.395,0.395 0 0 0 0,-0.692l-1.36,-0.743a0.4,0.4 0 0 1 -0.156,-0.157l-0.743,-1.36a0.394,0.394 0 0 0 -0.692,0l-0.743,1.36a0.395,0.395 0 0 1 -0.157,0.157l-1.36,0.743a0.395,0.395 0 0 0 0,0.692l1.36,0.744c0.066,0.037 0.12,0.09 0.157,0.157l0.743,1.36c0.15,0.273 0.542,0.273 0.692,0l0.744,-1.36a0.397,0.397 0 0 1 0.157,-0.156"/>
   <path id="svg_37" fill="#D15D64" d="m1166.812045,579.559461a2.907,2.907 0 1 0 -5.815,0.003a2.907,2.907 0 0 0 5.815,-0.004m-1091.835,-97.083l2.756,-1.506a0.394,0.394 0 0 0 0,-0.692l-2.756,-1.507a0.4,0.4 0 0 1 -0.156,-0.157l-1.507,-2.755a0.393,0.393 0 0 0 -0.69,0l-1.508,2.755a0.395,0.395 0 0 1 -0.157,0.157l-2.755,1.507a0.394,0.394 0 0 0 0,0.69l2.755,1.508c0.066,0.036 0.12,0.09 0.157,0.157l1.507,2.753c0.15,0.274 0.542,0.274 0.69,0l1.508,-2.755a0.397,0.397 0 0 1 0.156,-0.156"/>
   <path id="svg_38" fill="#FCD05C" d="m166.056045,313.888544l1.36,-0.744a0.395,0.395 0 0 0 0,-0.692l-1.36,-0.743a0.4,0.4 0 0 1 -0.156,-0.156l-0.743,-1.36a0.394,0.394 0 0 0 -0.692,0l-0.743,1.36a0.395,0.395 0 0 1 -0.157,0.158l-1.36,0.742a0.395,0.395 0 0 0 0,0.692l1.36,0.745c0.066,0.037 0.12,0.09 0.157,0.156l0.743,1.36c0.15,0.273 0.542,0.273 0.692,0l0.744,-1.36a0.397,0.397 0 0 1 0.157,-0.156"/>
   <path id="svg_39" fill="#D15D64" d="m1415.977045,581.810544l2.755,-1.506a0.395,0.395 0 0 0 0,-0.693l-2.755,-1.507a0.39,0.39 0 0 1 -0.156,-0.156l-1.506,-2.755a0.393,0.393 0 0 0 -0.692,0l-1.506,2.755a0.39,0.39 0 0 1 -0.16,0.156l-2.753,1.507a0.394,0.394 0 0 0 0,0.692l2.755,1.507a0.39,0.39 0 0 1 0.158,0.157l1.506,2.753c0.15,0.274 0.543,0.274 0.69,0l1.508,-2.755a0.39,0.39 0 0 1 0.157,-0.156"/>
   <path id="svg_40" fill="#7B63AB" d="m1362.056045,605.888544l1.36,-0.743a0.395,0.395 0 0 0 0,-0.692l-1.36,-0.744a0.397,0.397 0 0 1 -0.156,-0.155l-0.743,-1.36a0.395,0.395 0 0 0 -0.692,0l-0.743,1.36a0.393,0.393 0 0 1 -0.157,0.156l-1.36,0.745a0.395,0.395 0 0 0 0,0.692l1.36,0.743c0.066,0.036 0.12,0.09 0.157,0.157l0.743,1.36c0.15,0.273 0.542,0.273 0.692,0l0.744,-1.36a0.4,0.4 0 0 1 0.157,-0.157"/>
   <path id="svg_41" d="m393.221799,407.987719l3.554,0.888l-0.887,-3.554l-2.667,2.666z" stroke-linejoin="round" stroke-linecap="round" stroke-width="1.097" stroke="#E98333"/>
   <path id="svg_42" d="m522.226,745.225l2.018,-1.104l-2.018,-1.102l-1.104,-2.018l-1.104,2.018l-2.018,1.101l2.018,1.105l1.104,2.018l1.104,-2.018z" fill="#00A959"/>
   <path id="svg_43" fill="#E98333" d="m137.979045,745.810544l2.754,-1.506a0.394,0.394 0 0 0 0,-0.692l-2.756,-1.507a0.397,0.397 0 0 1 -0.156,-0.156l-1.507,-2.755a0.393,0.393 0 0 0 -0.69,0l-1.507,2.756a0.402,0.402 0 0 1 -0.16,0.157l-2.752,1.507a0.393,0.393 0 0 0 0,0.69l2.754,1.508c0.066,0.036 0.12,0.09 0.157,0.157l1.508,2.754c0.15,0.274 0.54,0.274 0.69,0l1.507,-2.755a0.397,0.397 0 0 1 0.156,-0.158"/>
   <path id="svg_44" fill="#D15D64" d="m259.812045,845.894544a2.907,2.907 0 1 0 -5.815,0.003a2.907,2.907 0 0 0 5.815,-0.004"/>
   <path id="svg_45" stroke-linejoin="round" stroke-linecap="round" stroke-width="1.097" stroke="#7B63AB" d="m10.859045,694.220544l-0.847,1.6a0.44,0.44 0 0 1 -0.18,0.18l-1.6,0.848a0.434,0.434 0 0 0 0,0.768l1.6,0.847c0.076,0.04 0.14,0.104 0.18,0.18l0.847,1.6c0.163,0.31 0.605,0.31 0.77,0l0.845,-1.6a0.44,0.44 0 0 1 0.18,-0.18l1.6,-0.847a0.434,0.434 0 0 0 0,-0.768l-1.6,-0.847a0.436,0.436 0 0 1 -0.18,-0.18l-0.846,-1.6a0.435,0.435 0 0 0 -0.77,0l0.001,-0.001z"/>
   <path id="svg_46" fill="#D15D64" d="m1650.977045,630.810544l2.755,-1.506a0.395,0.395 0 0 0 0,-0.693l-2.755,-1.507a0.39,0.39 0 0 1 -0.156,-0.156l-1.506,-2.755a0.393,0.393 0 0 0 -0.692,0l-1.506,2.755a0.39,0.39 0 0 1 -0.16,0.156l-2.753,1.507a0.394,0.394 0 0 0 0,0.692l2.755,1.507a0.39,0.39 0 0 1 0.158,0.157l1.506,2.753c0.15,0.274 0.543,0.274 0.69,0l1.508,-2.755a0.39,0.39 0 0 1 0.157,-0.156"/>
   <path id="svg_47" fill="#7B63AB" d="m1597.056045,675.888544l1.36,-0.743a0.395,0.395 0 0 0 0,-0.692l-1.36,-0.744a0.397,0.397 0 0 1 -0.156,-0.155l-0.743,-1.36a0.395,0.395 0 0 0 -0.692,0l-0.743,1.36a0.393,0.393 0 0 1 -0.157,0.156l-1.36,0.745a0.395,0.395 0 0 0 0,0.692l1.36,0.743c0.066,0.036 0.12,0.09 0.157,0.157l0.743,1.36c0.15,0.273 0.542,0.273 0.692,0l0.744,-1.36a0.4,0.4 0 0 1 0.157,-0.157"/>
   <path id="svg_48" fill="#D15D64" d="m1571.876045,869.715544l1.3,-0.71a0.377,0.377 0 0 0 0,-0.66l-1.3,-0.712a0.38,0.38 0 0 1 -0.15,-0.15l-0.71,-1.3a0.377,0.377 0 0 0 -0.66,0l-0.71,1.3a0.386,0.386 0 0 1 -0.152,0.15l-1.3,0.71a0.377,0.377 0 0 0 0,0.662l1.3,0.71a0.39,0.39 0 0 1 0.15,0.15l0.71,1.3a0.376,0.376 0 0 0 0.662,0l0.71,-1.3a0.384,0.384 0 0 1 0.15,-0.15"/>
   <path id="svg_49" fill="#FCD05C" d="m1623.056045,769.888544l1.36,-0.743a0.395,0.395 0 0 0 0,-0.692l-1.36,-0.743a0.4,0.4 0 0 1 -0.156,-0.157l-0.743,-1.36a0.394,0.394 0 0 0 -0.692,0l-0.743,1.36a0.395,0.395 0 0 1 -0.157,0.157l-1.36,0.743a0.395,0.395 0 0 0 0,0.692l1.36,0.744c0.066,0.037 0.12,0.09 0.157,0.157l0.743,1.36c0.15,0.273 0.542,0.273 0.692,0l0.744,-1.36a0.397,0.397 0 0 1 0.157,-0.156"/>
   <g id="svg_50" transform="matrix(1,0,0,-1,1587,986) ">
    <mask transform="translate(2.2222752571105957,0) translate(0,2.2222752571105957) translate(0,2.2222752571105957) translate(0,2.2222752571105957) translate(0,2.2222752571105957) translate(0,2.2222752571105957) translate(2.2222752571105957,0) translate(2.2222752571105957,0) translate(2.2222752571105957,0) translate(2.2222752571105957,0) translate(2.2222752571105957,0) translate(2.2222752571105957,0) translate(2.2222752571105957,0) translate(2.2222752571105957,0) translate(2.2222752571105957,0) translate(2.2222752571105957,0) translate(2.2222752571105957,0) translate(2.2222752571105957,0) translate(2.2222752571105957,0) translate(2.2222752571105957,0) translate(2.2222752571105957,0) translate(2.2222752571105957,0) translate(2.2222752571105957,0) translate(-2.2222752571105957,0) translate(-2.2222752571105957,0) translate(-2.2222752571105957,0) translate(-2.2222752571105957,0) translate(-2.2222752571105957,0) translate(-2.2222752571105957,0) translate(-2.2222752571105957,0) translate(-2.2222752571105957,0) translate(-2.2222752571105957,0) translate(-2.2222752571105957,0) translate(-2.2222752571105957,0) translate(-2.2222752571105957,0) translate(-2.2222752571105957,0) translate(-2.2222752571105957,0) translate(-2.2222752571105957,0) translate(-2.2222752571105957,0) translate(-2.2222752571105957,0) translate(-2.2222752571105957,0) translate(-2.2222752571105957,0) translate(-2.2222752571105957,0) translate(-2.2222752571105957,0) translate(-2.2222752571105957,0) translate(-2.2222752571105957,0) translate(-2.2222752571105957,0) translate(-2.2222752571105957,0) translate(-2.2222752571105957,0) translate(-2.2222752571105957,0) translate(-2.2222752571105957,0) translate(-2.2222752571105957,0) translate(-2.2222752571105957,0) translate(-2.2222752571105957,0) translate(-2.2222752571105957,0) translate(-2.2222752571105957,0) translate(-2.2222752571105957,0) translate(-2.2222752571105957,0) translate(-2.2222752571105957,0) translate(0,2.2222752571105957) translate(0,2.2222752571105957) translate(0,2.2222752571105957) translate(0,2.2222752571105957) translate(0,2.2222752571105957) translate(0,2.2222752571105957) translate(0,2.2222752571105957) translate(0,2.2222752571105957) translate(0,2.2222752571105957) translate(0,2.2222752571105957) translate(0,2.2222752571105957) translate(0,2.2222752571105957) translate(0,2.2222752571105957) translate(0,2.2222752571105957) translate(0,2.2222752571105957) translate(0,2.2222752571105957) translate(0,2.2222752571105957) translate(0,2.2222752571105957) translate(0,2.2222752571105957) translate(0,2.2222752571105957) translate(0,2.2222752571105957) translate(0,2.2222752571105957) translate(0,2.2222752571105957) translate(0,2.2222752571105957) translate(0,2.2222752571105957) translate(0,2.2222752571105957) translate(0,2.2222752571105957) translate(0,2.2222752571105957) translate(0,2.2222752571105957) translate(0,2.2222752571105957) translate(0,2.2222752571105957) translate(0,2.2222752571105957) translate(0,2.2222752571105957) translate(0,2.2222752571105957) translate(0,2.2222752571105957) translate(0,2.2222752571105957) translate(0,2.2222752571105957) translate(0,2.2222752571105957) translate(0,2.2222752571105957) translate(0,2.2222752571105957) translate(0,2.2222752571105957) translate(0,2.2222752571105957) translate(0,2.2222752571105957) translate(0,2.2222752571105957) translate(0,2.2222752571105957) translate(0,2.2222752571105957) translate(0,2.2222752571105957) translate(0,2.2222752571105957) translate(0,2.2222752571105957) translate(0,2.2222752571105957) translate(0,2.2222752571105957) translate(0,2.2222752571105957) translate(0,2.2222752571105957) translate(0,2.2222752571105957) translate(0,2.2222752571105957) translate(0,2.2222752571105957) translate(0,2.2222752571105957) translate(0,2.2222752571105957) translate(0,2.2222752571105957) translate(0,2.2222752571105957) translate(0,2.2222752571105957) translate(0,2.2222752571105957) translate(0,2.2222752571105957) translate(0,2.2222752571105957) translate(0,2.2222752571105957) translate(0,2.2222752571105957) translate(0,2.2222752571105957) translate(0,2.2222752571105957) translate(0,2.2222752571105957) translate(0,2.2222752571105957) translate(0,2.2222752571105957) translate(0,2.2222752571105957) translate(0,2.2222752571105957) translate(0,2.2222752571105957) translate(0,2.2222752571105957) translate(0,2.2222752571105957) translate(0,2.2222752571105957) translate(0,2.2222752571105957) translate(0,2.2222752571105957) translate(0,2.2222752571105957) translate(0,2.2222752571105957) translate(0,2.2222752571105957) translate(0,2.2222752571105957) translate(0,2.2222752571105957) translate(0,2.2222752571105957) translate(0,2.2222752571105957) translate(0,2.2222752571105957) translate(0,2.2222752571105957) translate(0,2.2222752571105957) translate(0,2.2222752571105957) translate(0,2.2222752571105957) translate(0,2.2222752571105957) translate(0,2.2222752571105957) translate(0,2.2222752571105957) translate(0,2.2222752571105957) translate(0,2.2222752571105957) translate(0,2.2222752571105957) translate(0,2.2222752571105957) translate(0,2.2222752571105957) translate(0,2.2222752571105957) translate(0,2.2222752571105957) translate(0,2.2222752571105957) translate(0,2.2222752571105957) translate(0,2.2222752571105957) translate(0,2.2222752571105957) translate(0,2.2222752571105957) translate(0,2.2222752571105957) translate(0,2.2222752571105957) translate(0,2.2222752571105957) translate(0,2.2222752571105957) translate(0,2.2222752571105957) translate(0,2.2222752571105957) translate(0,2.2222752571105957) translate(0,2.2222752571105957) translate(0,2.2222752571105957) translate(0,2.2222752571105957) translate(0,2.2222752571105957) translate(0,2.2222752571105957) translate(0,2.2222752571105957) translate(0,2.2222752571105957) translate(0,2.2222752571105957) translate(0,2.2222752571105957) translate(0,2.2222752571105957) translate(0,2.2222752571105957) translate(0,2.2222752571105957) translate(0,2.2222752571105957) translate(0,2.2222752571105957) translate(0,2.2222752571105957) translate(0,2.2222752571105957) translate(0,2.2222752571105957) translate(0,2.2222752571105957) translate(0,2.2222752571105957) translate(0,2.2222752571105957) translate(0,2.2222752571105957) translate(0,2.2222752571105957) translate(0,2.2222752571105957) translate(0,2.2222752571105957) translate(0,2.2222752571105957) translate(0,2.2222752571105957) translate(0,2.2222752571105957) translate(0,2.2222752571105957) translate(0,2.2222752571105957) translate(0,2.2222752571105957) translate(0,2.2222752571105957) translate(0,2.2222752571105957) translate(0,2.2222752571105957) translate(0,2.2222752571105957) translate(0,2.2222752571105957) translate(0,2.2222752571105957) translate(0,2.2222752571105957) translate(0,2.2222752571105957) translate(0,2.2222752571105957) translate(0,2.2222752571105957) translate(0,2.2222752571105957) translate(0,2.2222752571105957) translate(0,2.2222752571105957) translate(0,2.2222752571105957) translate(0,2.2222752571105957) translate(0,2.2222752571105957) translate(0,2.2222752571105957) translate(0,2.2222752571105957) translate(0,2.2222752571105957) translate(0,2.2222752571105957) translate(0,2.2222752571105957) translate(0,2.2222752571105957) translate(0,2.2222752571105957) translate(0,2.2222752571105957) translate(0,2.2222752571105957) translate(0,2.2222752571105957) translate(0,2.2222752571105957) translate(0,2.2222752571105957) translate(0,2.2222752571105957) translate(0,2.2222752571105957) translate(0,2.2222752571105957) translate(0,2.2222752571105957) translate(0,2.2222752571105957) translate(0,2.2222752571105957) translate(0,2.2222752571105957) translate(0,2.2222752571105957) translate(0,2.2222752571105957) translate(0,2.2222752571105957) translate(0,2.2222752571105957) translate(0,2.2222752571105957) translate(0,2.2222752571105957) translate(0,2.2222752571105957) translate(0,2.2222752571105957) translate(0,2.2222752571105957) translate(0,2.2222752571105957) translate(0,2.2222752571105957) translate(0,2.2222752571105957) translate(0,2.2222752571105957) translate(0,2.2222752571105957) translate(0,2.2222752571105957) translate(0,2.2222752571105957) translate(0,2.2222752571105957) translate(0,2.2222752571105957) translate(0,2.2222752571105957) translate(0,2.2222752571105957) translate(0,2.2222752571105957) translate(0,2.2222752571105957) translate(0,2.2222752571105957) translate(0,2.2222752571105957) translate(0,2.2222752571105957) translate(0,2.2222752571105957) translate(0,2.2222752571105957) translate(0,2.2222752571105957) translate(0,2.2222752571105957) translate(0,2.2222752571105957) translate(0,2.2222752571105957) translate(0,2.2222752571105957) translate(0,2.2222752571105957) " id="f">
     <use id="svg_51" xlink:href="#e" xmlns:xlink="http://www.w3.org/1999/xlink"/>
    </mask>
    <path id="svg_52" mask="url(#f)" fill="#7B63AB" d="m-35.333955,481.801456l1.36,0.743a0.394,0.394 0 0 1 0,0.692l-1.36,0.743a0.4,0.4 0 0 0 -0.157,0.156l-0.743,1.36a0.394,0.394 0 0 1 -0.692,0l-0.744,-1.36a0.397,0.397 0 0 0 -0.155,-0.156l-1.36,-0.743a0.395,0.395 0 0 1 0,-0.692l1.36,-0.744a0.39,0.39 0 0 0 0.156,-0.157l0.745,-1.36a0.394,0.394 0 0 1 0.692,0l0.743,1.36c0.036,0.066 0.09,0.12 0.157,0.156"/>
   </g>
   <g id="svg_53" stroke-linejoin="round" stroke-linecap="round" stroke-width="1.097" stroke="#7B63AB">
    <path id="svg_54" d="m1123.999045,434.988544l2.78,-2.78m-10.78,10.78l2.78,-2.78m2.827,-7.314c0,-0.997 -5.483,4.486 -4.486,4.486c-0.996,0 4.487,5.484 4.487,4.487c0,0.996 5.483,-4.488 4.486,-4.488c0.997,0 -4.486,-5.483 -4.486,-4.486l-0.001,0.001z"/>
   </g>
   <path id="svg_55" fill="#FCD05C" d="m1344.977045,290.810544l2.755,-1.507a0.394,0.394 0 0 0 0,-0.692l-2.755,-1.506a0.393,0.393 0 0 1 -0.157,-0.156l-1.505,-2.755a0.393,0.393 0 0 0 -0.692,0l-1.506,2.755a0.387,0.387 0 0 1 -0.158,0.157l-2.755,1.507a0.393,0.393 0 0 0 0,0.69l2.755,1.508a0.39,0.39 0 0 1 0.157,0.157l1.506,2.754c0.15,0.274 0.543,0.274 0.69,0l1.508,-2.755a0.395,0.395 0 0 1 0.16,-0.158"/>
   <path id="svg_56" fill="#D15D64" d="m1233.876045,482.715544l1.3,-0.71a0.377,0.377 0 0 0 0,-0.66l-1.3,-0.712a0.38,0.38 0 0 1 -0.15,-0.15l-0.71,-1.3a0.377,0.377 0 0 0 -0.66,0l-0.71,1.3a0.386,0.386 0 0 1 -0.152,0.15l-1.3,0.71a0.377,0.377 0 0 0 0,0.662l1.3,0.71a0.39,0.39 0 0 1 0.15,0.15l0.71,1.3a0.376,0.376 0 0 0 0.662,0l0.71,-1.3a0.384,0.384 0 0 1 0.15,-0.15"/>
   <path id="svg_57" fill="#FCD05C" d="m1454.056045,393.888544l1.36,-0.744a0.395,0.395 0 0 0 0,-0.692l-1.36,-0.743a0.4,0.4 0 0 1 -0.156,-0.156l-0.743,-1.36a0.394,0.394 0 0 0 -0.692,0l-0.743,1.36a0.395,0.395 0 0 1 -0.157,0.158l-1.36,0.742a0.395,0.395 0 0 0 0,0.692l1.36,0.745c0.066,0.037 0.12,0.09 0.157,0.156l0.743,1.36c0.15,0.273 0.542,0.273 0.692,0l0.744,-1.36a0.397,0.397 0 0 1 0.157,-0.156"/>
   <path id="svg_58" d="m1671.999045,331.988544l1.762,0.542l1.762,-0.542l-0.543,1.762l0.544,1.762l-1.762,-0.543l-1.762,0.544l0.542,-1.762l-0.543,-1.763z" stroke-linejoin="round" stroke-linecap="round" stroke-width="1.097" stroke="#00A959"/>
   <g id="svg_59" stroke-linejoin="round" stroke-linecap="round" stroke-width="1.097" stroke="#E98333">
    <path id="svg_60" d="m70.472,721l-1.472,-1.47m5.47,5.47l-1.47,-1.47m-2.457,-2.693a1.852,1.852 0 0 1 2.62,2.62a1.852,1.852 0 0 1 -2.62,-2.62z"/>
   </g>
   <g id="svg_61" opacity="0.5">
    <path id="svg_62" fill="#4D595D" d="m400.562,483.592c0,-4.514 -1.568,-8.66 -4.186,-11.93c-2.117,-2.222 -4.432,-0.835 -5.07,9.53c-0.766,12.432 -7.31,4.13 -12.526,9.985c-5.203,5.844 -17.318,-4.782 -14.19,1.43c3.22,6.01 9.56,10.1 16.857,10.1c10.556,0 19.115,-8.558 19.115,-19.115"/>
    <path id="svg_63" stroke-linejoin="round" stroke-linecap="round" stroke-width="1.097" stroke="#DBE7F0" d="m381.446,464.478c10.557,0 19.115,8.558 19.115,19.114c0,10.557 -8.557,19.115 -19.114,19.115s-19.114,-8.558 -19.114,-19.115c0,-10.556 8.557,-19.114 19.114,-19.114l-0.001,0z"/>
    <path id="svg_64" stroke-linejoin="round" stroke-linecap="round" stroke-width="1.097" stroke="#DBE7F0" d="m381.446,464.478c10.557,0 19.115,8.558 19.115,19.114c0,10.557 -8.557,19.115 -19.114,19.115s-19.114,-8.558 -19.114,-19.115c0,-10.556 8.557,-19.114 19.114,-19.114l-0.001,0z"/>
    <path id="svg_65" stroke-linejoin="round" stroke-linecap="round" stroke-width="1.097" stroke="#DBE7F0" d="m363.84,476.14c3.66,1.605 8.12,3.147 11.752,3.147c7.577,0 9.3,-4.65 18.253,-4.822c1.615,-0.03 3.07,-0.05 4.366,-0.06m-24.178,26.811c1.376,-3.52 4.187,-8.467 9.652,-11.252c6.53,-3.326 11.208,-0.57 16.055,-0.814"/>
    <path id="svg_66" stroke-linejoin="round" stroke-linecap="round" stroke-width="1.097" stroke="#DBE7F0" d="m365.356,493.916c2.948,-0.404 7.794,-1.682 11.786,-5.674c6.2,-6.2 7.92,-6.37 11.71,-6.37c3.103,0 7.71,3.234 11.64,3.363m-26.765,-19.135c3.98,0.616 8.786,1.863 11.853,4.404c2.395,1.985 6.528,1.848 10.644,0.963m-26.459,-3.005c1.467,0.318 2.818,0.663 3.696,0.947c2.897,0.936 5.453,1.277 4.715,3.333c-0.938,2.61 -5.274,1.137 -8.17,0.2c-0.95,-0.306 -2.138,-0.87 -3.3,-1.518m-4.248,9.971c3.822,0.546 9.144,1.832 9.69,4.78c0.376,2.04 -3.85,3.184 -8.714,3.828m13.074,12.06c3.32,-3.523 11.45,-10.65 21.097,-8.256l0.002,0"/>
   </g>
   <g id="svg_67" opacity="0.5">
    <path id="svg_68" fill="#4D595D" d="m1532.112,302.432c-40.54,-52.804 -43.992,39.154 -122.523,23.703c22.006,27.912 56.123,45.83 94.426,45.83c66.372,0 120.18,-53.805 120.18,-120.178c0,-39.354 -18.916,-74.285 -48.15,-96.208l-5.04,2.005c22.04,27.215 -19.393,170.245 -38.894,144.847"/>
    <path id="svg_69" stroke-linejoin="round" stroke-linecap="round" stroke-width="1.097" stroke="#DBE7F0" d="m1383.837,249.923c0.11,-7.848 0.99,-15.757 2.696,-23.617m42.362,119.034a118.99,118.99 0 0 1 -8.532,-7.51m123.49,26.874a120.262,120.262 0 0 1 -30.652,6.533m104.109,-158.537c1.547,4.5 2.826,9.096 3.83,13.762m-38.282,-65.155a118.96,118.96 0 0 1 10.203,10.076m-109.315,-38.067a119.536,119.536 0 0 1 23.026,-1.673"/>
    <path id="svg_70" fill="#27363A" d="m1429.216,347.407c4.525,3.988 9.963,7.712 16.628,10.84c0.277,0.13 0.504,0.33 0.674,0.587c0.734,1.124 3.406,3.995 4.255,4.897c0.175,0.188 0.384,0.323 0.624,0.41l8.84,3.218c0.254,0.095 0.482,0.25 0.662,0.454l5.732,6.455c0.38,0.424 0.95,0.62 1.507,0.523l6.055,-1.065a1.57,1.57 0 0 1 0.648,0.017l4.28,0.978c0.22,0.05 0.45,0.055 0.672,0.012l4.958,-0.94c0.213,-0.04 0.43,-0.038 0.64,0.005l9.515,1.985c0.344,0.072 0.703,0.03 1.023,-0.12l5.018,-2.32c0.216,-0.098 0.452,-0.152 0.69,-0.152l7.943,0.008c0.31,0 0.608,-0.086 0.87,-0.248l5.004,-3.12c1.056,-0.66 0.556,-2.29 -0.69,-2.242l-3.87,0.148c-0.265,0.01 -0.53,-0.043 -0.767,-0.158l-9.46,-4.507a1.64,1.64 0 0 0 -1.094,-0.11l-5.363,1.316c-0.375,0.09 -0.77,0.05 -1.117,-0.123l-15.316,-7.585a1.682,1.682 0 0 0 -0.484,-0.15l-12.27,-1.845a1.614,1.614 0 0 1 -0.737,-0.305l-9.95,-7.432a1.63,1.63 0 0 0 -1.018,-0.326l-11.674,0.275a1.706,1.706 0 0 1 -0.37,-0.033l-10.64,-2.186c-1.644,-0.338 -2.68,1.73 -1.418,2.84"/>
    <path id="svg_71" stroke-linejoin="round" stroke-linecap="round" stroke-width="1.097" stroke="#DBE7F0" d="m1429.216,347.407c4.525,3.988 9.963,7.712 16.628,10.84c0.277,0.13 0.504,0.33 0.674,0.587c0.734,1.124 3.406,3.995 4.255,4.897c0.175,0.188 0.384,0.323 0.624,0.41l8.84,3.218c0.254,0.095 0.482,0.25 0.662,0.454l5.732,6.455c0.38,0.424 0.95,0.62 1.507,0.523l6.055,-1.065a1.57,1.57 0 0 1 0.648,0.017l4.28,0.978c0.22,0.05 0.45,0.055 0.672,0.012l4.958,-0.94c0.213,-0.04 0.43,-0.038 0.64,0.005l9.515,1.985c0.344,0.072 0.703,0.03 1.023,-0.12l5.018,-2.32c0.216,-0.098 0.452,-0.152 0.69,-0.152l7.943,0.008c0.31,0 0.608,-0.086 0.87,-0.248l5.004,-3.12c1.056,-0.66 0.556,-2.29 -0.69,-2.242l-3.87,0.148c-0.265,0.01 -0.53,-0.043 -0.767,-0.158l-9.46,-4.507a1.64,1.64 0 0 0 -1.094,-0.11l-5.363,1.316c-0.375,0.09 -0.77,0.05 -1.117,-0.123l-15.316,-7.585a1.682,1.682 0 0 0 -0.484,-0.15l-12.27,-1.845a1.614,1.614 0 0 1 -0.737,-0.305l-9.95,-7.432a1.63,1.63 0 0 0 -1.018,-0.326l-11.674,0.275a1.706,1.706 0 0 1 -0.37,-0.033l-10.64,-2.186c-1.644,-0.338 -2.68,1.73 -1.418,2.84l0,-0.001z"/>
    <path id="svg_72" fill="#27363A" d="m1595.746,171.66c8.49,9.6 19.728,26.172 22.898,39.2a1.624,1.624 0 0 1 -0.414,1.513c-3.71,3.898 -21.428,20.263 -23.31,22c-0.118,0.11 -0.234,0.185 -0.378,0.254l-10.532,5.145c-0.125,0.062 -0.26,0.11 -0.397,0.134l-5.52,1.105a1.63,1.63 0 0 0 -1.02,0.67l-6.537,9.33c-0.48,0.688 -1.404,0.902 -2.137,0.494l-24.443,-13.58a1.64,1.64 0 0 1 -0.823,-1.182l-3.094,-20.038a1.64,1.64 0 0 1 0.818,-1.682l15.878,-8.86c0.394,-0.222 0.68,-0.595 0.787,-1.034l6.738,-27.035a1.632,1.632 0 0 1 1.27,-1.21l28.674,-5.73a1.617,1.617 0 0 1 1.542,0.508"/>
    <path id="svg_73" stroke-linejoin="round" stroke-linecap="round" stroke-width="1.097" stroke="#DBE7F0" d="m1595.746,171.66c8.49,9.6 19.728,26.172 22.898,39.2a1.624,1.624 0 0 1 -0.414,1.513c-3.71,3.898 -21.428,20.263 -23.31,22c-0.118,0.11 -0.234,0.185 -0.378,0.254l-10.532,5.145c-0.125,0.062 -0.26,0.11 -0.397,0.134l-5.52,1.105a1.63,1.63 0 0 0 -1.02,0.67l-6.537,9.33c-0.48,0.688 -1.404,0.902 -2.137,0.494l-24.443,-13.58a1.64,1.64 0 0 1 -0.823,-1.182l-3.094,-20.038a1.64,1.64 0 0 1 0.818,-1.682l15.878,-8.86c0.394,-0.222 0.68,-0.595 0.787,-1.034l6.738,-27.035a1.632,1.632 0 0 1 1.27,-1.21l28.674,-5.73a1.617,1.617 0 0 1 1.542,0.508l0,-0.002z"/>
    <path id="svg_74" fill="#27363A" d="m1383.83,277.438a115.53,115.53 0 0 1 -2.57,-26.214c0.02,-1.37 1.65,-2.09 2.7,-1.21l7.906,6.636c0.343,0.29 0.792,0.423 1.237,0.373l12.898,-1.46c0.368,-0.04 0.74,0.045 1.053,0.24l15.875,9.933c0.166,0.105 0.353,0.18 0.546,0.22l16.18,3.235c0.376,0.077 0.764,0.018 1.1,-0.163l13.964,-7.536a1.636,1.636 0 0 1 2,0.352l10.16,11.405c0.244,0.27 0.388,0.616 0.414,0.98l1.868,27.814c0.033,0.502 -0.162,0.99 -0.535,1.326l-13.413,12.154a1.65,1.65 0 0 0 -0.477,0.773l-3.872,13.864a1.638,1.638 0 0 1 -1.34,1.18l-16.906,2.457a1.652,1.652 0 0 1 -0.47,0l-7.174,-1.048a1.624,1.624 0 0 0 -1.64,0.778c-0.546,0.912 -1.39,2.33 -2.084,3.5a1.648,1.648 0 0 1 -2.515,0.38c-7.462,-6.728 -13.777,-14.133 -18.978,-22.02l21.636,0c7.013,0 -3.504,-3.665 -10.993,-3.187c-0.992,0.063 -2.01,0.127 -3.04,0.188c-0.25,-2.444 -2.85,-6.547 -8.617,-6.613a17.45,17.45 0 0 0 1.14,-1.862c11.31,-18.812 -3.523,-28.586 -16.053,-26.472l0,-0.003z"/>
    <path id="svg_75" stroke-linejoin="round" stroke-linecap="round" stroke-width="1.097" stroke="#DBE7F0" d="m1399.757,315.384c5.2,7.887 11.516,15.29 18.978,22.02a1.648,1.648 0 0 0 2.514,-0.38c0.694,-1.17 1.537,-2.588 2.082,-3.5a1.624,1.624 0 0 1 1.64,-0.778l7.174,1.048c0.155,0.023 0.315,0.023 0.47,0l16.906,-2.458a1.638,1.638 0 0 0 1.34,-1.18l3.873,-13.863a1.65,1.65 0 0 1 0.477,-0.773l13.413,-12.154c0.373,-0.336 0.568,-0.824 0.535,-1.325l-1.868,-27.812a1.637,1.637 0 0 0 -0.414,-0.98l-10.16,-11.406a1.636,1.636 0 0 0 -2,-0.35l-13.964,7.535c-0.336,0.18 -0.724,0.24 -1.1,0.164l-16.18,-3.234a1.685,1.685 0 0 1 -0.546,-0.22l-15.875,-9.933a1.663,1.663 0 0 0 -1.052,-0.24l-12.897,1.46a1.64,1.64 0 0 1 -1.237,-0.373l-7.907,-6.636c-1.05,-0.88 -2.68,-0.16 -2.7,1.21a115.53,115.53 0 0 0 2.574,26.233m98.012,-145.596c-40.293,6.95 -84.5,37.83 -96.602,92.68c-0.256,1.166 0.798,2.212 1.965,1.96c1.21,-0.263 2.594,-0.59 3.488,-0.808a1.627,1.627 0 0 1 1.6,0.496l9.014,10.01c0.39,0.435 0.984,0.627 1.556,0.506l23.454,-4.997c0.398,-0.087 0.75,-0.317 0.99,-0.647l14.668,-20.428a1.64,1.64 0 0 0 -0.11,-2.048l-7.536,-8.405a1.633,1.633 0 0 1 -0.39,-1.39l2.432,-13.225c0.097,-0.527 0.445,-0.974 0.933,-1.195l14.23,-6.466a1.638,1.638 0 0 1 2.312,1.38l0.743,11.123c0.03,0.41 0.21,0.794 0.51,1.08l19.442,18.422c0.413,0.387 0.997,0.537 1.545,0.393l16.548,-4.365c0.162,-0.043 0.326,-0.06 0.492,-0.052c2.147,0.1 17.425,0.794 17.647,0.257c0.217,-0.525 1.7,-15.952 1.962,-18.685a1.58,1.58 0 0 1 0.282,-0.763l9.51,-13.675a1.64,1.64 0 0 0 -0.087,-1.985l-16.126,-19.296a1.63,1.63 0 0 0 -0.663,-0.474l-19.852,-7.74a1.626,1.626 0 0 1 -1.027,-1.303c-0.255,-1.916 -0.816,-6.277 -1.026,-8.87a1.64,1.64 0 0 0 -1.907,-1.49l0.003,0z"/>
    <path id="svg_76" fill="#27363A" d="m1620.344,227.284l-4.855,11.086c-0.196,0.443 -0.57,0.775 -1.035,0.914l-12.18,3.624c-0.28,0.084 -0.533,0.242 -0.734,0.457l-10.937,11.832c-0.326,0.354 -0.48,0.836 -0.42,1.314l2.075,16.555c0.057,0.464 -0.084,0.93 -0.392,1.28l-9.227,10.573a1.63,1.63 0 0 1 -1.277,0.56l-16.347,-0.43a1.64,1.64 0 0 0 -1.68,1.547l-1.076,19.236c-0.01,0.198 -0.057,0.393 -0.14,0.573l-7.605,17.106a1.65,1.65 0 0 0 -0.02,1.28l5.99,14.818c0.184,0.463 0.15,0.986 -0.095,1.42l-8.3,14.683c-0.08,0.143 -0.17,0.264 -0.29,0.374c-0.85,0.806 -4.726,4.514 -7.488,7.372c-1.142,1.183 -0.02,3.11 1.58,2.723c26.152,-6.267 91.19,-51.263 77.582,-138.47c-0.255,-1.625 -2.47,-1.93 -3.13,-0.426"/>
    <path id="svg_77" stroke-linejoin="round" stroke-linecap="round" stroke-width="1.097" stroke="#DBE7F0" d="m1620.344,227.284l-4.855,11.086c-0.196,0.443 -0.57,0.775 -1.035,0.914l-12.18,3.624c-0.28,0.084 -0.533,0.242 -0.734,0.457l-10.937,11.832c-0.326,0.354 -0.48,0.836 -0.42,1.314l2.075,16.555c0.057,0.464 -0.084,0.93 -0.392,1.28l-9.227,10.573a1.63,1.63 0 0 1 -1.277,0.56l-16.347,-0.43a1.64,1.64 0 0 0 -1.68,1.547l-1.076,19.236c-0.01,0.198 -0.057,0.393 -0.14,0.573l-7.605,17.106a1.65,1.65 0 0 0 -0.02,1.28l5.99,14.818c0.184,0.463 0.15,0.986 -0.095,1.42l-8.3,14.683c-0.08,0.143 -0.17,0.264 -0.29,0.374c-0.85,0.806 -4.726,4.514 -7.488,7.372c-1.142,1.183 -0.02,3.11 1.58,2.723c26.152,-6.267 91.19,-51.263 77.582,-138.47c-0.255,-1.625 -2.47,-1.93 -3.13,-0.426l0.001,-0.001zm-112.067,-97.414l14.245,-0.803c0.394,-0.023 0.783,0.098 1.093,0.34l2.198,1.702c0.392,0.303 0.9,0.413 1.384,0.296l8.717,-2.083c0.43,-0.102 0.88,-0.027 1.255,0.207l3.643,2.303c0.344,0.22 0.76,0.3 1.16,0.23l5.543,-0.978c0.306,-0.056 0.62,-0.02 0.906,0.096l1.95,0.803c0.364,0.15 0.663,0.426 0.837,0.777l1.834,3.646c0.232,0.46 0.667,0.783 1.175,0.873l3.756,0.672c0.394,0.07 0.746,0.28 0.995,0.593l2.818,3.55c0.105,0.132 0.23,0.247 0.37,0.34l6.405,4.297c0.21,0.142 0.38,0.32 0.505,0.54c0.438,0.77 1.533,2.663 1.796,2.89c0.287,0.25 9.896,8.11 12.564,10.293c0.28,0.23 0.176,0.683 -0.177,0.765c-0.88,0.21 -2.217,0.514 -2.886,0.607a1.202,1.202 0 0 1 -0.687,-0.107l-8.67,-4.134c-0.108,-0.05 -0.22,-0.092 -0.336,-0.12l-9.538,-2.203a1.6,1.6 0 0 0 -0.585,-0.03l-9.56,1.272a1.64,1.64 0 0 1 -1.14,-0.272l-14.58,-9.99a1.626,1.626 0 0 0 -0.516,-0.234l-16.947,-4.396a1.64,1.64 0 0 1 -0.88,-0.576l-4.424,-5.66a1.64,1.64 0 0 0 -0.614,-0.483l-4.194,-1.9c-1.558,-0.71 -1.124,-3.03 0.585,-3.126l0,0.003z"/>
    <path id="svg_78" stroke-linejoin="round" stroke-linecap="round" stroke-width="1.097" stroke="#DBE7F0" d="m1616.754,204.907l69.555,0c11.152,0 6.372,-4.142 -7.652,-2.866c-0.7,0.062 -1.39,0.11 -2.077,0.153c-1.574,-1.702 -5.468,-3.782 -9.27,-2.613c-0.64,-4.567 -8.22,-10.058 -15.36,-5.288c-0.52,-7.097 -7.663,-13.905 -15.19,-7.848c2.247,-11.497 -0.782,-24.157 -18.335,-22.648c-10.806,0.93 -15.68,6.52 -17.204,13.25m-190.821,135.15c-0.992,0.063 -2.01,0.127 -3.04,0.188c-0.25,-2.444 -2.85,-6.547 -8.617,-6.613a17.45,17.45 0 0 0 1.14,-1.862c16.572,-27.565 -22.99,-35.727 -29.182,-15.508c-1.31,4.28 -1.848,8.465 -1.838,12.162c-1.975,-1.26 -4.667,-2.07 -8.338,-2.07c-10,0 -13.275,8.763 -12.264,12.954c-1.802,-1.124 -3.82,-2.215 -8.293,-1.8c-8.604,0.797 -17.208,5.737 -4.142,5.737l85.568,0c7.013,0 -3.504,-3.666 -10.993,-3.188l-0.001,0z"/>
    <path id="svg_79" stroke-linejoin="round" stroke-linecap="round" stroke-width="2.097" stroke="#DBE7F0" d="m1399.757,315.384c5.2,7.887 11.516,15.29 18.978,22.02a1.648,1.648 0 0 0 2.514,-0.38c0.694,-1.17 1.537,-2.588 2.082,-3.5a1.624,1.624 0 0 1 1.64,-0.778l7.174,1.048c0.155,0.023 0.315,0.023 0.47,0l16.906,-2.458a1.638,1.638 0 0 0 1.34,-1.18l3.873,-13.863a1.65,1.65 0 0 1 0.477,-0.773l13.413,-12.154c0.373,-0.336 0.568,-0.824 0.535,-1.325l-1.868,-27.812a1.637,1.637 0 0 0 -0.414,-0.98l-10.16,-11.406a1.636,1.636 0 0 0 -2,-0.35l-13.964,7.535c-0.336,0.18 -0.724,0.24 -1.1,0.164l-16.18,-3.234a1.685,1.685 0 0 1 -0.546,-0.22l-15.875,-9.933a1.663,1.663 0 0 0 -1.052,-0.24l-12.897,1.46a1.64,1.64 0 0 1 -1.237,-0.373l-7.907,-6.636c-1.05,-0.88 -2.68,-0.16 -2.7,1.21a115.53,115.53 0 0 0 2.574,26.233m98.012,-145.596c-40.293,6.95 -84.5,37.83 -96.602,92.68c-0.256,1.166 0.798,2.212 1.965,1.96c1.21,-0.263 2.594,-0.59 3.488,-0.808a1.627,1.627 0 0 1 1.6,0.496l9.014,10.01c0.39,0.435 0.984,0.627 1.556,0.506l23.454,-4.997c0.398,-0.087 0.75,-0.317 0.99,-0.647l14.668,-20.428a1.64,1.64 0 0 0 -0.11,-2.048l-7.536,-8.405a1.633,1.633 0 0 1 -0.39,-1.39l2.432,-13.225c0.097,-0.527 0.445,-0.974 0.933,-1.195l14.23,-6.466a1.638,1.638 0 0 1 2.312,1.38l0.743,11.123c0.03,0.41 0.21,0.794 0.51,1.08l19.442,18.422c0.413,0.387 0.997,0.537 1.545,0.393l16.548,-4.365c0.162,-0.043 0.326,-0.06 0.492,-0.052c2.147,0.1 17.425,0.794 17.647,0.257c0.217,-0.525 1.7,-15.952 1.962,-18.685a1.58,1.58 0 0 1 0.282,-0.763l9.51,-13.675a1.64,1.64 0 0 0 -0.087,-1.985l-16.126,-19.296a1.63,1.63 0 0 0 -0.663,-0.474l-19.852,-7.74a1.626,1.626 0 0 1 -1.027,-1.303c-0.255,-1.916 -0.816,-6.277 -1.026,-8.87a1.64,1.64 0 0 0 -1.907,-1.49l0.003,0z"/>
   </g>
   <g id="svg_83">
    <mask transform="translate(0,-2.2222752571105957) translate(0,-2.2222752571105957) translate(0,-2.2222752571105957) translate(0,-2.2222752571105957) translate(0,-2.2222752571105957) translate(0,-2.2222752571105957) translate(0,-2.2222752571105957) translate(0,-2.2222752571105957) translate(0,-2.2222752571105957) translate(0,-2.2222752571105957) translate(0,-2.2222752571105957) translate(0,-2.2222752571105957) translate(0,-2.2222752571105957) translate(0,-2.2222752571105957) translate(0,-2.2222752571105957) translate(0,-2.2222752571105957) translate(0,-2.2222752571105957) translate(0,-2.2222752571105957) translate(0,-2.2222752571105957) translate(0,-2.2222752571105957) translate(0,-2.2222752571105957) translate(0,-2.2222752571105957) translate(0,-2.2222752571105957) translate(0,-2.2222752571105957) translate(0,-2.2222752571105957) translate(0,-2.2222752571105957) translate(0,-2.2222752571105957) translate(0,-2.2222752571105957) translate(0,-2.2222752571105957) translate(0,-2.2222752571105957) translate(0,-2.2222752571105957) translate(0,-2.2222752571105957) translate(0,-2.2222752571105957) translate(-2.2222752571105957,0) translate(-2.2222752571105957,0) translate(-2.2222752571105957,0) translate(-2.2222752571105957,0) translate(-2.2222752571105957,0) translate(-2.2222752571105957,0) translate(-2.2222752571105957,0) translate(-2.2222752571105957,0) translate(-2.2222752571105957,0) translate(-2.2222752571105957,0) translate(-2.2222752571105957,0) translate(-2.2222752571105957,0) translate(-2.2222752571105957,0) translate(-2.2222752571105957,0) translate(-2.2222752571105957,0) translate(-2.2222752571105957,0) translate(-2.2222752571105957,0) translate(-2.2222752571105957,0) translate(-2.2222752571105957,0) translate(-2.2222752571105957,0) translate(-2.2222752571105957,0) translate(-2.2222752571105957,0) translate(-2.2222752571105957,0) translate(-2.2222752571105957,0) translate(-2.2222752571105957,0) translate(-2.2222752571105957,0) translate(-2.2222752571105957,0) translate(-2.2222752571105957,0) translate(-2.2222752571105957,0) translate(-2.2222752571105957,0) translate(-2.2222752571105957,0) translate(-2.2222752571105957,0) translate(-2.2222752571105957,0) translate(-2.2222752571105957,0) translate(-2.2222752571105957,0) translate(-2.2222752571105957,0) translate(-2.2222752571105957,0) translate(-2.2222752571105957,0) translate(-2.2222752571105957,0) translate(-2.2222752571105957,0) translate(-2.2222752571105957,0) translate(-2.2222752571105957,0) translate(-2.2222752571105957,0) translate(-2.2222752571105957,0) translate(-2.2222752571105957,0) translate(-2.2222752571105957,0) translate(-2.2222752571105957,0) translate(-2.2222752571105957,0) translate(-2.2222752571105957,0) translate(-2.2222752571105957,0) translate(-2.2222752571105957,0) translate(-2.2222752571105957,0) translate(-2.2222752571105957,0) translate(-2.2222752571105957,0) translate(-2.2222752571105957,0) translate(-2.2222752571105957,0) translate(-2.2222752571105957,0) translate(-2.2222752571105957,0) translate(-2.2222752571105957,0) translate(-2.2222752571105957,0) translate(-2.2222752571105957,0) translate(-2.2222752571105957,0) translate(-2.2222752571105957,0) translate(-2.2222752571105957,0) translate(-2.2222752571105957,0) translate(-2.2222752571105957,0) translate(-2.2222752571105957,0) translate(-2.2222752571105957,0) translate(-2.2222752571105957,0) translate(-2.2222752571105957,0) translate(-2.2222752571105957,0) translate(-2.2222752571105957,0) translate(-2.2222752571105957,0) translate(-2.2222752571105957,0) translate(-2.2222752571105957,0) translate(-2.2222752571105957,0) translate(-2.2222752571105957,0) translate(-2.2222752571105957,0) translate(-2.2222752571105957,0) translate(-2.2222752571105957,0) translate(-2.2222752571105957,0) translate(-2.2222752571105957,0) translate(-2.2222752571105957,0) translate(-2.2222752571105957,0) translate(-2.2222752571105957,0) translate(-2.2222752571105957,0) translate(-2.2222752571105957,0) translate(-2.2222752571105957,0) translate(-2.2222752571105957,0) translate(-2.2222752571105957,0) translate(-2.2222752571105957,0) translate(-2.2222752571105957,0) translate(-2.2222752571105957,0) translate(-2.2222752571105957,0) translate(-2.2222752571105957,0) translate(-2.2222752571105957,0) translate(-2.2222752571105957,0) translate(-2.2222752571105957,0) translate(-2.2222752571105957,0) translate(-2.2222752571105957,0) translate(-2.2222752571105957,0) translate(-2.2222752571105957,0) translate(-2.2222752571105957,0) translate(-2.2222752571105957,0) translate(-2.2222752571105957,0) translate(-2.2222752571105957,0) translate(-2.2222752571105957,0) translate(-2.2222752571105957,0) translate(-2.2222752571105957,0) translate(-2.2222752571105957,0) translate(-2.2222752571105957,0) translate(-2.2222752571105957,0) translate(-2.2222752571105957,0) translate(-2.2222752571105957,0) translate(-2.2222752571105957,0) translate(-2.2222752571105957,0) translate(-2.2222752571105957,0) translate(-2.2222752571105957,0) translate(-2.2222752571105957,0) translate(-2.2222752571105957,0) translate(-2.2222752571105957,0) translate(-2.2222752571105957,0) translate(-2.2222752571105957,0) translate(-2.2222752571105957,0) translate(-2.2222752571105957,0) translate(-2.2222752571105957,0) translate(-2.2222752571105957,0) translate(-2.2222752571105957,0) translate(-2.2222752571105957,0) translate(-2.2222752571105957,0) translate(-2.2222752571105957,0) translate(-2.2222752571105957,0) translate(-2.2222752571105957,0) translate(-2.2222752571105957,0) translate(-2.2222752571105957,0) translate(-2.2222752571105957,0) translate(-2.2222752571105957,0) translate(-2.2222752571105957,0) translate(-2.2222752571105957,0) translate(-2.2222752571105957,0) translate(-2.2222752571105957,0) translate(-2.2222752571105957,0) translate(-2.2222752571105957,0) translate(-2.2222752571105957,0) translate(-2.2222752571105957,0) translate(-2.2222752571105957,0) translate(-2.2222752571105957,0) translate(-2.2222752571105957,0) translate(-2.2222752571105957,0) translate(-2.2222752571105957,0) translate(-2.2222752571105957,0) translate(-2.2222752571105957,0) translate(-2.2222752571105957,0) translate(-2.2222752571105957,0) translate(-2.2222752571105957,0) translate(-2.2222752571105957,0) translate(-2.2222752571105957,0) translate(-2.2222752571105957,0) translate(-2.2222752571105957,0) translate(-2.2222752571105957,0) translate(-2.2222752571105957,0) translate(-2.2222752571105957,0) translate(-2.2222752571105957,0) translate(-2.2222752571105957,0) translate(-2.2222752571105957,0) translate(-2.2222752571105957,0) translate(-2.2222752571105957,0) translate(-2.2222752571105957,0) translate(-2.2222752571105957,0) translate(-2.2222752571105957,0) translate(-2.2222752571105957,0) translate(-2.2222752571105957,0) translate(-2.2222752571105957,0) translate(-2.2222752571105957,0) translate(-2.2222752571105957,0) translate(-2.2222752571105957,0) translate(-2.2222752571105957,0) translate(-2.2222752571105957,0) translate(-2.2222752571105957,0) translate(-2.2222752571105957,0) translate(-2.2222752571105957,0) translate(-2.2222752571105957,0) translate(-2.2222752571105957,0) translate(-2.2222752571105957,0) translate(-2.2222752571105957,0) translate(-2.2222752571105957,0) translate(-2.2222752571105957,0) translate(-2.2222752571105957,0) translate(-2.2222752571105957,0) translate(-2.2222752571105957,0) translate(-2.2222752571105957,0) translate(-2.2222752571105957,0) translate(-2.2222752571105957,0) translate(-2.2222752571105957,0) translate(-2.2222752571105957,0) translate(-2.2222752571105957,0) translate(-2.2222752571105957,0) translate(-2.2222752571105957,0) translate(-2.2222752571105957,0) translate(-2.2222752571105957,0) translate(-2.2222752571105957,0) translate(-2.2222752571105957,0) translate(-2.2222752571105957,0) translate(-2.2222752571105957,0) translate(-2.2222752571105957,0) translate(-2.2222752571105957,0) translate(-2.2222752571105957,0) translate(-2.2222752571105957,0) translate(-2.2222752571105957,0) translate(-2.2222752571105957,0) translate(-2.2222752571105957,0) translate(-2.2222752571105957,0) translate(-2.2222752571105957,0) translate(-2.2222752571105957,0) translate(-2.2222752571105957,0) translate(-2.2222752571105957,0) translate(-2.2222752571105957,0) translate(-2.2222752571105957,0) translate(-2.2222752571105957,0) translate(-2.2222752571105957,0) translate(-2.2222752571105957,0) translate(-2.2222752571105957,0) translate(-2.2222752571105957,0) translate(-2.2222752571105957,0) translate(-2.2222752571105957,0) translate(-2.2222752571105957,0) translate(-2.2222752571105957,0) translate(-2.2222752571105957,0) translate(-2.2222752571105957,0) translate(-2.2222752571105957,0) translate(-2.2222752571105957,0) translate(-2.2222752571105957,0) translate(-2.2222752571105957,0) translate(-2.2222752571105957,0) translate(-2.2222752571105957,0) translate(-2.2222752571105957,0) translate(-2.2222752571105957,0) translate(-2.2222752571105957,0) translate(-2.2222752571105957,0) translate(-2.2222752571105957,0) translate(-2.2222752571105957,0) translate(-2.2222752571105957,0) translate(-2.2222752571105957,0) translate(-2.2222752571105957,0) translate(-2.2222752571105957,0) translate(-2.2222752571105957,0) translate(-2.2222752571105957,0) translate(-2.2222752571105957,0) translate(-2.2222752571105957,0) translate(-2.2222752571105957,0) translate(-2.2222752571105957,0) translate(-2.2222752571105957,0) translate(-2.2222752571105957,0) translate(-2.2222752571105957,0) translate(-2.2222752571105957,0) translate(-2.2222752571105957,0) translate(-2.2222752571105957,0) translate(-2.2222752571105957,0) translate(-2.2222752571105957,0) translate(-2.2222752571105957,0) translate(-2.2222752571105957,0) translate(-2.2222752571105957,0) translate(-2.2222752571105957,0) translate(-2.2222752571105957,0) translate(-2.2222752571105957,0) translate(-2.2222752571105957,0) translate(-2.2222752571105957,0) translate(-2.2222752571105957,0) translate(-2.2222752571105957,0) translate(-2.2222752571105957,0) translate(-2.2222752571105957,0) translate(-2.2222752571105957,0) translate(-2.2222752571105957,0) translate(-2.2222752571105957,0) translate(-2.2222752571105957,0) translate(-2.2222752571105957,0) translate(-2.2222752571105957,0) translate(-2.2222752571105957,0) translate(-2.2222752571105957,0) translate(-2.2222752571105957,0) translate(-2.2222752571105957,0) translate(-2.2222752571105957,0) translate(-2.2222752571105957,0) translate(-2.2222752571105957,0) translate(-2.2222752571105957,0) translate(-2.2222752571105957,0) translate(-2.2222752571105957,0) translate(-2.2222752571105957,0) translate(-2.2222752571105957,0) translate(-2.2222752571105957,0) translate(-2.2222752571105957,0) translate(-2.2222752571105957,0) translate(-2.2222752571105957,0) translate(-2.2222752571105957,0) translate(-2.2222752571105957,0) translate(-2.2222752571105957,0) translate(-2.2222752571105957,0) translate(-2.2222752571105957,0) translate(-2.2222752571105957,0) translate(-2.2222752571105957,0) translate(-2.2222752571105957,0) translate(-2.2222752571105957,0) translate(-2.2222752571105957,0) translate(-2.2222752571105957,0) translate(-2.2222752571105957,0) translate(-2.2222752571105957,0) translate(-2.2222752571105957,0) translate(-2.2222752571105957,0) translate(-2.2222752571105957,0) translate(-2.2222752571105957,0) translate(-2.2222752571105957,0) translate(-2.2222752571105957,0) translate(-2.2222752571105957,0) translate(-2.2222752571105957,0) translate(-2.2222752571105957,0) translate(-2.2222752571105957,0) translate(-2.2222752571105957,0) translate(-2.2222752571105957,0) translate(-2.2222752571105957,0) translate(-2.2222752571105957,0) translate(-2.2222752571105957,0) translate(-2.2222752571105957,0) translate(-2.2222752571105957,0) translate(-2.2222752571105957,0) translate(-2.2222752571105957,0) translate(-2.2222752571105957,0) translate(-2.2222752571105957,0) translate(-2.2222752571105957,0) translate(-2.2222752571105957,0) translate(-2.2222752571105957,0) translate(-2.2222752571105957,0) translate(-2.2222752571105957,0) translate(-2.2222752571105957,0) translate(-2.2222752571105957,0) translate(-2.2222752571105957,0) translate(-2.2222752571105957,0) translate(-2.2222752571105957,0) translate(-2.2222752571105957,0) translate(-2.2222752571105957,0) translate(-2.2222752571105957,0) translate(-2.2222752571105957,0) translate(-2.2222752571105957,0) translate(-2.2222752571105957,0) translate(-2.2222752571105957,0) translate(-2.2222752571105957,0) translate(-2.2222752571105957,0) translate(-2.2222752571105957,0) translate(-2.2222752571105957,0) translate(-2.2222752571105957,0) translate(-2.2222752571105957,0) translate(-2.2222752571105957,0) translate(-2.2222752571105957,0) translate(-2.2222752571105957,0) translate(-2.2222752571105957,0) translate(-2.2222752571105957,0) translate(-2.2222752571105957,0) translate(-2.2222752571105957,0) translate(-2.2222752571105957,0) translate(-2.2222752571105957,0) translate(-2.2222752571105957,0) translate(-2.2222752571105957,0) translate(-2.2222752571105957,0) translate(-2.2222752571105957,0) translate(-2.2222752571105957,0) translate(-2.2222752571105957,0) translate(-2.2222752571105957,0) translate(1598,622) " id="svg_81">
     <use id="svg_80" xlink:href="#c" xmlns:xlink="http://www.w3.org/1999/xlink"/>
    </mask>
    <path id="svg_82" mask="url(#d)" fill="#D15D64" d="m792.295256,552.477917l2.755,1.507a0.394,0.394 0 0 1 0,0.69l-2.755,1.51a0.39,0.39 0 0 0 -0.157,0.157l-1.506,2.753a0.394,0.394 0 0 1 -0.69,0l-1.51,-2.755a0.39,0.39 0 0 0 -0.157,-0.157l-2.755,-1.508a0.394,0.394 0 0 1 0,-0.69l2.757,-1.507a0.39,0.39 0 0 0 0.156,-0.157l1.507,-2.756a0.394,0.394 0 0 1 0.69,0l1.508,2.756a0.39,0.39 0 0 0 0.158,0.157"/>
   </g>
   <path id="svg_84" fill="#D15D64" d="m602.624306,508.475457l2.755,-1.506a0.395,0.395 0 0 0 0,-0.693l-2.755,-1.507a0.39,0.39 0 0 1 -0.156,-0.156l-1.506,-2.755a0.393,0.393 0 0 0 -0.692,0l-1.506,2.755a0.39,0.39 0 0 1 -0.16,0.156l-2.753,1.507a0.394,0.394 0 0 0 0,0.692l2.755,1.507a0.39,0.39 0 0 1 0.158,0.157l1.506,2.753c0.15,0.274 0.543,0.274 0.69,0l1.508,-2.755a0.39,0.39 0 0 1 0.157,-0.156"/>
   <path id="svg_85" fill="#7B63AB" d="m548.703306,605.88854l1.36,-0.743a0.395,0.395 0 0 0 0,-0.692l-1.36,-0.744a0.397,0.397 0 0 1 -0.156,-0.155l-0.743,-1.36a0.395,0.395 0 0 0 -0.692,0l-0.743,1.36a0.393,0.393 0 0 1 -0.157,0.156l-1.36,0.745a0.395,0.395 0 0 0 0,0.692l1.36,0.743c0.066,0.036 0.12,0.09 0.157,0.157l0.743,1.36c0.15,0.273 0.542,0.273 0.692,0l0.744,-1.36a0.4,0.4 0 0 1 0.157,-0.157"/>
   <path id="svg_86" fill="#D15D64" d="m837.624306,557.475457l2.755,-1.506a0.395,0.395 0 0 0 0,-0.693l-2.755,-1.507a0.39,0.39 0 0 1 -0.156,-0.156l-1.506,-2.755a0.393,0.393 0 0 0 -0.692,0l-1.506,2.755a0.39,0.39 0 0 1 -0.16,0.156l-2.753,1.507a0.394,0.394 0 0 0 0,0.692l2.755,1.507a0.39,0.39 0 0 1 0.158,0.157l1.506,2.753c0.15,0.274 0.543,0.274 0.69,0l1.508,-2.755a0.39,0.39 0 0 1 0.157,-0.156"/>
   <path id="svg_87" fill="#7B63AB" d="m783.703306,602.553457l1.36,-0.743a0.395,0.395 0 0 0 0,-0.692l-1.36,-0.744a0.397,0.397 0 0 1 -0.156,-0.155l-0.743,-1.36a0.395,0.395 0 0 0 -0.692,0l-0.743,1.36a0.393,0.393 0 0 1 -0.157,0.156l-1.36,0.745a0.395,0.395 0 0 0 0,0.692l1.36,0.743c0.066,0.036 0.12,0.09 0.157,0.157l0.743,1.36c0.15,0.273 0.542,0.273 0.692,0l0.744,-1.36a0.4,0.4 0 0 1 0.157,-0.157"/>
   <path id="svg_88" fill="#FCD05C" d="m809.703306,696.553457l1.36,-0.743a0.395,0.395 0 0 0 0,-0.692l-1.36,-0.743a0.4,0.4 0 0 1 -0.156,-0.157l-0.743,-1.36a0.394,0.394 0 0 0 -0.692,0l-0.743,1.36a0.395,0.395 0 0 1 -0.157,0.157l-1.36,0.743a0.395,0.395 0 0 0 0,0.692l1.36,0.744c0.066,0.037 0.12,0.09 0.157,0.157l0.743,1.36c0.15,0.273 0.542,0.273 0.692,0l0.744,-1.36a0.397,0.397 0 0 1 0.157,-0.156"/>
   <g id="svg_92">
    <mask transform="translate(0,-55.556880950927734) translate(-677.7939453125,-244.45028686523438) translate(1598,622) " id="svg_90">
     <use id="svg_89" xlink:href="#c" xmlns:xlink="http://www.w3.org/1999/xlink"/>
    </mask>
    <path id="svg_91" mask="url(#d)" fill="#D15D64" d="m927.854055,325.805832l2.755,1.507a0.394,0.394 0 0 1 0,0.69l-2.755,1.51a0.39,0.39 0 0 0 -0.157,0.157l-1.506,2.753a0.394,0.394 0 0 1 -0.69,0l-1.51,-2.755a0.39,0.39 0 0 0 -0.157,-0.157l-2.755,-1.508a0.394,0.394 0 0 1 0,-0.69l2.757,-1.507a0.39,0.39 0 0 0 0.156,-0.157l1.507,-2.756a0.394,0.394 0 0 1 0.69,0l1.508,2.756a0.39,0.39 0 0 0 0.158,0.157"/>
   </g>
   <path id="svg_93" fill="#D15D64" d="m760.405853,275.13655l2.755,-1.506a0.395,0.395 0 0 0 0,-0.693l-2.755,-1.507a0.39,0.39 0 0 1 -0.156,-0.156l-1.506,-2.755a0.393,0.393 0 0 0 -0.692,0l-1.506,2.755a0.39,0.39 0 0 1 -0.16,0.156l-2.753,1.507a0.394,0.394 0 0 0 0,0.692l2.755,1.507a0.39,0.39 0 0 1 0.158,0.157l1.506,2.753c0.15,0.274 0.543,0.274 0.69,0l1.508,-2.755a0.39,0.39 0 0 1 0.157,-0.156"/>
   <path id="svg_94" fill="#7B63AB" d="m706.484853,299.21455l1.36,-0.743a0.395,0.395 0 0 0 0,-0.692l-1.36,-0.744a0.397,0.397 0 0 1 -0.156,-0.155l-0.743,-1.36a0.395,0.395 0 0 0 -0.692,0l-0.743,1.36a0.393,0.393 0 0 1 -0.157,0.156l-1.36,0.745a0.395,0.395 0 0 0 0,0.692l1.36,0.743c0.066,0.036 0.12,0.09 0.157,0.157l0.743,1.36c0.15,0.273 0.542,0.273 0.692,0l0.744,-1.36a0.4,0.4 0 0 1 0.157,-0.157"/>
   <path id="svg_95" fill="#D15D64" d="m973.1831,330.803376l2.755,-1.506a0.395,0.395 0 0 0 0,-0.693l-2.755,-1.507a0.39,0.39 0 0 1 -0.156,-0.156l-1.506,-2.755a0.393,0.393 0 0 0 -0.692,0l-1.506,2.755a0.39,0.39 0 0 1 -0.16,0.156l-2.753,1.507a0.394,0.394 0 0 0 0,0.692l2.755,1.507a0.39,0.39 0 0 1 0.158,0.157l1.506,2.753c0.15,0.274 0.543,0.274 0.69,0l1.508,-2.755a0.39,0.39 0 0 1 0.157,-0.156"/>
   <path id="svg_96" fill="#7B63AB" d="m919.2621,375.881376l1.36,-0.743a0.395,0.395 0 0 0 0,-0.692l-1.36,-0.744a0.397,0.397 0 0 1 -0.156,-0.155l-0.743,-1.36a0.395,0.395 0 0 0 -0.692,0l-0.743,1.36a0.393,0.393 0 0 1 -0.157,0.156l-1.36,0.745a0.395,0.395 0 0 0 0,0.692l1.36,0.743c0.066,0.036 0.12,0.09 0.157,0.157l0.743,1.36c0.15,0.273 0.542,0.273 0.692,0l0.744,-1.36a0.4,0.4 0 0 1 0.157,-0.157"/>
   <path id="svg_103" fill="#D15D64" d="m837.980863,294.344049l2.756,1.507a0.394,0.394 0 0 1 0,0.69l-2.756,1.508a0.4,0.4 0 0 0 -0.156,0.156l-1.507,2.756a0.393,0.393 0 0 1 -0.69,0l-1.508,-2.755a0.395,0.395 0 0 0 -0.157,-0.16l-2.755,-1.505a0.394,0.394 0 0 1 0,-0.69l2.755,-1.508a0.393,0.393 0 0 0 0.157,-0.157l1.507,-2.754a0.393,0.393 0 0 1 0.69,0l1.508,2.754c0.036,0.067 0.09,0.12 0.156,0.157"/>
   <path id="svg_104" stroke-linejoin="round" stroke-linecap="round" stroke-width="1.097" stroke="#7B63AB" d="m551.697617,303.560223l-1.472,1.47m5.47,-5.47l-1.47,1.472m-2.457,2.691a1.852,1.852 0 1 0 2.62,-2.62a1.852,1.852 0 1 0 -2.62,2.62z"/>
   <path id="svg_105" fill="#E98333" d="m673.205617,235.677223l2.754,1.507a0.394,0.394 0 0 1 0,0.69l-2.755,1.508a0.397,0.397 0 0 0 -0.158,0.156l-1.506,2.756a0.393,0.393 0 0 1 -0.692,0l-1.507,-2.756a0.402,0.402 0 0 0 -0.157,-0.156l-2.755,-1.507a0.393,0.393 0 0 1 0,-0.69l2.755,-1.508a0.402,0.402 0 0 0 0.157,-0.156l1.508,-2.755a0.394,0.394 0 0 1 0.69,0l1.507,2.756c0.037,0.066 0.09,0.12 0.157,0.157"/>
   <path id="svg_106" stroke-linejoin="round" stroke-linecap="round" stroke-width="1.097" stroke="#7B63AB" d="m796.085617,397.816223l-0.847,-1.6a0.44,0.44 0 0 0 -0.18,-0.18l-1.6,-0.848a0.434,0.434 0 0 1 0,-0.768l1.6,-0.847a0.442,0.442 0 0 0 0.18,-0.18l0.847,-1.6a0.435,0.435 0 0 1 0.77,0l0.845,1.6a0.44,0.44 0 0 0 0.18,0.18l1.6,0.847c0.31,0.163 0.31,0.605 0,0.768l-1.6,0.847a0.436,0.436 0 0 0 -0.18,0.18l-0.846,1.6a0.435,0.435 0 0 1 -0.77,0l0.001,0.001z"/>
   <path id="svg_107" fill="#D15D64" d="m736.203617,356.677223l2.756,1.507a0.394,0.394 0 0 1 0,0.69l-2.756,1.507a0.4,0.4 0 0 0 -0.156,0.16l-1.507,2.754a0.393,0.393 0 0 1 -0.69,0l-1.508,-2.756a0.395,0.395 0 0 0 -0.157,-0.157l-2.755,-1.505a0.394,0.394 0 0 1 0,-0.69l2.755,-1.508a0.393,0.393 0 0 0 0.157,-0.156l1.507,-2.755a0.393,0.393 0 0 1 0.69,0l1.508,2.755c0.036,0.066 0.09,0.12 0.156,0.156"/>
   <path id="svg_108" fill="#D15D64" d="m442.038617,252.467223a2.907,2.907 0 1 1 -5.815,-0.003a2.907,2.907 0 0 1 5.815,0.003"/>
   <path id="svg_109" fill="#D15D64" d="m1129.033366,405.021714a2.907,2.907 0 1 1 -5.815,-0.003a2.907,2.907 0 0 1 5.815,0.003m-1091.835,65.209l2.756,1.507a0.394,0.394 0 0 1 0,0.692l-2.756,1.507a0.4,0.4 0 0 0 -0.156,0.156l-1.507,2.755a0.393,0.393 0 0 1 -0.69,0l-1.508,-2.755a0.395,0.395 0 0 0 -0.157,-0.156l-2.755,-1.507a0.394,0.394 0 0 1 0,-0.692l2.755,-1.507a0.393,0.393 0 0 0 0.157,-0.155l1.507,-2.755a0.393,0.393 0 0 1 0.69,0l1.508,2.756c0.036,0.067 0.09,0.12 0.156,0.156"/>
   <path id="svg_110" stroke-linejoin="round" stroke-linecap="round" stroke-width="1.097" stroke="#7B63AB" d="m551.635338,344.481613l-0.847,-1.6a0.44,0.44 0 0 0 -0.18,-0.18l-1.6,-0.848a0.434,0.434 0 0 1 0,-0.768l1.6,-0.847a0.442,0.442 0 0 0 0.18,-0.18l0.847,-1.6a0.435,0.435 0 0 1 0.77,0l0.845,1.6a0.44,0.44 0 0 0 0.18,0.18l1.6,0.847c0.31,0.163 0.31,0.605 0,0.768l-1.6,0.847a0.436,0.436 0 0 0 -0.18,0.18l-0.846,1.6a0.435,0.435 0 0 1 -0.77,0l0.001,0.001z"/>
   <g id="svg_114">
    <mask transform="translate(-100.00238800048828,157.7815399169922) translate(0,-55.556880950927734) translate(-677.7939453125,-244.45028686523438) translate(1598,622) " id="svg_112">
     <use id="svg_111" xlink:href="#c" xmlns:xlink="http://www.w3.org/1999/xlink"/>
    </mask>
    <path id="svg_113" mask="url(#d)" fill="#D15D64" d="m827.851667,483.587372l2.755,1.507a0.394,0.394 0 0 1 0,0.69l-2.755,1.51a0.39,0.39 0 0 0 -0.157,0.157l-1.506,2.753a0.394,0.394 0 0 1 -0.69,0l-1.51,-2.755a0.39,0.39 0 0 0 -0.157,-0.157l-2.755,-1.508a0.394,0.394 0 0 1 0,-0.69l2.757,-1.507a0.39,0.39 0 0 0 0.156,-0.157l1.507,-2.756a0.394,0.394 0 0 1 0.69,0l1.508,2.756a0.39,0.39 0 0 0 0.158,0.157"/>
   </g>
   <path id="svg_115" fill="#D15D64" d="m660.403466,432.91809l2.755,-1.506a0.395,0.395 0 0 0 0,-0.693l-2.755,-1.507a0.39,0.39 0 0 1 -0.156,-0.156l-1.506,-2.755a0.393,0.393 0 0 0 -0.692,0l-1.506,2.755a0.39,0.39 0 0 1 -0.16,0.156l-2.753,1.507a0.394,0.394 0 0 0 0,0.692l2.755,1.507a0.39,0.39 0 0 1 0.158,0.157l1.506,2.753c0.15,0.274 0.543,0.274 0.69,0l1.508,-2.755a0.39,0.39 0 0 1 0.157,-0.156"/>
   <path id="svg_116" fill="#7B63AB" d="m584.259712,463.662916l1.36,-0.743a0.395,0.395 0 0 0 0,-0.692l-1.36,-0.744a0.397,0.397 0 0 1 -0.156,-0.155l-0.743,-1.36a0.395,0.395 0 0 0 -0.692,0l-0.743,1.36a0.393,0.393 0 0 1 -0.157,0.156l-1.36,0.745a0.395,0.395 0 0 0 0,0.692l1.36,0.743c0.066,0.036 0.12,0.09 0.157,0.157l0.743,1.36c0.15,0.273 0.542,0.273 0.692,0l0.744,-1.36a0.4,0.4 0 0 1 0.157,-0.157"/>
   <path id="svg_117" fill="#7B63AB" d="m819.259712,533.662916l1.36,-0.743a0.395,0.395 0 0 0 0,-0.692l-1.36,-0.744a0.397,0.397 0 0 1 -0.156,-0.155l-0.743,-1.36a0.395,0.395 0 0 0 -0.692,0l-0.743,1.36a0.393,0.393 0 0 1 -0.157,0.156l-1.36,0.745a0.395,0.395 0 0 0 0,0.692l1.36,0.743c0.066,0.036 0.12,0.09 0.157,0.157l0.743,1.36c0.15,0.273 0.542,0.273 0.692,0l0.744,-1.36a0.4,0.4 0 0 1 0.157,-0.157"/>
   <path id="svg_118" fill="#D15D64" d="m760.201229,445.458763l2.756,1.507a0.394,0.394 0 0 1 0,0.69l-2.756,1.508a0.4,0.4 0 0 0 -0.156,0.156l-1.507,2.756a0.393,0.393 0 0 1 -0.69,0l-1.508,-2.755a0.395,0.395 0 0 0 -0.157,-0.16l-2.755,-1.505a0.394,0.394 0 0 1 0,-0.69l2.755,-1.508a0.393,0.393 0 0 0 0.157,-0.157l1.507,-2.754a0.393,0.393 0 0 1 0.69,0l1.508,2.754c0.036,0.067 0.09,0.12 0.156,0.157"/>
   <path id="svg_119" fill="#E98333" d="m573.203229,393.458763l2.754,1.507a0.394,0.394 0 0 1 0,0.69l-2.755,1.508a0.397,0.397 0 0 0 -0.158,0.156l-1.506,2.756a0.393,0.393 0 0 1 -0.692,0l-1.507,-2.756a0.402,0.402 0 0 0 -0.157,-0.156l-2.755,-1.507a0.393,0.393 0 0 1 0,-0.69l2.755,-1.508a0.402,0.402 0 0 0 0.157,-0.156l1.508,-2.755a0.394,0.394 0 0 1 0.69,0l1.507,2.756c0.037,0.066 0.09,0.12 0.157,0.157"/>
   <path id="svg_120" stroke-linejoin="round" stroke-linecap="round" stroke-width="1.097" stroke="#7B63AB" d="m673.860475,562.264589l-0.847,-1.6a0.44,0.44 0 0 0 -0.18,-0.18l-1.6,-0.848a0.434,0.434 0 0 1 0,-0.768l1.6,-0.847a0.442,0.442 0 0 0 0.18,-0.18l0.847,-1.6a0.435,0.435 0 0 1 0.77,0l0.845,1.6a0.44,0.44 0 0 0 0.18,0.18l1.6,0.847c0.31,0.163 0.31,0.605 0,0.768l-1.6,0.847a0.436,0.436 0 0 0 -0.18,0.18l-0.846,1.6a0.435,0.435 0 0 1 -0.77,0l0.001,0.001z"/>
   <path id="svg_121" fill="#D15D64" d="m613.978475,521.125589l2.756,1.507a0.394,0.394 0 0 1 0,0.69l-2.756,1.507a0.4,0.4 0 0 0 -0.156,0.16l-1.507,2.754a0.393,0.393 0 0 1 -0.69,0l-1.508,-2.756a0.395,0.395 0 0 0 -0.157,-0.157l-2.755,-1.505a0.394,0.394 0 0 1 0,-0.69l2.755,-1.508a0.393,0.393 0 0 0 0.157,-0.156l1.507,-2.755a0.393,0.393 0 0 1 0.69,0l1.508,2.755c0.036,0.066 0.09,0.12 0.156,0.156"/>
   <path id="svg_122" fill="#D15D64" d="m1229.035754,247.240174a2.907,2.907 0 1 1 -5.815,-0.003a2.907,2.907 0 0 1 5.815,0.003m-1091.835,65.209l2.756,1.507a0.394,0.394 0 0 1 0,0.692l-2.756,1.507a0.4,0.4 0 0 0 -0.156,0.156l-1.507,2.755a0.393,0.393 0 0 1 -0.69,0l-1.508,-2.755a0.395,0.395 0 0 0 -0.157,-0.156l-2.755,-1.507a0.394,0.394 0 0 1 0,-0.692l2.755,-1.507a0.393,0.393 0 0 0 0.157,-0.155l1.507,-2.755a0.393,0.393 0 0 1 0.69,0l1.508,2.756c0.036,0.067 0.09,0.12 0.156,0.156"/>
   <path id="svg_123" stroke-linejoin="round" stroke-linecap="round" stroke-width="1.097" stroke="#7B63AB" d="m651.637726,186.700073l-0.847,-1.6a0.44,0.44 0 0 0 -0.18,-0.18l-1.6,-0.848a0.434,0.434 0 0 1 0,-0.768l1.6,-0.847a0.442,0.442 0 0 0 0.18,-0.18l0.847,-1.6a0.435,0.435 0 0 1 0.77,0l0.845,1.6a0.44,0.44 0 0 0 0.18,0.18l1.6,0.847c0.31,0.163 0.31,0.605 0,0.768l-1.6,0.847a0.436,0.436 0 0 0 -0.18,0.18l-0.846,1.6a0.435,0.435 0 0 1 -0.77,0l0.001,0.001z"/>
   <g id="svg_127">
    <mask transform="translate(0,-55.556880950927734) translate(-677.7939453125,-244.45028686523438) translate(1598,622) " id="svg_125">
     <use id="svg_124" xlink:href="#c" xmlns:xlink="http://www.w3.org/1999/xlink"/>
    </mask>
    <path id="svg_126" mask="url(#d)" fill="#D15D64" d="m927.854055,325.805832l2.755,1.507a0.394,0.394 0 0 1 0,0.69l-2.755,1.51a0.39,0.39 0 0 0 -0.157,0.157l-1.506,2.753a0.394,0.394 0 0 1 -0.69,0l-1.51,-2.755a0.39,0.39 0 0 0 -0.157,-0.157l-2.755,-1.508a0.394,0.394 0 0 1 0,-0.69l2.757,-1.507a0.39,0.39 0 0 0 0.156,-0.157l1.507,-2.756a0.394,0.394 0 0 1 0.69,0l1.508,2.756a0.39,0.39 0 0 0 0.158,0.157"/>
   </g>
   <path id="svg_128" fill="#D15D64" d="m760.405854,275.13655l2.755,-1.506a0.395,0.395 0 0 0 0,-0.693l-2.755,-1.507a0.39,0.39 0 0 1 -0.156,-0.156l-1.506,-2.755a0.393,0.393 0 0 0 -0.692,0l-1.506,2.755a0.39,0.39 0 0 1 -0.16,0.156l-2.753,1.507a0.394,0.394 0 0 0 0,0.692l2.755,1.507a0.39,0.39 0 0 1 0.158,0.157l1.506,2.753c0.15,0.274 0.543,0.274 0.69,0l1.508,-2.755a0.39,0.39 0 0 1 0.157,-0.156"/>
   <path id="svg_129" fill="#7B63AB" d="m706.484854,299.21455l1.36,-0.743a0.395,0.395 0 0 0 0,-0.692l-1.36,-0.744a0.397,0.397 0 0 1 -0.156,-0.155l-0.743,-1.36a0.395,0.395 0 0 0 -0.692,0l-0.743,1.36a0.393,0.393 0 0 1 -0.157,0.156l-1.36,0.745a0.395,0.395 0 0 0 0,0.692l1.36,0.743c0.066,0.036 0.12,0.09 0.157,0.157l0.743,1.36c0.15,0.273 0.542,0.273 0.692,0l0.744,-1.36a0.4,0.4 0 0 1 0.157,-0.157"/>
   <path id="svg_130" fill="#7B63AB" d="m919.2621,375.881376l1.36,-0.743a0.395,0.395 0 0 0 0,-0.692l-1.36,-0.744a0.397,0.397 0 0 1 -0.156,-0.155l-0.743,-1.36a0.395,0.395 0 0 0 -0.692,0l-0.743,1.36a0.393,0.393 0 0 1 -0.157,0.156l-1.36,0.745a0.395,0.395 0 0 0 0,0.692l1.36,0.743c0.066,0.036 0.12,0.09 0.157,0.157l0.743,1.36c0.15,0.273 0.542,0.273 0.692,0l0.744,-1.36a0.4,0.4 0 0 1 0.157,-0.157"/>
   <path id="svg_131" fill="#D15D64" d="m837.980863,294.344049l2.756,1.507a0.394,0.394 0 0 1 0,0.69l-2.756,1.508a0.4,0.4 0 0 0 -0.156,0.156l-1.507,2.756a0.393,0.393 0 0 1 -0.69,0l-1.508,-2.755a0.395,0.395 0 0 0 -0.157,-0.16l-2.755,-1.505a0.394,0.394 0 0 1 0,-0.69l2.755,-1.508a0.393,0.393 0 0 0 0.157,-0.157l1.507,-2.754a0.393,0.393 0 0 1 0.69,0l1.508,2.754c0.036,0.067 0.09,0.12 0.156,0.157"/>
   <path id="svg_132" fill="#E98333" d="m673.205617,235.677223l2.754,1.507a0.394,0.394 0 0 1 0,0.69l-2.755,1.508a0.397,0.397 0 0 0 -0.158,0.156l-1.506,2.756a0.393,0.393 0 0 1 -0.692,0l-1.507,-2.756a0.402,0.402 0 0 0 -0.157,-0.156l-2.755,-1.507a0.393,0.393 0 0 1 0,-0.69l2.755,-1.508a0.402,0.402 0 0 0 0.157,-0.156l1.508,-2.755a0.394,0.394 0 0 1 0.69,0l1.507,2.756c0.037,0.066 0.09,0.12 0.157,0.157"/>
   <path id="svg_133" stroke-linejoin="round" stroke-linecap="round" stroke-width="1.097" stroke="#7B63AB" d="m796.085617,397.816223l-0.847,-1.6a0.44,0.44 0 0 0 -0.18,-0.18l-1.6,-0.848a0.434,0.434 0 0 1 0,-0.768l1.6,-0.847a0.442,0.442 0 0 0 0.18,-0.18l0.847,-1.6a0.435,0.435 0 0 1 0.77,0l0.845,1.6a0.44,0.44 0 0 0 0.18,0.18l1.6,0.847c0.31,0.163 0.31,0.605 0,0.768l-1.6,0.847a0.436,0.436 0 0 0 -0.18,0.18l-0.846,1.6a0.435,0.435 0 0 1 -0.77,0l0.001,0.001z"/>
   <path id="svg_134" fill="#D15D64" d="m736.203617,356.677223l2.756,1.507a0.394,0.394 0 0 1 0,0.69l-2.756,1.507a0.4,0.4 0 0 0 -0.156,0.16l-1.507,2.754a0.393,0.393 0 0 1 -0.69,0l-1.508,-2.756a0.395,0.395 0 0 0 -0.157,-0.157l-2.755,-1.505a0.394,0.394 0 0 1 0,-0.69l2.755,-1.508a0.393,0.393 0 0 0 0.157,-0.156l1.507,-2.755a0.393,0.393 0 0 1 0.69,0l1.508,2.755c0.036,0.066 0.09,0.12 0.156,0.156"/>
   <path id="svg_152" fill="#D15D64" d="m715.755726,76.561073l2.756,1.507a0.394,0.394 0 0 1 0,0.69l-2.756,1.508a0.4,0.4 0 0 0 -0.156,0.156l-1.507,2.756a0.393,0.393 0 0 1 -0.69,0l-1.508,-2.755a0.395,0.395 0 0 0 -0.157,-0.16l-2.755,-1.505a0.394,0.394 0 0 1 0,-0.69l2.755,-1.508a0.393,0.393 0 0 0 0.157,-0.157l1.507,-2.754a0.393,0.393 0 0 1 0.69,0l1.508,2.754c0.036,0.067 0.09,0.12 0.156,0.157"/>
   <path id="svg_153" stroke-linejoin="round" stroke-linecap="round" stroke-width="1.097" stroke="#7B63AB" d="m407.249726,92.444073l-1.472,1.47m5.47,-5.47l-1.47,1.472m-2.457,2.691a1.852,1.852 0 1 0 2.62,-2.62a1.852,1.852 0 1 0 -2.62,2.62z"/>
   <path id="svg_154" fill="#D15D64" d="m1229.035754,247.240174a2.907,2.907 0 1 1 -5.815,-0.003a2.907,2.907 0 0 1 5.815,0.003m-1091.835,65.209l2.756,1.507a0.394,0.394 0 0 1 0,0.692l-2.756,1.507a0.4,0.4 0 0 0 -0.156,0.156l-1.507,2.755a0.393,0.393 0 0 1 -0.69,0l-1.508,-2.755a0.395,0.395 0 0 0 -0.157,-0.156l-2.755,-1.507a0.394,0.394 0 0 1 0,-0.692l2.755,-1.507a0.393,0.393 0 0 0 0.157,-0.155l1.507,-2.755a0.393,0.393 0 0 1 0.69,0l1.508,2.756c0.036,0.067 0.09,0.12 0.156,0.156"/>
   <path id="svg_155" d="m433.222754,379.221174l3.554,-0.888l-0.887,3.554l-2.667,-2.666z" stroke-linejoin="round" stroke-linecap="round" stroke-width="1.097" stroke="#E98333"/>
   <path id="svg_156" stroke-linejoin="round" stroke-linecap="round" stroke-width="1.097" stroke="#7B63AB" d="m651.637726,186.700073l-0.847,-1.6a0.44,0.44 0 0 0 -0.18,-0.18l-1.6,-0.848a0.434,0.434 0 0 1 0,-0.768l1.6,-0.847a0.442,0.442 0 0 0 0.18,-0.18l0.847,-1.6a0.435,0.435 0 0 1 0.77,0l0.845,1.6a0.44,0.44 0 0 0 0.18,0.18l1.6,0.847c0.31,0.163 0.31,0.605 0,0.768l-1.6,0.847a0.436,0.436 0 0 0 -0.18,0.18l-0.846,1.6a0.435,0.435 0 0 1 -0.77,0l0.001,0.001z"/>
   <path id="svg_157" fill="#D15D64" d="m591.755726,145.561073l2.756,1.507a0.394,0.394 0 0 1 0,0.69l-2.756,1.507a0.4,0.4 0 0 0 -0.156,0.16l-1.507,2.754a0.393,0.393 0 0 1 -0.69,0l-1.508,-2.756a0.395,0.395 0 0 0 -0.157,-0.157l-2.755,-1.505a0.394,0.394 0 0 1 0,-0.69l2.755,-1.508a0.393,0.393 0 0 0 0.157,-0.156l1.507,-2.755a0.393,0.393 0 0 1 0.69,0l1.508,2.755c0.036,0.066 0.09,0.12 0.156,0.156"/>
   <path id="svg_158" d="m393.221799,407.987718l3.554,0.888l-0.887,-3.554l-2.667,2.666z" stroke-linejoin="round" stroke-linecap="round" stroke-width="1.097" stroke="#E98333"/>
   <path id="svg_159" fill="#D15D64" d="m760.405854,275.13655l2.755,-1.506a0.395,0.395 0 0 0 0,-0.693l-2.755,-1.507a0.39,0.39 0 0 1 -0.156,-0.156l-1.506,-2.755a0.393,0.393 0 0 0 -0.692,0l-1.506,2.755a0.39,0.39 0 0 1 -0.16,0.156l-2.753,1.507a0.394,0.394 0 0 0 0,0.692l2.755,1.507a0.39,0.39 0 0 1 0.158,0.157l1.506,2.753c0.15,0.274 0.543,0.274 0.69,0l1.508,-2.755a0.39,0.39 0 0 1 0.157,-0.156"/>
   <path id="svg_160" fill="#7B63AB" d="m706.484854,299.21455l1.36,-0.743a0.395,0.395 0 0 0 0,-0.692l-1.36,-0.744a0.397,0.397 0 0 1 -0.156,-0.155l-0.743,-1.36a0.395,0.395 0 0 0 -0.692,0l-0.743,1.36a0.393,0.393 0 0 1 -0.157,0.156l-1.36,0.745a0.395,0.395 0 0 0 0,0.692l1.36,0.743c0.066,0.036 0.12,0.09 0.157,0.157l0.743,1.36c0.15,0.273 0.542,0.273 0.692,0l0.744,-1.36a0.4,0.4 0 0 1 0.157,-0.157"/>
   <path id="svg_161" stroke-linejoin="round" stroke-linecap="round" stroke-width="1.097" stroke="#7B63AB" d="m551.697617,303.560223l-1.472,1.47m5.47,-5.47l-1.47,1.472m-2.457,2.691a1.852,1.852 0 1 0 2.62,-2.62a1.852,1.852 0 1 0 -2.62,2.62z"/>
   <path id="svg_162" fill="#E98333" d="m673.205617,235.677223l2.754,1.507a0.394,0.394 0 0 1 0,0.69l-2.755,1.508a0.397,0.397 0 0 0 -0.158,0.156l-1.506,2.756a0.393,0.393 0 0 1 -0.692,0l-1.507,-2.756a0.402,0.402 0 0 0 -0.157,-0.156l-2.755,-1.507a0.393,0.393 0 0 1 0,-0.69l2.755,-1.508a0.402,0.402 0 0 0 0.157,-0.156l1.508,-2.755a0.394,0.394 0 0 1 0.69,0l1.507,2.756c0.037,0.066 0.09,0.12 0.157,0.157"/>
   <path id="svg_163" fill="#D15D64" d="m736.203617,356.677223l2.756,1.507a0.394,0.394 0 0 1 0,0.69l-2.756,1.507a0.4,0.4 0 0 0 -0.156,0.16l-1.507,2.754a0.393,0.393 0 0 1 -0.69,0l-1.508,-2.756a0.395,0.395 0 0 0 -0.157,-0.157l-2.755,-1.505a0.394,0.394 0 0 1 0,-0.69l2.755,-1.508a0.393,0.393 0 0 0 0.157,-0.156l1.507,-2.755a0.393,0.393 0 0 1 0.69,0l1.508,2.755c0.036,0.066 0.09,0.12 0.156,0.156"/>
   <path id="svg_164" fill="#D15D64" d="m442.038617,252.467223a2.907,2.907 0 1 1 -5.815,-0.003a2.907,2.907 0 0 1 5.815,0.003"/>
   <path id="svg_165" fill="#D15D64" d="m1129.033366,405.021714a2.907,2.907 0 1 1 -5.815,-0.003a2.907,2.907 0 0 1 5.815,0.003m-1091.835,65.209l2.756,1.507a0.394,0.394 0 0 1 0,0.692l-2.756,1.507a0.4,0.4 0 0 0 -0.156,0.156l-1.507,2.755a0.393,0.393 0 0 1 -0.69,0l-1.508,-2.755a0.395,0.395 0 0 0 -0.157,-0.156l-2.755,-1.507a0.394,0.394 0 0 1 0,-0.692l2.755,-1.507a0.393,0.393 0 0 0 0.157,-0.155l1.507,-2.755a0.393,0.393 0 0 1 0.69,0l1.508,2.756c0.036,0.067 0.09,0.12 0.156,0.156"/>
   <path id="svg_166" stroke-linejoin="round" stroke-linecap="round" stroke-width="1.097" stroke="#7B63AB" d="m551.635338,344.481613l-0.847,-1.6a0.44,0.44 0 0 0 -0.18,-0.18l-1.6,-0.848a0.434,0.434 0 0 1 0,-0.768l1.6,-0.847a0.442,0.442 0 0 0 0.18,-0.18l0.847,-1.6a0.435,0.435 0 0 1 0.77,0l0.845,1.6a0.44,0.44 0 0 0 0.18,0.18l1.6,0.847c0.31,0.163 0.31,0.605 0,0.768l-1.6,0.847a0.436,0.436 0 0 0 -0.18,0.18l-0.846,1.6a0.435,0.435 0 0 1 -0.77,0l0.001,0.001z"/>
   <path id="svg_167" fill="#D15D64" d="m660.403466,432.91809l2.755,-1.506a0.395,0.395 0 0 0 0,-0.693l-2.755,-1.507a0.39,0.39 0 0 1 -0.156,-0.156l-1.506,-2.755a0.393,0.393 0 0 0 -0.692,0l-1.506,2.755a0.39,0.39 0 0 1 -0.16,0.156l-2.753,1.507a0.394,0.394 0 0 0 0,0.692l2.755,1.507a0.39,0.39 0 0 1 0.158,0.157l1.506,2.753c0.15,0.274 0.543,0.274 0.69,0l1.508,-2.755a0.39,0.39 0 0 1 0.157,-0.156"/>
   <path id="svg_168" fill="#E98333" d="m573.203229,393.458763l2.754,1.507a0.394,0.394 0 0 1 0,0.69l-2.755,1.508a0.397,0.397 0 0 0 -0.158,0.156l-1.506,2.756a0.393,0.393 0 0 1 -0.692,0l-1.507,-2.756a0.402,0.402 0 0 0 -0.157,-0.156l-2.755,-1.507a0.393,0.393 0 0 1 0,-0.69l2.755,-1.508a0.402,0.402 0 0 0 0.157,-0.156l1.508,-2.755a0.394,0.394 0 0 1 0.69,0l1.507,2.756c0.037,0.066 0.09,0.12 0.157,0.157"/>
   <path id="svg_169" fill="#D15D64" d="m1229.035754,247.240174a2.907,2.907 0 1 1 -5.815,-0.003a2.907,2.907 0 0 1 5.815,0.003m-1091.835,65.209l2.756,1.507a0.394,0.394 0 0 1 0,0.692l-2.756,1.507a0.4,0.4 0 0 0 -0.156,0.156l-1.507,2.755a0.393,0.393 0 0 1 -0.69,0l-1.508,-2.755a0.395,0.395 0 0 0 -0.157,-0.156l-2.755,-1.507a0.394,0.394 0 0 1 0,-0.692l2.755,-1.507a0.393,0.393 0 0 0 0.157,-0.155l1.507,-2.755a0.393,0.393 0 0 1 0.69,0l1.508,2.756c0.036,0.067 0.09,0.12 0.156,0.156"/>
   <path id="svg_170" stroke-linejoin="round" stroke-linecap="round" stroke-width="1.097" stroke="#7B63AB" d="m651.637726,186.700073l-0.847,-1.6a0.44,0.44 0 0 0 -0.18,-0.18l-1.6,-0.848a0.434,0.434 0 0 1 0,-0.768l1.6,-0.847a0.442,0.442 0 0 0 0.18,-0.18l0.847,-1.6a0.435,0.435 0 0 1 0.77,0l0.845,1.6a0.44,0.44 0 0 0 0.18,0.18l1.6,0.847c0.31,0.163 0.31,0.605 0,0.768l-1.6,0.847a0.436,0.436 0 0 0 -0.18,0.18l-0.846,1.6a0.435,0.435 0 0 1 -0.77,0l0.001,0.001z"/>
   <path id="svg_171" fill="#D15D64" d="m760.405854,275.13655l2.755,-1.506a0.395,0.395 0 0 0 0,-0.693l-2.755,-1.507a0.39,0.39 0 0 1 -0.156,-0.156l-1.506,-2.755a0.393,0.393 0 0 0 -0.692,0l-1.506,2.755a0.39,0.39 0 0 1 -0.16,0.156l-2.753,1.507a0.394,0.394 0 0 0 0,0.692l2.755,1.507a0.39,0.39 0 0 1 0.158,0.157l1.506,2.753c0.15,0.274 0.543,0.274 0.69,0l1.508,-2.755a0.39,0.39 0 0 1 0.157,-0.156"/>
   <path id="svg_172" fill="#7B63AB" d="m706.484854,299.21455l1.36,-0.743a0.395,0.395 0 0 0 0,-0.692l-1.36,-0.744a0.397,0.397 0 0 1 -0.156,-0.155l-0.743,-1.36a0.395,0.395 0 0 0 -0.692,0l-0.743,1.36a0.393,0.393 0 0 1 -0.157,0.156l-1.36,0.745a0.395,0.395 0 0 0 0,0.692l1.36,0.743c0.066,0.036 0.12,0.09 0.157,0.157l0.743,1.36c0.15,0.273 0.542,0.273 0.692,0l0.744,-1.36a0.4,0.4 0 0 1 0.157,-0.157"/>
   <path id="svg_173" fill="#E98333" d="m673.205617,235.677223l2.754,1.507a0.394,0.394 0 0 1 0,0.69l-2.755,1.508a0.397,0.397 0 0 0 -0.158,0.156l-1.506,2.756a0.393,0.393 0 0 1 -0.692,0l-1.507,-2.756a0.402,0.402 0 0 0 -0.157,-0.156l-2.755,-1.507a0.393,0.393 0 0 1 0,-0.69l2.755,-1.508a0.402,0.402 0 0 0 0.157,-0.156l1.508,-2.755a0.394,0.394 0 0 1 0.69,0l1.507,2.756c0.037,0.066 0.09,0.12 0.157,0.157"/>
   <path id="svg_174" fill="#D15D64" d="m736.203617,356.677223l2.756,1.507a0.394,0.394 0 0 1 0,0.69l-2.756,1.507a0.4,0.4 0 0 0 -0.156,0.16l-1.507,2.754a0.393,0.393 0 0 1 -0.69,0l-1.508,-2.756a0.395,0.395 0 0 0 -0.157,-0.157l-2.755,-1.505a0.394,0.394 0 0 1 0,-0.69l2.755,-1.508a0.393,0.393 0 0 0 0.157,-0.156l1.507,-2.755a0.393,0.393 0 0 1 0.69,0l1.508,2.755c0.036,0.066 0.09,0.12 0.156,0.156"/>
   <path id="svg_175" fill="#D15D64" d="m1233.545886,283.232673l2.756,1.507a0.394,0.394 0 0 1 0,0.69l-2.756,1.508a0.4,0.4 0 0 0 -0.156,0.156l-1.507,2.756a0.393,0.393 0 0 1 -0.69,0l-1.508,-2.755a0.395,0.395 0 0 0 -0.157,-0.16l-2.755,-1.505a0.394,0.394 0 0 1 0,-0.69l2.755,-1.508a0.393,0.393 0 0 0 0.157,-0.157l1.507,-2.754a0.393,0.393 0 0 1 0.69,0l1.508,2.754c0.036,0.067 0.09,0.12 0.156,0.157"/>
   <path id="svg_176" stroke-linejoin="round" stroke-linecap="round" stroke-width="1.097" stroke="#7B63AB" d="m925.039886,299.115673l-1.472,1.47m5.47,-5.47l-1.47,1.472m-2.457,2.691a1.852,1.852 0 1 0 2.62,-2.62a1.852,1.852 0 1 0 -2.62,2.62z"/>
   <path id="svg_177" fill="#D15D64" d="m1746.825915,453.911774a2.907,2.907 0 1 1 -5.815,-0.003a2.907,2.907 0 0 1 5.815,0.003m-1091.835,65.209l2.756,1.507a0.394,0.394 0 0 1 0,0.692l-2.756,1.507a0.4,0.4 0 0 0 -0.156,0.156l-1.507,2.755a0.393,0.393 0 0 1 -0.69,0l-1.508,-2.755a0.395,0.395 0 0 0 -0.157,-0.156l-2.755,-1.507a0.394,0.394 0 0 1 0,-0.692l2.755,-1.507a0.393,0.393 0 0 0 0.157,-0.155l1.507,-2.755a0.393,0.393 0 0 1 0.69,0l1.508,2.756c0.036,0.067 0.09,0.12 0.156,0.156"/>
   <path id="svg_178" d="m951.012915,585.892774l3.554,-0.888l-0.887,3.554l-2.667,-2.666z" stroke-linejoin="round" stroke-linecap="round" stroke-width="1.097" stroke="#E98333"/>
   <path id="svg_179" stroke-linejoin="round" stroke-linecap="round" stroke-width="1.097" stroke="#7B63AB" d="m1169.427886,393.371673l-0.847,-1.6a0.44,0.44 0 0 0 -0.18,-0.18l-1.6,-0.848a0.434,0.434 0 0 1 0,-0.768l1.6,-0.847a0.442,0.442 0 0 0 0.18,-0.18l0.847,-1.6a0.435,0.435 0 0 1 0.77,0l0.845,1.6a0.44,0.44 0 0 0 0.18,0.18l1.6,0.847c0.31,0.163 0.31,0.605 0,0.768l-1.6,0.847a0.436,0.436 0 0 0 -0.18,0.18l-0.846,1.6a0.435,0.435 0 0 1 -0.77,0l0.001,0.001z"/>
   <path id="svg_180" fill="#D15D64" d="m1109.545886,352.232673l2.756,1.507a0.394,0.394 0 0 1 0,0.69l-2.756,1.507a0.4,0.4 0 0 0 -0.156,0.16l-1.507,2.754a0.393,0.393 0 0 1 -0.69,0l-1.508,-2.756a0.395,0.395 0 0 0 -0.157,-0.157l-2.755,-1.505a0.394,0.394 0 0 1 0,-0.69l2.755,-1.508a0.393,0.393 0 0 0 0.157,-0.156l1.507,-2.755a0.393,0.393 0 0 1 0.69,0l1.508,2.755c0.036,0.066 0.09,0.12 0.156,0.156"/>
   <path id="svg_181" d="m911.01196,614.659319l3.554,0.888l-0.887,-3.554l-2.667,2.666z" stroke-linejoin="round" stroke-linecap="round" stroke-width="1.097" stroke="#E98333"/>
   <path id="svg_182" fill="#D15D64" d="m1278.196014,481.80815l2.755,-1.506a0.395,0.395 0 0 0 0,-0.693l-2.755,-1.507a0.39,0.39 0 0 1 -0.156,-0.156l-1.506,-2.755a0.393,0.393 0 0 0 -0.692,0l-1.506,2.755a0.39,0.39 0 0 1 -0.16,0.156l-2.753,1.507a0.394,0.394 0 0 0 0,0.692l2.755,1.507a0.39,0.39 0 0 1 0.158,0.157l1.506,2.753c0.15,0.274 0.543,0.274 0.69,0l1.508,-2.755a0.39,0.39 0 0 1 0.157,-0.156"/>
   <path id="svg_183" fill="#7B63AB" d="m1224.275014,505.88615l1.36,-0.743a0.395,0.395 0 0 0 0,-0.692l-1.36,-0.744a0.397,0.397 0 0 1 -0.156,-0.155l-0.743,-1.36a0.395,0.395 0 0 0 -0.692,0l-0.743,1.36a0.393,0.393 0 0 1 -0.157,0.156l-1.36,0.745a0.395,0.395 0 0 0 0,0.692l1.36,0.743c0.066,0.036 0.12,0.09 0.157,0.157l0.743,1.36c0.15,0.273 0.542,0.273 0.692,0l0.744,-1.36a0.4,0.4 0 0 1 0.157,-0.157"/>
   <path id="svg_184" stroke-linejoin="round" stroke-linecap="round" stroke-width="1.097" stroke="#7B63AB" d="m1069.487778,510.231823l-1.472,1.47m5.47,-5.47l-1.47,1.472m-2.457,2.691a1.852,1.852 0 1 0 2.62,-2.62a1.852,1.852 0 1 0 -2.62,2.62z"/>
   <path id="svg_185" fill="#E98333" d="m1190.995778,442.348823l2.754,1.507a0.394,0.394 0 0 1 0,0.69l-2.755,1.508a0.397,0.397 0 0 0 -0.158,0.156l-1.506,2.756a0.393,0.393 0 0 1 -0.692,0l-1.507,-2.756a0.402,0.402 0 0 0 -0.157,-0.156l-2.755,-1.507a0.393,0.393 0 0 1 0,-0.69l2.755,-1.508a0.402,0.402 0 0 0 0.157,-0.156l1.508,-2.755a0.394,0.394 0 0 1 0.69,0l1.507,2.756c0.037,0.066 0.09,0.12 0.157,0.157"/>
   <path id="svg_186" fill="#D15D64" d="m1253.993778,563.348823l2.756,1.507a0.394,0.394 0 0 1 0,0.69l-2.756,1.507a0.4,0.4 0 0 0 -0.156,0.16l-1.507,2.754a0.393,0.393 0 0 1 -0.69,0l-1.508,-2.756a0.395,0.395 0 0 0 -0.157,-0.157l-2.755,-1.505a0.394,0.394 0 0 1 0,-0.69l2.755,-1.508a0.393,0.393 0 0 0 0.157,-0.156l1.507,-2.755a0.393,0.393 0 0 1 0.69,0l1.508,2.755c0.036,0.066 0.09,0.12 0.156,0.156"/>
   <path id="svg_187" fill="#D15D64" d="m959.828778,459.138823a2.907,2.907 0 1 1 -5.815,-0.003a2.907,2.907 0 0 1 5.815,0.003"/>
   <path id="svg_188" fill="#D15D64" d="m1646.823527,611.693314a2.907,2.907 0 1 1 -5.815,-0.003a2.907,2.907 0 0 1 5.815,0.003m-1091.835,65.209l2.756,1.507a0.394,0.394 0 0 1 0,0.692l-2.756,1.507a0.4,0.4 0 0 0 -0.156,0.156l-1.507,2.755a0.393,0.393 0 0 1 -0.69,0l-1.508,-2.755a0.395,0.395 0 0 0 -0.157,-0.156l-2.755,-1.507a0.394,0.394 0 0 1 0,-0.692l2.755,-1.507a0.393,0.393 0 0 0 0.157,-0.155l1.507,-2.755a0.393,0.393 0 0 1 0.69,0l1.508,2.756c0.036,0.067 0.09,0.12 0.156,0.156"/>
   <path id="svg_189" stroke-linejoin="round" stroke-linecap="round" stroke-width="1.097" stroke="#7B63AB" d="m1069.425499,551.153213l-0.847,-1.6a0.44,0.44 0 0 0 -0.18,-0.18l-1.6,-0.848a0.434,0.434 0 0 1 0,-0.768l1.6,-0.847a0.442,0.442 0 0 0 0.18,-0.18l0.847,-1.6a0.435,0.435 0 0 1 0.77,0l0.845,1.6a0.44,0.44 0 0 0 0.18,0.18l1.6,0.847c0.31,0.163 0.31,0.605 0,0.768l-1.6,0.847a0.436,0.436 0 0 0 -0.18,0.18l-0.846,1.6a0.435,0.435 0 0 1 -0.77,0l0.001,0.001z"/>
   <path id="svg_190" fill="#D15D64" d="m1178.193627,639.58969l2.755,-1.506a0.395,0.395 0 0 0 0,-0.693l-2.755,-1.507a0.39,0.39 0 0 1 -0.156,-0.156l-1.506,-2.755a0.393,0.393 0 0 0 -0.692,0l-1.506,2.755a0.39,0.39 0 0 1 -0.16,0.156l-2.753,1.507a0.394,0.394 0 0 0 0,0.692l2.755,1.507a0.39,0.39 0 0 1 0.158,0.157l1.506,2.753c0.15,0.274 0.543,0.274 0.69,0l1.508,-2.755a0.39,0.39 0 0 1 0.157,-0.156"/>
   <path id="svg_191" fill="#E98333" d="m1090.99339,600.130363l2.754,1.507a0.394,0.394 0 0 1 0,0.69l-2.755,1.508a0.397,0.397 0 0 0 -0.158,0.156l-1.506,2.756a0.393,0.393 0 0 1 -0.692,0l-1.507,-2.756a0.402,0.402 0 0 0 -0.157,-0.156l-2.755,-1.507a0.393,0.393 0 0 1 0,-0.69l2.755,-1.508a0.402,0.402 0 0 0 0.157,-0.156l1.508,-2.755a0.394,0.394 0 0 1 0.69,0l1.507,2.756c0.037,0.066 0.09,0.12 0.157,0.157"/>
   <path id="svg_192" fill="#D15D64" d="m1746.825915,453.911774a2.907,2.907 0 1 1 -5.815,-0.003a2.907,2.907 0 0 1 5.815,0.003m-1091.835,65.209l2.756,1.507a0.394,0.394 0 0 1 0,0.692l-2.756,1.507a0.4,0.4 0 0 0 -0.156,0.156l-1.507,2.755a0.393,0.393 0 0 1 -0.69,0l-1.508,-2.755a0.395,0.395 0 0 0 -0.157,-0.156l-2.755,-1.507a0.394,0.394 0 0 1 0,-0.692l2.755,-1.507a0.393,0.393 0 0 0 0.157,-0.155l1.507,-2.755a0.393,0.393 0 0 1 0.69,0l1.508,2.756c0.036,0.067 0.09,0.12 0.156,0.156"/>
   <path id="svg_193" stroke-linejoin="round" stroke-linecap="round" stroke-width="1.097" stroke="#7B63AB" d="m1169.427887,393.371673l-0.847,-1.6a0.44,0.44 0 0 0 -0.18,-0.18l-1.6,-0.848a0.434,0.434 0 0 1 0,-0.768l1.6,-0.847a0.442,0.442 0 0 0 0.18,-0.18l0.847,-1.6a0.435,0.435 0 0 1 0.77,0l0.845,1.6a0.44,0.44 0 0 0 0.18,0.18l1.6,0.847c0.31,0.163 0.31,0.605 0,0.768l-1.6,0.847a0.436,0.436 0 0 0 -0.18,0.18l-0.846,1.6a0.435,0.435 0 0 1 -0.77,0l0.001,0.001z"/>
   <path id="svg_194" fill="#D15D64" d="m1278.196015,481.80815l2.755,-1.506a0.395,0.395 0 0 0 0,-0.693l-2.755,-1.507a0.39,0.39 0 0 1 -0.156,-0.156l-1.506,-2.755a0.393,0.393 0 0 0 -0.692,0l-1.506,2.755a0.39,0.39 0 0 1 -0.16,0.156l-2.753,1.507a0.394,0.394 0 0 0 0,0.692l2.755,1.507a0.39,0.39 0 0 1 0.158,0.157l1.506,2.753c0.15,0.274 0.543,0.274 0.69,0l1.508,-2.755a0.39,0.39 0 0 1 0.157,-0.156"/>
   <path id="svg_195" fill="#7B63AB" d="m1224.275015,505.88615l1.36,-0.743a0.395,0.395 0 0 0 0,-0.692l-1.36,-0.744a0.397,0.397 0 0 1 -0.156,-0.155l-0.743,-1.36a0.395,0.395 0 0 0 -0.692,0l-0.743,1.36a0.393,0.393 0 0 1 -0.157,0.156l-1.36,0.745a0.395,0.395 0 0 0 0,0.692l1.36,0.743c0.066,0.036 0.12,0.09 0.157,0.157l0.743,1.36c0.15,0.273 0.542,0.273 0.692,0l0.744,-1.36a0.4,0.4 0 0 1 0.157,-0.157"/>
   <path id="svg_196" fill="#E98333" d="m1190.995778,442.348823l2.754,1.507a0.394,0.394 0 0 1 0,0.69l-2.755,1.508a0.397,0.397 0 0 0 -0.158,0.156l-1.506,2.756a0.393,0.393 0 0 1 -0.692,0l-1.507,-2.756a0.402,0.402 0 0 0 -0.157,-0.156l-2.755,-1.507a0.393,0.393 0 0 1 0,-0.69l2.755,-1.508a0.402,0.402 0 0 0 0.157,-0.156l1.508,-2.755a0.394,0.394 0 0 1 0.69,0l1.507,2.756c0.037,0.066 0.09,0.12 0.157,0.157"/>
   <path id="svg_197" fill="#D15D64" d="m1253.993778,563.348823l2.756,1.507a0.394,0.394 0 0 1 0,0.69l-2.756,1.507a0.4,0.4 0 0 0 -0.156,0.16l-1.507,2.754a0.393,0.393 0 0 1 -0.69,0l-1.508,-2.756a0.395,0.395 0 0 0 -0.157,-0.157l-2.755,-1.505a0.394,0.394 0 0 1 0,-0.69l2.755,-1.508a0.393,0.393 0 0 0 0.157,-0.156l1.507,-2.755a0.393,0.393 0 0 1 0.69,0l1.508,2.755c0.036,0.066 0.09,0.12 0.156,0.156"/>
  </g>
 </g>
</svg>